<ttFont>
    <TTGlyph name="A" xMin="50" yMin="0" xMax="431" yMax="657">
      <contour>
        <pt x="307" y="657" on="1"/>
        <pt x="431" y="657" on="0"/>
        <pt x="431" y="525" on="1"/>
        <pt x="431" y="0" on="1"/>
        <pt x="291" y="0" on="1"/>
        <pt x="291" y="217" on="1"/>
        <pt x="190" y="217" on="1"/>
        <pt x="190" y="0" on="1"/>
        <pt x="50" y="0" on="1"/>
        <pt x="50" y="525" on="1"/>
        <pt x="50" y="657" on="0"/>
        <pt x="174" y="657" on="1"/>
      </contour>
      <contour>
        <pt x="190" y="325" on="1"/>
        <pt x="291" y="325" on="1"/>
        <pt x="291" y="542" on="1"/>
        <pt x="291" y="550" on="0"/>
        <pt x="280" y="562" on="0"/>
        <pt x="272" y="562" on="1"/>
        <pt x="209" y="562" on="1"/>
        <pt x="201" y="562" on="0"/>
        <pt x="190" y="550" on="0"/>
        <pt x="190" y="542" on="1"/>
      </contour>
    </TTGlyph>
    <TTGlyph name="AE" xMin="50" yMin="0" xMax="583" yMax="647">
      <contour>
        <pt x="431" y="533" on="1"/>
        <pt x="431" y="366" on="1"/>
        <pt x="573" y="366" on="1"/>
        <pt x="573" y="263" on="1"/>
        <pt x="431" y="263" on="1"/>
        <pt x="431" y="116" on="1"/>
        <pt x="583" y="116" on="1"/>
        <pt x="583" y="0" on="1"/>
        <pt x="291" y="0" on="1"/>
        <pt x="291" y="246" on="1"/>
        <pt x="190" y="246" on="1"/>
        <pt x="190" y="0" on="1"/>
        <pt x="50" y="0" on="1"/>
        <pt x="50" y="515" on="1"/>
        <pt x="50" y="647" on="0"/>
        <pt x="174" y="647" on="1"/>
        <pt x="583" y="647" on="1"/>
        <pt x="583" y="533" on="1"/>
      </contour>
      <contour>
        <pt x="209" y="543" on="1"/>
        <pt x="201" y="543" on="0"/>
        <pt x="190" y="531" on="0"/>
        <pt x="190" y="523" on="1"/>
        <pt x="190" y="354" on="1"/>
        <pt x="291" y="354" on="1"/>
        <pt x="291" y="543" on="1"/>
      </contour>
    </TTGlyph>
    <TTGlyph name="Aacute" xMin="50" yMin="0" xMax="431" yMax="800">
      <contour>
        <pt x="307" y="657" on="1"/>
        <pt x="431" y="657" on="0"/>
        <pt x="431" y="525" on="1"/>
        <pt x="431" y="0" on="1"/>
        <pt x="291" y="0" on="1"/>
        <pt x="291" y="217" on="1"/>
        <pt x="190" y="217" on="1"/>
        <pt x="190" y="0" on="1"/>
        <pt x="50" y="0" on="1"/>
        <pt x="50" y="525" on="1"/>
        <pt x="50" y="657" on="0"/>
        <pt x="174" y="657" on="1"/>
      </contour>
      <contour>
        <pt x="190" y="325" on="1"/>
        <pt x="291" y="325" on="1"/>
        <pt x="291" y="542" on="1"/>
        <pt x="291" y="550" on="0"/>
        <pt x="280" y="562" on="0"/>
        <pt x="272" y="562" on="1"/>
        <pt x="209" y="562" on="1"/>
        <pt x="201" y="562" on="0"/>
        <pt x="190" y="550" on="0"/>
        <pt x="190" y="542" on="1"/>
      </contour>
      <contour>
        <pt x="370" y="800" on="1"/>
        <pt x="239" y="698" on="1"/>
        <pt x="140" y="698" on="1"/>
        <pt x="223" y="800" on="1"/>
      </contour>
    </TTGlyph>
    <TTGlyph name="Acircumflex" xMin="50" yMin="0" xMax="431" yMax="807">
      <contour>
        <pt x="307" y="657" on="1"/>
        <pt x="431" y="657" on="0"/>
        <pt x="431" y="525" on="1"/>
        <pt x="431" y="0" on="1"/>
        <pt x="291" y="0" on="1"/>
        <pt x="291" y="217" on="1"/>
        <pt x="190" y="217" on="1"/>
        <pt x="190" y="0" on="1"/>
        <pt x="50" y="0" on="1"/>
        <pt x="50" y="525" on="1"/>
        <pt x="50" y="657" on="0"/>
        <pt x="174" y="657" on="1"/>
      </contour>
      <contour>
        <pt x="190" y="325" on="1"/>
        <pt x="291" y="325" on="1"/>
        <pt x="291" y="542" on="1"/>
        <pt x="291" y="550" on="0"/>
        <pt x="280" y="562" on="0"/>
        <pt x="272" y="562" on="1"/>
        <pt x="209" y="562" on="1"/>
        <pt x="201" y="562" on="0"/>
        <pt x="190" y="550" on="0"/>
        <pt x="190" y="542" on="1"/>
      </contour>
      <contour>
        <pt x="398" y="701" on="1"/>
        <pt x="299" y="701" on="1"/>
        <pt x="240" y="757" on="1"/>
        <pt x="181" y="701" on="1"/>
        <pt x="82" y="701" on="1"/>
        <pt x="165" y="807" on="1"/>
        <pt x="315" y="807" on="1"/>
      </contour>
    </TTGlyph>
    <TTGlyph name="Adieresis" xMin="50" yMin="0" xMax="431" yMax="809">
      <contour>
        <pt x="307" y="657" on="1"/>
        <pt x="431" y="657" on="0"/>
        <pt x="431" y="525" on="1"/>
        <pt x="431" y="0" on="1"/>
        <pt x="291" y="0" on="1"/>
        <pt x="291" y="217" on="1"/>
        <pt x="190" y="217" on="1"/>
        <pt x="190" y="0" on="1"/>
        <pt x="50" y="0" on="1"/>
        <pt x="50" y="525" on="1"/>
        <pt x="50" y="657" on="0"/>
        <pt x="174" y="657" on="1"/>
      </contour>
      <contour>
        <pt x="190" y="325" on="1"/>
        <pt x="291" y="325" on="1"/>
        <pt x="291" y="542" on="1"/>
        <pt x="291" y="550" on="0"/>
        <pt x="280" y="562" on="0"/>
        <pt x="272" y="562" on="1"/>
        <pt x="209" y="562" on="1"/>
        <pt x="201" y="562" on="0"/>
        <pt x="190" y="550" on="0"/>
        <pt x="190" y="542" on="1"/>
      </contour>
      <contour>
        <pt x="183" y="809" on="0"/>
        <pt x="216" y="775" on="0"/>
        <pt x="216" y="728" on="0"/>
        <pt x="183" y="695" on="0"/>
        <pt x="136" y="695" on="0"/>
        <pt x="102" y="728" on="0"/>
        <pt x="102" y="775" on="0"/>
        <pt x="136" y="809" on="0"/>
      </contour>
      <contour>
        <pt x="345" y="809" on="0"/>
        <pt x="378" y="775" on="0"/>
        <pt x="378" y="728" on="0"/>
        <pt x="345" y="695" on="0"/>
        <pt x="298" y="695" on="0"/>
        <pt x="264" y="728" on="0"/>
        <pt x="264" y="775" on="0"/>
        <pt x="298" y="809" on="0"/>
      </contour>
    </TTGlyph>
    <TTGlyph name="Agrave" xMin="50" yMin="0" xMax="431" yMax="800">
      <contour>
        <pt x="307" y="657" on="1"/>
        <pt x="431" y="657" on="0"/>
        <pt x="431" y="525" on="1"/>
        <pt x="431" y="0" on="1"/>
        <pt x="291" y="0" on="1"/>
        <pt x="291" y="217" on="1"/>
        <pt x="190" y="217" on="1"/>
        <pt x="190" y="0" on="1"/>
        <pt x="50" y="0" on="1"/>
        <pt x="50" y="525" on="1"/>
        <pt x="50" y="657" on="0"/>
        <pt x="174" y="657" on="1"/>
      </contour>
      <contour>
        <pt x="190" y="325" on="1"/>
        <pt x="291" y="325" on="1"/>
        <pt x="291" y="542" on="1"/>
        <pt x="291" y="550" on="0"/>
        <pt x="280" y="562" on="0"/>
        <pt x="272" y="562" on="1"/>
        <pt x="209" y="562" on="1"/>
        <pt x="201" y="562" on="0"/>
        <pt x="190" y="550" on="0"/>
        <pt x="190" y="542" on="1"/>
      </contour>
      <contour>
        <pt x="242" y="698" on="1"/>
        <pt x="111" y="800" on="1"/>
        <pt x="258" y="800" on="1"/>
        <pt x="341" y="698" on="1"/>
      </contour>
    </TTGlyph>
    <TTGlyph name="Aring" xMin="50" yMin="0" xMax="431" yMax="861">
      <contour>
        <pt x="307" y="657" on="1"/>
        <pt x="431" y="657" on="0"/>
        <pt x="431" y="525" on="1"/>
        <pt x="431" y="0" on="1"/>
        <pt x="291" y="0" on="1"/>
        <pt x="291" y="217" on="1"/>
        <pt x="190" y="217" on="1"/>
        <pt x="190" y="0" on="1"/>
        <pt x="50" y="0" on="1"/>
        <pt x="50" y="525" on="1"/>
        <pt x="50" y="657" on="0"/>
        <pt x="174" y="657" on="1"/>
      </contour>
      <contour>
        <pt x="190" y="325" on="1"/>
        <pt x="291" y="325" on="1"/>
        <pt x="291" y="542" on="1"/>
        <pt x="291" y="550" on="0"/>
        <pt x="280" y="562" on="0"/>
        <pt x="272" y="562" on="1"/>
        <pt x="209" y="562" on="1"/>
        <pt x="201" y="562" on="0"/>
        <pt x="190" y="550" on="0"/>
        <pt x="190" y="542" on="1"/>
      </contour>
      <contour>
        <pt x="273" y="861" on="1"/>
        <pt x="343" y="861" on="0"/>
        <pt x="343" y="786" on="1"/>
        <pt x="343" y="773" on="1"/>
        <pt x="343" y="698" on="0"/>
        <pt x="273" y="698" on="1"/>
        <pt x="209" y="698" on="1"/>
        <pt x="138" y="698" on="0"/>
        <pt x="138" y="773" on="1"/>
        <pt x="138" y="786" on="1"/>
        <pt x="138" y="861" on="0"/>
        <pt x="209" y="861" on="1"/>
      </contour>
      <contour>
        <pt x="273" y="752" on="1"/>
        <pt x="273" y="806" on="1"/>
        <pt x="273" y="812" on="0"/>
        <pt x="265" y="820" on="0"/>
        <pt x="260" y="820" on="1"/>
        <pt x="222" y="820" on="1"/>
        <pt x="209" y="820" on="0"/>
        <pt x="209" y="806" on="1"/>
        <pt x="209" y="752" on="1"/>
        <pt x="209" y="747" on="0"/>
        <pt x="217" y="738" on="0"/>
        <pt x="222" y="738" on="1"/>
        <pt x="260" y="738" on="1"/>
        <pt x="265" y="738" on="0"/>
        <pt x="273" y="747" on="0"/>
      </contour>
    </TTGlyph>
    <TTGlyph name="Atilde" xMin="50" yMin="0" xMax="431" yMax="800">
      <contour>
        <pt x="307" y="657" on="1"/>
        <pt x="431" y="657" on="0"/>
        <pt x="431" y="525" on="1"/>
        <pt x="431" y="0" on="1"/>
        <pt x="291" y="0" on="1"/>
        <pt x="291" y="217" on="1"/>
        <pt x="190" y="217" on="1"/>
        <pt x="190" y="0" on="1"/>
        <pt x="50" y="0" on="1"/>
        <pt x="50" y="525" on="1"/>
        <pt x="50" y="657" on="0"/>
        <pt x="174" y="657" on="1"/>
      </contour>
      <contour>
        <pt x="190" y="325" on="1"/>
        <pt x="291" y="325" on="1"/>
        <pt x="291" y="542" on="1"/>
        <pt x="291" y="550" on="0"/>
        <pt x="280" y="562" on="0"/>
        <pt x="272" y="562" on="1"/>
        <pt x="209" y="562" on="1"/>
        <pt x="201" y="562" on="0"/>
        <pt x="190" y="550" on="0"/>
        <pt x="190" y="542" on="1"/>
      </contour>
      <contour>
        <pt x="292" y="688" on="1"/>
        <pt x="265" y="691" on="0"/>
        <pt x="192" y="719" on="0"/>
        <pt x="173" y="721" on="1"/>
        <pt x="132" y="721" on="0"/>
        <pt x="107" y="690" on="1"/>
        <pt x="80" y="692" on="1"/>
        <pt x="81" y="701" on="1"/>
        <pt x="85" y="750" on="0"/>
        <pt x="143" y="800" on="0"/>
        <pt x="216" y="800" on="0"/>
        <pt x="298" y="768" on="0"/>
        <pt x="352" y="768" on="0"/>
        <pt x="378" y="798" on="1"/>
        <pt x="405" y="796" on="1"/>
        <pt x="404" y="787" on="1"/>
        <pt x="400" y="739" on="0"/>
        <pt x="341" y="688" on="0"/>
        <pt x="301" y="688" on="1"/>
      </contour>
    </TTGlyph>
    <TTGlyph name="B" xMin="50" yMin="0" xMax="431" yMax="647">
      <contour>
        <pt x="366" y="354" on="1"/>
        <pt x="431" y="331" on="0"/>
        <pt x="431" y="248" on="1"/>
        <pt x="431" y="132" on="1"/>
        <pt x="431" y="0" on="0"/>
        <pt x="307" y="0" on="1"/>
        <pt x="50" y="0" on="1"/>
        <pt x="50" y="647" on="1"/>
        <pt x="299" y="647" on="1"/>
        <pt x="423" y="647" on="0"/>
        <pt x="423" y="515" on="1"/>
        <pt x="423" y="456" on="1"/>
        <pt x="423" y="376" on="0"/>
      </contour>
      <contour>
        <pt x="264" y="552" on="1"/>
        <pt x="190" y="552" on="1"/>
        <pt x="190" y="379" on="1"/>
        <pt x="264" y="379" on="1"/>
        <pt x="272" y="379" on="0"/>
        <pt x="283" y="391" on="0"/>
        <pt x="283" y="399" on="1"/>
        <pt x="283" y="532" on="1"/>
        <pt x="283" y="540" on="0"/>
        <pt x="272" y="552" on="0"/>
      </contour>
      <contour>
        <pt x="291" y="116" on="1"/>
        <pt x="291" y="261" on="1"/>
        <pt x="291" y="269" on="0"/>
        <pt x="280" y="281" on="0"/>
        <pt x="272" y="281" on="1"/>
        <pt x="190" y="281" on="1"/>
        <pt x="190" y="96" on="1"/>
        <pt x="272" y="96" on="1"/>
        <pt x="280" y="96" on="0"/>
        <pt x="291" y="108" on="0"/>
      </contour>
    </TTGlyph>
    <TTGlyph name="C" xMin="50" yMin="-10" xMax="424" yMax="657">
      <contour>
        <pt x="291" y="106" on="1"/>
        <pt x="291" y="206" on="1"/>
        <pt x="424" y="206" on="1"/>
        <pt x="424" y="122" on="1"/>
        <pt x="424" y="-10" on="0"/>
        <pt x="300" y="-10" on="1"/>
        <pt x="174" y="-10" on="1"/>
        <pt x="50" y="-10" on="0"/>
        <pt x="50" y="122" on="1"/>
        <pt x="50" y="525" on="1"/>
        <pt x="50" y="657" on="0"/>
        <pt x="174" y="657" on="1"/>
        <pt x="300" y="657" on="1"/>
        <pt x="424" y="657" on="0"/>
        <pt x="424" y="525" on="1"/>
        <pt x="424" y="464" on="1"/>
        <pt x="291" y="464" on="1"/>
        <pt x="291" y="542" on="1"/>
        <pt x="291" y="550" on="0"/>
        <pt x="280" y="562" on="0"/>
        <pt x="272" y="562" on="1"/>
        <pt x="209" y="562" on="1"/>
        <pt x="201" y="562" on="0"/>
        <pt x="190" y="550" on="0"/>
        <pt x="190" y="542" on="1"/>
        <pt x="190" y="106" on="1"/>
        <pt x="190" y="98" on="0"/>
        <pt x="201" y="86" on="0"/>
        <pt x="209" y="86" on="1"/>
        <pt x="272" y="86" on="1"/>
        <pt x="280" y="86" on="0"/>
        <pt x="291" y="98" on="0"/>
      </contour>
    </TTGlyph>
    <TTGlyph name="Ccedilla" xMin="50" yMin="-106" xMax="424" yMax="657">
      <contour>
        <pt x="102" y="-106" on="1"/>
        <pt x="194" y="-10" on="1"/>
        <pt x="174" y="-10" on="1"/>
        <pt x="50" y="-10" on="0"/>
        <pt x="50" y="122" on="1"/>
        <pt x="50" y="525" on="1"/>
        <pt x="50" y="657" on="0"/>
        <pt x="174" y="657" on="1"/>
        <pt x="300" y="657" on="1"/>
        <pt x="424" y="657" on="0"/>
        <pt x="424" y="525" on="1"/>
        <pt x="424" y="464" on="1"/>
        <pt x="291" y="464" on="1"/>
        <pt x="291" y="542" on="1"/>
        <pt x="291" y="550" on="0"/>
        <pt x="280" y="562" on="0"/>
        <pt x="272" y="562" on="1"/>
        <pt x="209" y="562" on="1"/>
        <pt x="201" y="562" on="0"/>
        <pt x="190" y="550" on="0"/>
        <pt x="190" y="542" on="1"/>
        <pt x="190" y="106" on="1"/>
        <pt x="190" y="98" on="0"/>
        <pt x="201" y="86" on="0"/>
        <pt x="209" y="86" on="1"/>
        <pt x="272" y="86" on="1"/>
        <pt x="280" y="86" on="0"/>
        <pt x="291" y="98" on="0"/>
        <pt x="291" y="106" on="1"/>
        <pt x="291" y="206" on="1"/>
        <pt x="424" y="206" on="1"/>
        <pt x="424" y="122" on="1"/>
        <pt x="424" y="-10" on="0"/>
        <pt x="300" y="-10" on="1"/>
        <pt x="296" y="-10" on="1"/>
        <pt x="249" y="-106" on="1"/>
      </contour>
    </TTGlyph>
    <TTGlyph name="D" xMin="50" yMin="0" xMax="431" yMax="647">
      <contour>
        <pt x="307" y="647" on="1"/>
        <pt x="431" y="647" on="0"/>
        <pt x="431" y="515" on="1"/>
        <pt x="431" y="132" on="1"/>
        <pt x="431" y="0" on="0"/>
        <pt x="307" y="0" on="1"/>
        <pt x="50" y="0" on="1"/>
        <pt x="50" y="647" on="1"/>
      </contour>
      <contour>
        <pt x="291" y="116" on="1"/>
        <pt x="291" y="532" on="1"/>
        <pt x="291" y="540" on="0"/>
        <pt x="280" y="552" on="0"/>
        <pt x="272" y="552" on="1"/>
        <pt x="190" y="552" on="1"/>
        <pt x="190" y="96" on="1"/>
        <pt x="272" y="96" on="1"/>
        <pt x="280" y="96" on="0"/>
        <pt x="291" y="108" on="0"/>
      </contour>
    </TTGlyph>
    <TTGlyph name="E" xMin="50" yMin="0" xMax="345" yMax="647">
      <contour>
        <pt x="190" y="116" on="1"/>
        <pt x="345" y="116" on="1"/>
        <pt x="345" y="0" on="1"/>
        <pt x="50" y="0" on="1"/>
        <pt x="50" y="647" on="1"/>
        <pt x="345" y="647" on="1"/>
        <pt x="345" y="533" on="1"/>
        <pt x="190" y="533" on="1"/>
        <pt x="190" y="381" on="1"/>
        <pt x="335" y="381" on="1"/>
        <pt x="335" y="271" on="1"/>
        <pt x="190" y="271" on="1"/>
      </contour>
    </TTGlyph>
    <TTGlyph name="Eacute" xMin="50" yMin="0" xMax="345" yMax="800">
      <contour>
        <pt x="190" y="116" on="1"/>
        <pt x="345" y="116" on="1"/>
        <pt x="345" y="0" on="1"/>
        <pt x="50" y="0" on="1"/>
        <pt x="50" y="647" on="1"/>
        <pt x="345" y="647" on="1"/>
        <pt x="345" y="533" on="1"/>
        <pt x="190" y="533" on="1"/>
        <pt x="190" y="381" on="1"/>
        <pt x="335" y="381" on="1"/>
        <pt x="335" y="271" on="1"/>
        <pt x="190" y="271" on="1"/>
      </contour>
      <contour>
        <pt x="340" y="800" on="1"/>
        <pt x="209" y="698" on="1"/>
        <pt x="110" y="698" on="1"/>
        <pt x="193" y="800" on="1"/>
      </contour>
    </TTGlyph>
    <TTGlyph name="Ecircumflex" xMin="36" yMin="0" xMax="352" yMax="807">
      <contour>
        <pt x="190" y="116" on="1"/>
        <pt x="345" y="116" on="1"/>
        <pt x="345" y="0" on="1"/>
        <pt x="50" y="0" on="1"/>
        <pt x="50" y="647" on="1"/>
        <pt x="345" y="647" on="1"/>
        <pt x="345" y="533" on="1"/>
        <pt x="190" y="533" on="1"/>
        <pt x="190" y="381" on="1"/>
        <pt x="335" y="381" on="1"/>
        <pt x="335" y="271" on="1"/>
        <pt x="190" y="271" on="1"/>
      </contour>
      <contour>
        <pt x="352" y="701" on="1"/>
        <pt x="253" y="701" on="1"/>
        <pt x="194" y="757" on="1"/>
        <pt x="135" y="701" on="1"/>
        <pt x="36" y="701" on="1"/>
        <pt x="119" y="807" on="1"/>
        <pt x="269" y="807" on="1"/>
      </contour>
    </TTGlyph>
    <TTGlyph name="Edieresis" xMin="50" yMin="0" xMax="345" yMax="809">
      <contour>
        <pt x="190" y="116" on="1"/>
        <pt x="345" y="116" on="1"/>
        <pt x="345" y="0" on="1"/>
        <pt x="50" y="0" on="1"/>
        <pt x="50" y="647" on="1"/>
        <pt x="345" y="647" on="1"/>
        <pt x="345" y="533" on="1"/>
        <pt x="190" y="533" on="1"/>
        <pt x="190" y="381" on="1"/>
        <pt x="335" y="381" on="1"/>
        <pt x="335" y="271" on="1"/>
        <pt x="190" y="271" on="1"/>
      </contour>
      <contour>
        <pt x="138" y="809" on="0"/>
        <pt x="171" y="775" on="0"/>
        <pt x="171" y="728" on="0"/>
        <pt x="138" y="695" on="0"/>
        <pt x="91" y="695" on="0"/>
        <pt x="57" y="728" on="0"/>
        <pt x="57" y="775" on="0"/>
        <pt x="91" y="809" on="0"/>
      </contour>
      <contour>
        <pt x="300" y="809" on="0"/>
        <pt x="333" y="775" on="0"/>
        <pt x="333" y="728" on="0"/>
        <pt x="300" y="695" on="0"/>
        <pt x="253" y="695" on="0"/>
        <pt x="219" y="728" on="0"/>
        <pt x="219" y="775" on="0"/>
        <pt x="253" y="809" on="0"/>
      </contour>
    </TTGlyph>
    <TTGlyph name="Egrave" xMin="50" yMin="0" xMax="345" yMax="800">
      <contour>
        <pt x="190" y="116" on="1"/>
        <pt x="345" y="116" on="1"/>
        <pt x="345" y="0" on="1"/>
        <pt x="50" y="0" on="1"/>
        <pt x="50" y="647" on="1"/>
        <pt x="345" y="647" on="1"/>
        <pt x="345" y="533" on="1"/>
        <pt x="190" y="533" on="1"/>
        <pt x="190" y="381" on="1"/>
        <pt x="335" y="381" on="1"/>
        <pt x="335" y="271" on="1"/>
        <pt x="190" y="271" on="1"/>
      </contour>
      <contour>
        <pt x="184" y="698" on="1"/>
        <pt x="53" y="800" on="1"/>
        <pt x="200" y="800" on="1"/>
        <pt x="283" y="698" on="1"/>
      </contour>
    </TTGlyph>
    <TTGlyph name="Eth" xMin="10" yMin="0" xMax="454" yMax="647">
      <contour>
        <pt x="330" y="647" on="1"/>
        <pt x="454" y="647" on="0"/>
        <pt x="454" y="515" on="1"/>
        <pt x="454" y="132" on="1"/>
        <pt x="454" y="0" on="0"/>
        <pt x="330" y="0" on="1"/>
        <pt x="73" y="0" on="1"/>
        <pt x="73" y="280" on="1"/>
        <pt x="10" y="280" on="1"/>
        <pt x="10" y="367" on="1"/>
        <pt x="73" y="367" on="1"/>
        <pt x="73" y="647" on="1"/>
      </contour>
      <contour>
        <pt x="314" y="116" on="1"/>
        <pt x="314" y="532" on="1"/>
        <pt x="314" y="540" on="0"/>
        <pt x="303" y="552" on="0"/>
        <pt x="295" y="552" on="1"/>
        <pt x="213" y="552" on="1"/>
        <pt x="213" y="367" on="1"/>
        <pt x="263" y="367" on="1"/>
        <pt x="263" y="280" on="1"/>
        <pt x="213" y="280" on="1"/>
        <pt x="213" y="96" on="1"/>
        <pt x="295" y="96" on="1"/>
        <pt x="303" y="96" on="0"/>
        <pt x="314" y="108" on="0"/>
      </contour>
    </TTGlyph>
    <TTGlyph name="F" xMin="50" yMin="0" xMax="342" yMax="647">
      <contour>
        <pt x="190" y="254" on="1"/>
        <pt x="190" y="0" on="1"/>
        <pt x="50" y="0" on="1"/>
        <pt x="50" y="647" on="1"/>
        <pt x="342" y="647" on="1"/>
        <pt x="342" y="526" on="1"/>
        <pt x="190" y="526" on="1"/>
        <pt x="190" y="371" on="1"/>
        <pt x="332" y="371" on="1"/>
        <pt x="332" y="254" on="1"/>
      </contour>
    </TTGlyph>
    <TTGlyph name="G" xMin="50" yMin="-10" xMax="424" yMax="657">
      <contour>
        <pt x="239" y="257" on="1"/>
        <pt x="239" y="360" on="1"/>
        <pt x="424" y="360" on="1"/>
        <pt x="424" y="122" on="1"/>
        <pt x="424" y="-10" on="0"/>
        <pt x="300" y="-10" on="1"/>
        <pt x="174" y="-10" on="1"/>
        <pt x="50" y="-10" on="0"/>
        <pt x="50" y="122" on="1"/>
        <pt x="50" y="525" on="1"/>
        <pt x="50" y="657" on="0"/>
        <pt x="174" y="657" on="1"/>
        <pt x="300" y="657" on="1"/>
        <pt x="424" y="657" on="0"/>
        <pt x="424" y="525" on="1"/>
        <pt x="424" y="464" on="1"/>
        <pt x="291" y="464" on="1"/>
        <pt x="291" y="542" on="1"/>
        <pt x="291" y="550" on="0"/>
        <pt x="280" y="562" on="0"/>
        <pt x="272" y="562" on="1"/>
        <pt x="209" y="562" on="1"/>
        <pt x="201" y="562" on="0"/>
        <pt x="190" y="550" on="0"/>
        <pt x="190" y="542" on="1"/>
        <pt x="190" y="106" on="1"/>
        <pt x="190" y="98" on="0"/>
        <pt x="201" y="86" on="0"/>
        <pt x="209" y="86" on="1"/>
        <pt x="272" y="86" on="1"/>
        <pt x="280" y="86" on="0"/>
        <pt x="291" y="98" on="0"/>
        <pt x="291" y="106" on="1"/>
        <pt x="291" y="257" on="1"/>
      </contour>
    </TTGlyph>
    <TTGlyph name="H" xMin="50" yMin="0" xMax="441" yMax="647">
      <contour>
        <pt x="190" y="254" on="1"/>
        <pt x="190" y="0" on="1"/>
        <pt x="50" y="0" on="1"/>
        <pt x="50" y="647" on="1"/>
        <pt x="190" y="647" on="1"/>
        <pt x="190" y="376" on="1"/>
        <pt x="301" y="376" on="1"/>
        <pt x="301" y="647" on="1"/>
        <pt x="441" y="647" on="1"/>
        <pt x="441" y="0" on="1"/>
        <pt x="301" y="0" on="1"/>
        <pt x="301" y="254" on="1"/>
      </contour>
    </TTGlyph>
    <TTGlyph name="I" xMin="50" yMin="0" xMax="190" yMax="647">
      <contour>
        <pt x="190" y="647" on="1"/>
        <pt x="190" y="0" on="1"/>
        <pt x="50" y="0" on="1"/>
        <pt x="50" y="647" on="1"/>
      </contour>
    </TTGlyph>
    <TTGlyph name="Iacute" xMin="31" yMin="0" xMax="261" yMax="800">
      <contour>
        <pt x="190" y="647" on="1"/>
        <pt x="190" y="0" on="1"/>
        <pt x="50" y="0" on="1"/>
        <pt x="50" y="647" on="1"/>
      </contour>
      <contour>
        <pt x="261" y="800" on="1"/>
        <pt x="130" y="698" on="1"/>
        <pt x="31" y="698" on="1"/>
        <pt x="114" y="800" on="1"/>
      </contour>
    </TTGlyph>
    <TTGlyph name="Icircumflex" xMin="-38" yMin="0" xMax="278" yMax="807">
      <contour>
        <pt x="190" y="647" on="1"/>
        <pt x="190" y="0" on="1"/>
        <pt x="50" y="0" on="1"/>
        <pt x="50" y="647" on="1"/>
      </contour>
      <contour>
        <pt x="278" y="701" on="1"/>
        <pt x="179" y="701" on="1"/>
        <pt x="120" y="757" on="1"/>
        <pt x="61" y="701" on="1"/>
        <pt x="-38" y="701" on="1"/>
        <pt x="45" y="807" on="1"/>
        <pt x="195" y="807" on="1"/>
      </contour>
    </TTGlyph>
    <TTGlyph name="Idieresis" xMin="-18" yMin="0" xMax="258" yMax="809">
      <contour>
        <pt x="190" y="647" on="1"/>
        <pt x="190" y="0" on="1"/>
        <pt x="50" y="0" on="1"/>
        <pt x="50" y="647" on="1"/>
      </contour>
      <contour>
        <pt x="63" y="809" on="0"/>
        <pt x="96" y="775" on="0"/>
        <pt x="96" y="728" on="0"/>
        <pt x="63" y="695" on="0"/>
        <pt x="16" y="695" on="0"/>
        <pt x="-18" y="728" on="0"/>
        <pt x="-18" y="775" on="0"/>
        <pt x="16" y="809" on="0"/>
      </contour>
      <contour>
        <pt x="225" y="809" on="0"/>
        <pt x="258" y="775" on="0"/>
        <pt x="258" y="728" on="0"/>
        <pt x="225" y="695" on="0"/>
        <pt x="178" y="695" on="0"/>
        <pt x="144" y="728" on="0"/>
        <pt x="144" y="775" on="0"/>
        <pt x="178" y="809" on="0"/>
      </contour>
    </TTGlyph>
    <TTGlyph name="Igrave" xMin="-21" yMin="0" xMax="209" yMax="800">
      <contour>
        <pt x="190" y="647" on="1"/>
        <pt x="190" y="0" on="1"/>
        <pt x="50" y="0" on="1"/>
        <pt x="50" y="647" on="1"/>
      </contour>
      <contour>
        <pt x="110" y="698" on="1"/>
        <pt x="-21" y="800" on="1"/>
        <pt x="126" y="800" on="1"/>
        <pt x="209" y="698" on="1"/>
      </contour>
    </TTGlyph>
    <TTGlyph name="J" xMin="11" yMin="-10" xMax="375" yMax="647">
      <contour>
        <pt x="235" y="647" on="1"/>
        <pt x="375" y="647" on="1"/>
        <pt x="375" y="122" on="1"/>
        <pt x="375" y="-10" on="0"/>
        <pt x="251" y="-10" on="1"/>
        <pt x="135" y="-10" on="1"/>
        <pt x="11" y="-10" on="0"/>
        <pt x="11" y="122" on="1"/>
        <pt x="11" y="203" on="1"/>
        <pt x="144" y="203" on="1"/>
        <pt x="144" y="106" on="1"/>
        <pt x="144" y="98" on="0"/>
        <pt x="155" y="86" on="0"/>
        <pt x="163" y="86" on="1"/>
        <pt x="216" y="86" on="1"/>
        <pt x="224" y="86" on="0"/>
        <pt x="235" y="98" on="0"/>
        <pt x="235" y="106" on="1"/>
      </contour>
    </TTGlyph>
    <TTGlyph name="K" xMin="50" yMin="0" xMax="474" yMax="647">
      <contour>
        <pt x="453" y="647" on="1"/>
        <pt x="343" y="350" on="1"/>
        <pt x="474" y="0" on="1"/>
        <pt x="331" y="0" on="1"/>
        <pt x="235" y="256" on="1"/>
        <pt x="190" y="256" on="1"/>
        <pt x="190" y="0" on="1"/>
        <pt x="50" y="0" on="1"/>
        <pt x="50" y="647" on="1"/>
        <pt x="190" y="647" on="1"/>
        <pt x="190" y="376" on="1"/>
        <pt x="224" y="376" on="1"/>
        <pt x="325" y="647" on="1"/>
      </contour>
    </TTGlyph>
    <TTGlyph name="L" xMin="50" yMin="0" xMax="343" yMax="647">
      <contour>
        <pt x="190" y="118" on="1"/>
        <pt x="343" y="118" on="1"/>
        <pt x="343" y="0" on="1"/>
        <pt x="50" y="0" on="1"/>
        <pt x="50" y="647" on="1"/>
        <pt x="190" y="647" on="1"/>
      </contour>
    </TTGlyph>
    <TTGlyph name="M" xMin="49" yMin="0" xMax="653" yMax="657">
      <contour>
        <pt x="189" y="0" on="1"/>
        <pt x="49" y="0" on="1"/>
        <pt x="49" y="525" on="1"/>
        <pt x="49" y="657" on="0"/>
        <pt x="173" y="657" on="1"/>
        <pt x="247" y="657" on="1"/>
        <pt x="320" y="657" on="0"/>
        <pt x="351" y="609" on="1"/>
        <pt x="380" y="657" on="0"/>
        <pt x="455" y="657" on="1"/>
        <pt x="529" y="657" on="1"/>
        <pt x="653" y="657" on="0"/>
        <pt x="653" y="525" on="1"/>
        <pt x="653" y="0" on="1"/>
        <pt x="513" y="0" on="1"/>
        <pt x="513" y="537" on="1"/>
        <pt x="513" y="545" on="0"/>
        <pt x="502" y="557" on="0"/>
        <pt x="494" y="557" on="1"/>
        <pt x="440" y="557" on="1"/>
        <pt x="432" y="557" on="0"/>
        <pt x="421" y="545" on="0"/>
        <pt x="421" y="537" on="1"/>
        <pt x="421" y="0" on="1"/>
        <pt x="281" y="0" on="1"/>
        <pt x="281" y="537" on="1"/>
        <pt x="281" y="545" on="0"/>
        <pt x="270" y="557" on="0"/>
        <pt x="262" y="557" on="1"/>
        <pt x="208" y="557" on="1"/>
        <pt x="200" y="557" on="0"/>
        <pt x="189" y="545" on="0"/>
        <pt x="189" y="537" on="1"/>
      </contour>
    </TTGlyph>
    <TTGlyph name="N" xMin="49" yMin="0" xMax="421" yMax="657">
      <contour>
        <pt x="421" y="0" on="1"/>
        <pt x="281" y="0" on="1"/>
        <pt x="281" y="537" on="1"/>
        <pt x="281" y="545" on="0"/>
        <pt x="270" y="557" on="0"/>
        <pt x="262" y="557" on="1"/>
        <pt x="208" y="557" on="1"/>
        <pt x="200" y="557" on="0"/>
        <pt x="189" y="545" on="0"/>
        <pt x="189" y="537" on="1"/>
        <pt x="189" y="0" on="1"/>
        <pt x="49" y="0" on="1"/>
        <pt x="49" y="525" on="1"/>
        <pt x="49" y="657" on="0"/>
        <pt x="173" y="657" on="1"/>
        <pt x="297" y="657" on="1"/>
        <pt x="421" y="657" on="0"/>
        <pt x="421" y="525" on="1"/>
      </contour>
    </TTGlyph>
    <TTGlyph name="Ntilde" xMin="49" yMin="0" xMax="421" yMax="800">
      <contour>
        <pt x="421" y="0" on="1"/>
        <pt x="281" y="0" on="1"/>
        <pt x="281" y="537" on="1"/>
        <pt x="281" y="545" on="0"/>
        <pt x="270" y="557" on="0"/>
        <pt x="262" y="557" on="1"/>
        <pt x="208" y="557" on="1"/>
        <pt x="200" y="557" on="0"/>
        <pt x="189" y="545" on="0"/>
        <pt x="189" y="537" on="1"/>
        <pt x="189" y="0" on="1"/>
        <pt x="49" y="0" on="1"/>
        <pt x="49" y="525" on="1"/>
        <pt x="49" y="657" on="0"/>
        <pt x="173" y="657" on="1"/>
        <pt x="297" y="657" on="1"/>
        <pt x="421" y="657" on="0"/>
        <pt x="421" y="525" on="1"/>
      </contour>
      <contour>
        <pt x="282" y="688" on="1"/>
        <pt x="255" y="691" on="0"/>
        <pt x="182" y="719" on="0"/>
        <pt x="163" y="721" on="1"/>
        <pt x="122" y="721" on="0"/>
        <pt x="97" y="690" on="1"/>
        <pt x="70" y="692" on="1"/>
        <pt x="71" y="701" on="1"/>
        <pt x="75" y="750" on="0"/>
        <pt x="133" y="800" on="0"/>
        <pt x="206" y="800" on="0"/>
        <pt x="288" y="768" on="0"/>
        <pt x="342" y="768" on="0"/>
        <pt x="368" y="798" on="1"/>
        <pt x="395" y="796" on="1"/>
        <pt x="394" y="787" on="1"/>
        <pt x="390" y="739" on="0"/>
        <pt x="331" y="688" on="0"/>
        <pt x="291" y="688" on="1"/>
      </contour>
    </TTGlyph>
    <TTGlyph name="O" xMin="50" yMin="-10" xMax="431" yMax="657">
      <contour>
        <pt x="431" y="525" on="1"/>
        <pt x="431" y="122" on="1"/>
        <pt x="431" y="-10" on="0"/>
        <pt x="307" y="-10" on="1"/>
        <pt x="174" y="-10" on="1"/>
        <pt x="50" y="-10" on="0"/>
        <pt x="50" y="122" on="1"/>
        <pt x="50" y="525" on="1"/>
        <pt x="50" y="657" on="0"/>
        <pt x="174" y="657" on="1"/>
        <pt x="307" y="657" on="1"/>
        <pt x="431" y="657" on="0"/>
      </contour>
      <contour>
        <pt x="291" y="106" on="1"/>
        <pt x="291" y="542" on="1"/>
        <pt x="291" y="550" on="0"/>
        <pt x="280" y="562" on="0"/>
        <pt x="272" y="562" on="1"/>
        <pt x="209" y="562" on="1"/>
        <pt x="201" y="562" on="0"/>
        <pt x="190" y="550" on="0"/>
        <pt x="190" y="542" on="1"/>
        <pt x="190" y="106" on="1"/>
        <pt x="190" y="98" on="0"/>
        <pt x="201" y="86" on="0"/>
        <pt x="209" y="86" on="1"/>
        <pt x="272" y="86" on="1"/>
        <pt x="280" y="86" on="0"/>
        <pt x="291" y="98" on="0"/>
      </contour>
    </TTGlyph>
    <TTGlyph name="Oacute" xMin="50" yMin="-10" xMax="431" yMax="800">
      <contour>
        <pt x="431" y="525" on="1"/>
        <pt x="431" y="122" on="1"/>
        <pt x="431" y="-10" on="0"/>
        <pt x="307" y="-10" on="1"/>
        <pt x="174" y="-10" on="1"/>
        <pt x="50" y="-10" on="0"/>
        <pt x="50" y="122" on="1"/>
        <pt x="50" y="525" on="1"/>
        <pt x="50" y="657" on="0"/>
        <pt x="174" y="657" on="1"/>
        <pt x="307" y="657" on="1"/>
        <pt x="431" y="657" on="0"/>
      </contour>
      <contour>
        <pt x="291" y="106" on="1"/>
        <pt x="291" y="542" on="1"/>
        <pt x="291" y="550" on="0"/>
        <pt x="280" y="562" on="0"/>
        <pt x="272" y="562" on="1"/>
        <pt x="209" y="562" on="1"/>
        <pt x="201" y="562" on="0"/>
        <pt x="190" y="550" on="0"/>
        <pt x="190" y="542" on="1"/>
        <pt x="190" y="106" on="1"/>
        <pt x="190" y="98" on="0"/>
        <pt x="201" y="86" on="0"/>
        <pt x="209" y="86" on="1"/>
        <pt x="272" y="86" on="1"/>
        <pt x="280" y="86" on="0"/>
        <pt x="291" y="98" on="0"/>
      </contour>
      <contour>
        <pt x="370" y="800" on="1"/>
        <pt x="239" y="698" on="1"/>
        <pt x="140" y="698" on="1"/>
        <pt x="223" y="800" on="1"/>
      </contour>
    </TTGlyph>
    <TTGlyph name="Ocircumflex" xMin="50" yMin="-10" xMax="431" yMax="807">
      <contour>
        <pt x="431" y="525" on="1"/>
        <pt x="431" y="122" on="1"/>
        <pt x="431" y="-10" on="0"/>
        <pt x="307" y="-10" on="1"/>
        <pt x="174" y="-10" on="1"/>
        <pt x="50" y="-10" on="0"/>
        <pt x="50" y="122" on="1"/>
        <pt x="50" y="525" on="1"/>
        <pt x="50" y="657" on="0"/>
        <pt x="174" y="657" on="1"/>
        <pt x="307" y="657" on="1"/>
        <pt x="431" y="657" on="0"/>
      </contour>
      <contour>
        <pt x="291" y="106" on="1"/>
        <pt x="291" y="542" on="1"/>
        <pt x="291" y="550" on="0"/>
        <pt x="280" y="562" on="0"/>
        <pt x="272" y="562" on="1"/>
        <pt x="209" y="562" on="1"/>
        <pt x="201" y="562" on="0"/>
        <pt x="190" y="550" on="0"/>
        <pt x="190" y="542" on="1"/>
        <pt x="190" y="106" on="1"/>
        <pt x="190" y="98" on="0"/>
        <pt x="201" y="86" on="0"/>
        <pt x="209" y="86" on="1"/>
        <pt x="272" y="86" on="1"/>
        <pt x="280" y="86" on="0"/>
        <pt x="291" y="98" on="0"/>
      </contour>
      <contour>
        <pt x="398" y="701" on="1"/>
        <pt x="299" y="701" on="1"/>
        <pt x="240" y="757" on="1"/>
        <pt x="181" y="701" on="1"/>
        <pt x="82" y="701" on="1"/>
        <pt x="165" y="807" on="1"/>
        <pt x="315" y="807" on="1"/>
      </contour>
    </TTGlyph>
    <TTGlyph name="Odieresis" xMin="50" yMin="-10" xMax="431" yMax="809">
      <contour>
        <pt x="431" y="525" on="1"/>
        <pt x="431" y="122" on="1"/>
        <pt x="431" y="-10" on="0"/>
        <pt x="307" y="-10" on="1"/>
        <pt x="174" y="-10" on="1"/>
        <pt x="50" y="-10" on="0"/>
        <pt x="50" y="122" on="1"/>
        <pt x="50" y="525" on="1"/>
        <pt x="50" y="657" on="0"/>
        <pt x="174" y="657" on="1"/>
        <pt x="307" y="657" on="1"/>
        <pt x="431" y="657" on="0"/>
      </contour>
      <contour>
        <pt x="291" y="106" on="1"/>
        <pt x="291" y="542" on="1"/>
        <pt x="291" y="550" on="0"/>
        <pt x="280" y="562" on="0"/>
        <pt x="272" y="562" on="1"/>
        <pt x="209" y="562" on="1"/>
        <pt x="201" y="562" on="0"/>
        <pt x="190" y="550" on="0"/>
        <pt x="190" y="542" on="1"/>
        <pt x="190" y="106" on="1"/>
        <pt x="190" y="98" on="0"/>
        <pt x="201" y="86" on="0"/>
        <pt x="209" y="86" on="1"/>
        <pt x="272" y="86" on="1"/>
        <pt x="280" y="86" on="0"/>
        <pt x="291" y="98" on="0"/>
      </contour>
      <contour>
        <pt x="183" y="809" on="0"/>
        <pt x="216" y="775" on="0"/>
        <pt x="216" y="728" on="0"/>
        <pt x="183" y="695" on="0"/>
        <pt x="136" y="695" on="0"/>
        <pt x="102" y="728" on="0"/>
        <pt x="102" y="775" on="0"/>
        <pt x="136" y="809" on="0"/>
      </contour>
      <contour>
        <pt x="345" y="809" on="0"/>
        <pt x="378" y="775" on="0"/>
        <pt x="378" y="728" on="0"/>
        <pt x="345" y="695" on="0"/>
        <pt x="298" y="695" on="0"/>
        <pt x="264" y="728" on="0"/>
        <pt x="264" y="775" on="0"/>
        <pt x="298" y="809" on="0"/>
      </contour>
    </TTGlyph>
    <TTGlyph name="Ograve" xMin="50" yMin="-10" xMax="431" yMax="800">
      <contour>
        <pt x="431" y="525" on="1"/>
        <pt x="431" y="122" on="1"/>
        <pt x="431" y="-10" on="0"/>
        <pt x="307" y="-10" on="1"/>
        <pt x="174" y="-10" on="1"/>
        <pt x="50" y="-10" on="0"/>
        <pt x="50" y="122" on="1"/>
        <pt x="50" y="525" on="1"/>
        <pt x="50" y="657" on="0"/>
        <pt x="174" y="657" on="1"/>
        <pt x="307" y="657" on="1"/>
        <pt x="431" y="657" on="0"/>
      </contour>
      <contour>
        <pt x="291" y="106" on="1"/>
        <pt x="291" y="542" on="1"/>
        <pt x="291" y="550" on="0"/>
        <pt x="280" y="562" on="0"/>
        <pt x="272" y="562" on="1"/>
        <pt x="209" y="562" on="1"/>
        <pt x="201" y="562" on="0"/>
        <pt x="190" y="550" on="0"/>
        <pt x="190" y="542" on="1"/>
        <pt x="190" y="106" on="1"/>
        <pt x="190" y="98" on="0"/>
        <pt x="201" y="86" on="0"/>
        <pt x="209" y="86" on="1"/>
        <pt x="272" y="86" on="1"/>
        <pt x="280" y="86" on="0"/>
        <pt x="291" y="98" on="0"/>
      </contour>
      <contour>
        <pt x="242" y="698" on="1"/>
        <pt x="111" y="800" on="1"/>
        <pt x="258" y="800" on="1"/>
        <pt x="341" y="698" on="1"/>
      </contour>
    </TTGlyph>
    <TTGlyph name="Oslash" xMin="50" yMin="-75" xMax="431" yMax="720">
      <contour>
        <pt x="398" y="625" on="1"/>
        <pt x="431" y="592" on="0"/>
        <pt x="431" y="524" on="1"/>
        <pt x="431" y="121" on="1"/>
        <pt x="431" y="-11" on="0"/>
        <pt x="307" y="-11" on="1"/>
        <pt x="174" y="-11" on="1"/>
        <pt x="157" y="-11" on="0"/>
        <pt x="142" y="-8" on="1"/>
        <pt x="116" y="-75" on="1"/>
        <pt x="55" y="-50" on="1"/>
        <pt x="83" y="20" on="1"/>
        <pt x="50" y="51" on="0"/>
        <pt x="50" y="121" on="1"/>
        <pt x="50" y="524" on="1"/>
        <pt x="50" y="656" on="0"/>
        <pt x="174" y="656" on="1"/>
        <pt x="307" y="656" on="1"/>
        <pt x="318" y="656" on="0"/>
        <pt x="338" y="654" on="1"/>
        <pt x="365" y="720" on="1"/>
        <pt x="426" y="695" on="1"/>
      </contour>
      <contour>
        <pt x="190" y="541" on="1"/>
        <pt x="190" y="286" on="1"/>
        <pt x="291" y="536" on="1"/>
        <pt x="291" y="541" on="1"/>
        <pt x="291" y="549" on="0"/>
        <pt x="280" y="561" on="0"/>
        <pt x="272" y="561" on="1"/>
        <pt x="209" y="561" on="1"/>
        <pt x="201" y="561" on="0"/>
        <pt x="190" y="549" on="0"/>
      </contour>
      <contour>
        <pt x="272" y="85" on="1"/>
        <pt x="280" y="85" on="0"/>
        <pt x="291" y="97" on="0"/>
        <pt x="291" y="105" on="1"/>
        <pt x="291" y="360" on="1"/>
        <pt x="190" y="109" on="1"/>
        <pt x="190" y="105" on="1"/>
        <pt x="190" y="97" on="0"/>
        <pt x="201" y="85" on="0"/>
        <pt x="209" y="85" on="1"/>
      </contour>
    </TTGlyph>
    <TTGlyph name="Otilde" xMin="50" yMin="-10" xMax="431" yMax="800">
      <contour>
        <pt x="431" y="525" on="1"/>
        <pt x="431" y="122" on="1"/>
        <pt x="431" y="-10" on="0"/>
        <pt x="307" y="-10" on="1"/>
        <pt x="174" y="-10" on="1"/>
        <pt x="50" y="-10" on="0"/>
        <pt x="50" y="122" on="1"/>
        <pt x="50" y="525" on="1"/>
        <pt x="50" y="657" on="0"/>
        <pt x="174" y="657" on="1"/>
        <pt x="307" y="657" on="1"/>
        <pt x="431" y="657" on="0"/>
      </contour>
      <contour>
        <pt x="291" y="106" on="1"/>
        <pt x="291" y="542" on="1"/>
        <pt x="291" y="550" on="0"/>
        <pt x="280" y="562" on="0"/>
        <pt x="272" y="562" on="1"/>
        <pt x="209" y="562" on="1"/>
        <pt x="201" y="562" on="0"/>
        <pt x="190" y="550" on="0"/>
        <pt x="190" y="542" on="1"/>
        <pt x="190" y="106" on="1"/>
        <pt x="190" y="98" on="0"/>
        <pt x="201" y="86" on="0"/>
        <pt x="209" y="86" on="1"/>
        <pt x="272" y="86" on="1"/>
        <pt x="280" y="86" on="0"/>
        <pt x="291" y="98" on="0"/>
      </contour>
      <contour>
        <pt x="291" y="688" on="1"/>
        <pt x="264" y="691" on="0"/>
        <pt x="191" y="719" on="0"/>
        <pt x="172" y="721" on="1"/>
        <pt x="131" y="721" on="0"/>
        <pt x="106" y="690" on="1"/>
        <pt x="79" y="692" on="1"/>
        <pt x="80" y="701" on="1"/>
        <pt x="84" y="750" on="0"/>
        <pt x="142" y="800" on="0"/>
        <pt x="215" y="800" on="0"/>
        <pt x="297" y="768" on="0"/>
        <pt x="351" y="768" on="0"/>
        <pt x="377" y="798" on="1"/>
        <pt x="404" y="796" on="1"/>
        <pt x="403" y="787" on="1"/>
        <pt x="399" y="739" on="0"/>
        <pt x="340" y="688" on="0"/>
        <pt x="300" y="688" on="1"/>
      </contour>
    </TTGlyph>
    <TTGlyph name="P" xMin="49" yMin="0" xMax="426" yMax="647">
      <contour>
        <pt x="302" y="647" on="1"/>
        <pt x="426" y="647" on="0"/>
        <pt x="426" y="515" on="1"/>
        <pt x="426" y="386" on="1"/>
        <pt x="426" y="254" on="0"/>
        <pt x="302" y="254" on="1"/>
        <pt x="189" y="254" on="1"/>
        <pt x="189" y="0" on="1"/>
        <pt x="49" y="0" on="1"/>
        <pt x="49" y="647" on="1"/>
      </contour>
      <contour>
        <pt x="286" y="370" on="1"/>
        <pt x="286" y="531" on="1"/>
        <pt x="286" y="539" on="0"/>
        <pt x="275" y="551" on="0"/>
        <pt x="267" y="551" on="1"/>
        <pt x="189" y="551" on="1"/>
        <pt x="189" y="350" on="1"/>
        <pt x="267" y="350" on="1"/>
        <pt x="275" y="350" on="0"/>
        <pt x="286" y="362" on="0"/>
      </contour>
    </TTGlyph>
    <TTGlyph name="Q" xMin="50" yMin="-173" xMax="431" yMax="657">
      <contour>
        <pt x="307" y="657" on="1"/>
        <pt x="431" y="657" on="0"/>
        <pt x="431" y="525" on="1"/>
        <pt x="431" y="122" on="1"/>
        <pt x="431" y="-10" on="0"/>
        <pt x="307" y="-10" on="1"/>
        <pt x="305" y="-10" on="1"/>
        <pt x="305" y="-60" on="1"/>
        <pt x="305" y="-75" on="0"/>
        <pt x="320" y="-75" on="1"/>
        <pt x="352" y="-75" on="1"/>
        <pt x="352" y="-173" on="1"/>
        <pt x="293" y="-173" on="1"/>
        <pt x="244" y="-173" on="0"/>
        <pt x="189" y="-114" on="0"/>
        <pt x="189" y="-77" on="1"/>
        <pt x="189" y="-10" on="1"/>
        <pt x="174" y="-10" on="1"/>
        <pt x="50" y="-10" on="0"/>
        <pt x="50" y="122" on="1"/>
        <pt x="50" y="525" on="1"/>
        <pt x="50" y="657" on="0"/>
        <pt x="174" y="657" on="1"/>
      </contour>
      <contour>
        <pt x="190" y="542" on="1"/>
        <pt x="190" y="106" on="1"/>
        <pt x="190" y="98" on="0"/>
        <pt x="201" y="86" on="0"/>
        <pt x="209" y="86" on="1"/>
        <pt x="272" y="86" on="1"/>
        <pt x="280" y="86" on="0"/>
        <pt x="291" y="98" on="0"/>
        <pt x="291" y="106" on="1"/>
        <pt x="291" y="542" on="1"/>
        <pt x="291" y="550" on="0"/>
        <pt x="280" y="562" on="0"/>
        <pt x="272" y="562" on="1"/>
        <pt x="209" y="562" on="1"/>
        <pt x="201" y="562" on="0"/>
        <pt x="190" y="550" on="0"/>
      </contour>
    </TTGlyph>
    <TTGlyph name="R" xMin="50" yMin="0" xMax="423" yMax="647">
      <contour>
        <pt x="190" y="265" on="1"/>
        <pt x="190" y="0" on="1"/>
        <pt x="50" y="0" on="1"/>
        <pt x="50" y="647" on="1"/>
        <pt x="299" y="647" on="1"/>
        <pt x="423" y="647" on="0"/>
        <pt x="423" y="515" on="1"/>
        <pt x="423" y="440" on="1"/>
        <pt x="423" y="360" on="0"/>
        <pt x="366" y="338" on="1"/>
        <pt x="416" y="320" on="0"/>
        <pt x="416" y="256" on="1"/>
        <pt x="416" y="0" on="1"/>
        <pt x="276" y="0" on="1"/>
        <pt x="276" y="245" on="1"/>
        <pt x="276" y="265" on="0"/>
        <pt x="257" y="265" on="1"/>
      </contour>
      <contour>
        <pt x="190" y="552" on="1"/>
        <pt x="190" y="363" on="1"/>
        <pt x="264" y="363" on="1"/>
        <pt x="272" y="363" on="0"/>
        <pt x="283" y="375" on="0"/>
        <pt x="283" y="383" on="1"/>
        <pt x="283" y="532" on="1"/>
        <pt x="283" y="540" on="0"/>
        <pt x="272" y="552" on="0"/>
        <pt x="264" y="552" on="1"/>
      </contour>
    </TTGlyph>
    <TTGlyph name="S" xMin="50" yMin="-10" xMax="416" yMax="657">
      <contour>
        <pt x="409" y="477" on="1"/>
        <pt x="276" y="477" on="1"/>
        <pt x="276" y="528" on="1"/>
        <pt x="276" y="536" on="0"/>
        <pt x="265" y="548" on="0"/>
        <pt x="257" y="548" on="1"/>
        <pt x="202" y="548" on="1"/>
        <pt x="194" y="548" on="0"/>
        <pt x="183" y="536" on="0"/>
        <pt x="183" y="528" on="1"/>
        <pt x="183" y="413" on="1"/>
        <pt x="183" y="405" on="0"/>
        <pt x="194" y="393" on="0"/>
        <pt x="202" y="393" on="1"/>
        <pt x="292" y="393" on="1"/>
        <pt x="416" y="391" on="0"/>
        <pt x="416" y="261" on="1"/>
        <pt x="416" y="122" on="1"/>
        <pt x="416" y="-10" on="0"/>
        <pt x="292" y="-10" on="1"/>
        <pt x="174" y="-10" on="1"/>
        <pt x="50" y="-10" on="0"/>
        <pt x="50" y="122" on="1"/>
        <pt x="50" y="189" on="1"/>
        <pt x="183" y="189" on="1"/>
        <pt x="183" y="117" on="1"/>
        <pt x="183" y="109" on="0"/>
        <pt x="194" y="97" on="0"/>
        <pt x="202" y="97" on="1"/>
        <pt x="264" y="97" on="1"/>
        <pt x="272" y="97" on="0"/>
        <pt x="283" y="109" on="0"/>
        <pt x="283" y="117" on="1"/>
        <pt x="283" y="244" on="1"/>
        <pt x="283" y="252" on="0"/>
        <pt x="272" y="264" on="0"/>
        <pt x="264" y="264" on="1"/>
        <pt x="174" y="264" on="1"/>
        <pt x="50" y="264" on="0"/>
        <pt x="50" y="396" on="1"/>
        <pt x="50" y="525" on="1"/>
        <pt x="50" y="657" on="0"/>
        <pt x="174" y="657" on="1"/>
        <pt x="285" y="657" on="1"/>
        <pt x="409" y="657" on="0"/>
        <pt x="409" y="525" on="1"/>
      </contour>
    </TTGlyph>
    <TTGlyph name="T" xMin="13" yMin="0" xMax="363" yMax="647">
      <contour>
        <pt x="13" y="528" on="1"/>
        <pt x="13" y="647" on="1"/>
        <pt x="363" y="647" on="1"/>
        <pt x="363" y="528" on="1"/>
        <pt x="258" y="528" on="1"/>
        <pt x="258" y="0" on="1"/>
        <pt x="118" y="0" on="1"/>
        <pt x="118" y="528" on="1"/>
      </contour>
    </TTGlyph>
    <TTGlyph name="Thorn" xMin="49" yMin="0" xMax="426" yMax="647">
      <contour>
        <pt x="302" y="509" on="1"/>
        <pt x="426" y="509" on="0"/>
        <pt x="426" y="377" on="1"/>
        <pt x="426" y="248" on="1"/>
        <pt x="426" y="116" on="0"/>
        <pt x="302" y="116" on="1"/>
        <pt x="189" y="116" on="1"/>
        <pt x="189" y="0" on="1"/>
        <pt x="49" y="0" on="1"/>
        <pt x="49" y="647" on="1"/>
        <pt x="189" y="647" on="1"/>
        <pt x="189" y="509" on="1"/>
      </contour>
      <contour>
        <pt x="286" y="232" on="1"/>
        <pt x="286" y="393" on="1"/>
        <pt x="286" y="401" on="0"/>
        <pt x="275" y="413" on="0"/>
        <pt x="267" y="413" on="1"/>
        <pt x="189" y="413" on="1"/>
        <pt x="189" y="212" on="1"/>
        <pt x="267" y="212" on="1"/>
        <pt x="275" y="212" on="0"/>
        <pt x="286" y="224" on="0"/>
      </contour>
    </TTGlyph>
    <TTGlyph name="U" xMin="49" yMin="-10" xMax="421" yMax="647">
      <contour>
        <pt x="281" y="647" on="1"/>
        <pt x="421" y="647" on="1"/>
        <pt x="421" y="122" on="1"/>
        <pt x="421" y="-10" on="0"/>
        <pt x="297" y="-10" on="1"/>
        <pt x="173" y="-10" on="1"/>
        <pt x="49" y="-10" on="0"/>
        <pt x="49" y="122" on="1"/>
        <pt x="49" y="647" on="1"/>
        <pt x="189" y="647" on="1"/>
        <pt x="189" y="110" on="1"/>
        <pt x="189" y="102" on="0"/>
        <pt x="200" y="90" on="0"/>
        <pt x="208" y="90" on="1"/>
        <pt x="262" y="90" on="1"/>
        <pt x="270" y="90" on="0"/>
        <pt x="281" y="102" on="0"/>
        <pt x="281" y="110" on="1"/>
      </contour>
    </TTGlyph>
    <TTGlyph name="Uacute" xMin="49" yMin="-10" xMax="421" yMax="800">
      <contour>
        <pt x="281" y="647" on="1"/>
        <pt x="421" y="647" on="1"/>
        <pt x="421" y="122" on="1"/>
        <pt x="421" y="-10" on="0"/>
        <pt x="297" y="-10" on="1"/>
        <pt x="173" y="-10" on="1"/>
        <pt x="49" y="-10" on="0"/>
        <pt x="49" y="122" on="1"/>
        <pt x="49" y="647" on="1"/>
        <pt x="189" y="647" on="1"/>
        <pt x="189" y="110" on="1"/>
        <pt x="189" y="102" on="0"/>
        <pt x="200" y="90" on="0"/>
        <pt x="208" y="90" on="1"/>
        <pt x="262" y="90" on="1"/>
        <pt x="270" y="90" on="0"/>
        <pt x="281" y="102" on="0"/>
        <pt x="281" y="110" on="1"/>
      </contour>
      <contour>
        <pt x="379" y="800" on="1"/>
        <pt x="248" y="698" on="1"/>
        <pt x="149" y="698" on="1"/>
        <pt x="232" y="800" on="1"/>
      </contour>
    </TTGlyph>
    <TTGlyph name="Ucircumflex" xMin="49" yMin="-10" xMax="421" yMax="807">
      <contour>
        <pt x="281" y="647" on="1"/>
        <pt x="421" y="647" on="1"/>
        <pt x="421" y="122" on="1"/>
        <pt x="421" y="-10" on="0"/>
        <pt x="297" y="-10" on="1"/>
        <pt x="173" y="-10" on="1"/>
        <pt x="49" y="-10" on="0"/>
        <pt x="49" y="122" on="1"/>
        <pt x="49" y="647" on="1"/>
        <pt x="189" y="647" on="1"/>
        <pt x="189" y="110" on="1"/>
        <pt x="189" y="102" on="0"/>
        <pt x="200" y="90" on="0"/>
        <pt x="208" y="90" on="1"/>
        <pt x="262" y="90" on="1"/>
        <pt x="270" y="90" on="0"/>
        <pt x="281" y="102" on="0"/>
        <pt x="281" y="110" on="1"/>
      </contour>
      <contour>
        <pt x="393" y="701" on="1"/>
        <pt x="294" y="701" on="1"/>
        <pt x="235" y="757" on="1"/>
        <pt x="176" y="701" on="1"/>
        <pt x="77" y="701" on="1"/>
        <pt x="160" y="807" on="1"/>
        <pt x="310" y="807" on="1"/>
      </contour>
    </TTGlyph>
    <TTGlyph name="Udieresis" xMin="49" yMin="-10" xMax="421" yMax="809">
      <contour>
        <pt x="281" y="647" on="1"/>
        <pt x="421" y="647" on="1"/>
        <pt x="421" y="122" on="1"/>
        <pt x="421" y="-10" on="0"/>
        <pt x="297" y="-10" on="1"/>
        <pt x="173" y="-10" on="1"/>
        <pt x="49" y="-10" on="0"/>
        <pt x="49" y="122" on="1"/>
        <pt x="49" y="647" on="1"/>
        <pt x="189" y="647" on="1"/>
        <pt x="189" y="110" on="1"/>
        <pt x="189" y="102" on="0"/>
        <pt x="200" y="90" on="0"/>
        <pt x="208" y="90" on="1"/>
        <pt x="262" y="90" on="1"/>
        <pt x="270" y="90" on="0"/>
        <pt x="281" y="102" on="0"/>
        <pt x="281" y="110" on="1"/>
      </contour>
      <contour>
        <pt x="178" y="809" on="0"/>
        <pt x="211" y="775" on="0"/>
        <pt x="211" y="728" on="0"/>
        <pt x="178" y="695" on="0"/>
        <pt x="131" y="695" on="0"/>
        <pt x="97" y="728" on="0"/>
        <pt x="97" y="775" on="0"/>
        <pt x="131" y="809" on="0"/>
      </contour>
      <contour>
        <pt x="340" y="809" on="0"/>
        <pt x="373" y="775" on="0"/>
        <pt x="373" y="728" on="0"/>
        <pt x="340" y="695" on="0"/>
        <pt x="293" y="695" on="0"/>
        <pt x="259" y="728" on="0"/>
        <pt x="259" y="775" on="0"/>
        <pt x="293" y="809" on="0"/>
      </contour>
    </TTGlyph>
    <TTGlyph name="Ugrave" xMin="49" yMin="-10" xMax="421" yMax="800">
      <contour>
        <pt x="281" y="647" on="1"/>
        <pt x="421" y="647" on="1"/>
        <pt x="421" y="122" on="1"/>
        <pt x="421" y="-10" on="0"/>
        <pt x="297" y="-10" on="1"/>
        <pt x="173" y="-10" on="1"/>
        <pt x="49" y="-10" on="0"/>
        <pt x="49" y="122" on="1"/>
        <pt x="49" y="647" on="1"/>
        <pt x="189" y="647" on="1"/>
        <pt x="189" y="110" on="1"/>
        <pt x="189" y="102" on="0"/>
        <pt x="200" y="90" on="0"/>
        <pt x="208" y="90" on="1"/>
        <pt x="262" y="90" on="1"/>
        <pt x="270" y="90" on="0"/>
        <pt x="281" y="102" on="0"/>
        <pt x="281" y="110" on="1"/>
      </contour>
      <contour>
        <pt x="222" y="698" on="1"/>
        <pt x="91" y="800" on="1"/>
        <pt x="238" y="800" on="1"/>
        <pt x="321" y="698" on="1"/>
      </contour>
    </TTGlyph>
    <TTGlyph name="V" xMin="17" yMin="0" xMax="446" yMax="647">
      <contour>
        <pt x="311" y="647" on="1"/>
        <pt x="446" y="647" on="1"/>
        <pt x="312" y="0" on="1"/>
        <pt x="151" y="0" on="1"/>
        <pt x="17" y="647" on="1"/>
        <pt x="153" y="647" on="1"/>
        <pt x="232" y="175" on="1"/>
      </contour>
    </TTGlyph>
    <TTGlyph name="W" xMin="22" yMin="0" xMax="680" yMax="647">
      <contour>
        <pt x="289" y="647" on="1"/>
        <pt x="413" y="647" on="1"/>
        <pt x="488" y="160" on="1"/>
        <pt x="544" y="647" on="1"/>
        <pt x="680" y="647" on="1"/>
        <pt x="575" y="0" on="1"/>
        <pt x="416" y="0" on="1"/>
        <pt x="351" y="397" on="1"/>
        <pt x="286" y="0" on="1"/>
        <pt x="127" y="0" on="1"/>
        <pt x="22" y="647" on="1"/>
        <pt x="158" y="647" on="1"/>
        <pt x="214" y="160" on="1"/>
      </contour>
    </TTGlyph>
    <TTGlyph name="X" xMin="9" yMin="0" xMax="438" yMax="647">
      <contour>
        <pt x="425" y="647" on="1"/>
        <pt x="322" y="324" on="1"/>
        <pt x="438" y="0" on="1"/>
        <pt x="292" y="0" on="1"/>
        <pt x="224" y="226" on="1"/>
        <pt x="156" y="0" on="1"/>
        <pt x="9" y="0" on="1"/>
        <pt x="125" y="324" on="1"/>
        <pt x="24" y="647" on="1"/>
        <pt x="160" y="647" on="1"/>
        <pt x="224" y="438" on="1"/>
        <pt x="288" y="647" on="1"/>
      </contour>
    </TTGlyph>
    <TTGlyph name="Y" xMin="7" yMin="0" xMax="425" yMax="647">
      <contour>
        <pt x="425" y="647" on="1"/>
        <pt x="286" y="236" on="1"/>
        <pt x="286" y="0" on="1"/>
        <pt x="146" y="0" on="1"/>
        <pt x="146" y="236" on="1"/>
        <pt x="7" y="647" on="1"/>
        <pt x="139" y="647" on="1"/>
        <pt x="216" y="377" on="1"/>
        <pt x="293" y="647" on="1"/>
      </contour>
    </TTGlyph>
    <TTGlyph name="Yacute" xMin="7" yMin="0" xMax="425" yMax="800">
      <contour>
        <pt x="425" y="647" on="1"/>
        <pt x="286" y="236" on="1"/>
        <pt x="286" y="0" on="1"/>
        <pt x="146" y="0" on="1"/>
        <pt x="146" y="236" on="1"/>
        <pt x="7" y="647" on="1"/>
        <pt x="139" y="647" on="1"/>
        <pt x="216" y="377" on="1"/>
        <pt x="293" y="647" on="1"/>
      </contour>
      <contour>
        <pt x="347" y="800" on="1"/>
        <pt x="216" y="698" on="1"/>
        <pt x="117" y="698" on="1"/>
        <pt x="200" y="800" on="1"/>
      </contour>
    </TTGlyph>
    <TTGlyph name="Z" xMin="32" yMin="0" xMax="371" yMax="647">
      <contour>
        <pt x="371" y="556" on="1"/>
        <pt x="178" y="104" on="1"/>
        <pt x="371" y="104" on="1"/>
        <pt x="371" y="0" on="1"/>
        <pt x="32" y="0" on="1"/>
        <pt x="32" y="86" on="1"/>
        <pt x="226" y="542" on="1"/>
        <pt x="38" y="542" on="1"/>
        <pt x="38" y="647" on="1"/>
        <pt x="371" y="647" on="1"/>
      </contour>
    </TTGlyph>
    <TTGlyph name="a" xMin="45" yMin="-10" xMax="406" yMax="498">
      <contour>
        <pt x="293" y="488" on="1"/>
        <pt x="406" y="488" on="1"/>
        <pt x="406" y="0" on="1"/>
        <pt x="293" y="0" on="1"/>
        <pt x="293" y="36" on="1"/>
        <pt x="262" y="-10" on="0"/>
        <pt x="190" y="-10" on="1"/>
        <pt x="169" y="-10" on="1"/>
        <pt x="45" y="-10" on="0"/>
        <pt x="45" y="122" on="1"/>
        <pt x="45" y="366" on="1"/>
        <pt x="45" y="498" on="0"/>
        <pt x="169" y="498" on="1"/>
        <pt x="190" y="498" on="1"/>
        <pt x="262" y="498" on="0"/>
        <pt x="293" y="452" on="1"/>
      </contour>
      <contour>
        <pt x="272" y="106" on="1"/>
        <pt x="272" y="382" on="1"/>
        <pt x="272" y="390" on="0"/>
        <pt x="261" y="402" on="0"/>
        <pt x="253" y="402" on="1"/>
        <pt x="198" y="402" on="1"/>
        <pt x="190" y="402" on="0"/>
        <pt x="179" y="390" on="0"/>
        <pt x="179" y="382" on="1"/>
        <pt x="179" y="106" on="1"/>
        <pt x="179" y="98" on="0"/>
        <pt x="190" y="86" on="0"/>
        <pt x="198" y="86" on="1"/>
        <pt x="253" y="86" on="1"/>
        <pt x="261" y="86" on="0"/>
        <pt x="272" y="98" on="0"/>
      </contour>
    </TTGlyph>
    <TTGlyph name="aacute" xMin="45" yMin="-10" xMax="406" yMax="647">
      <contour>
        <pt x="293" y="488" on="1"/>
        <pt x="406" y="488" on="1"/>
        <pt x="406" y="0" on="1"/>
        <pt x="293" y="0" on="1"/>
        <pt x="293" y="36" on="1"/>
        <pt x="262" y="-10" on="0"/>
        <pt x="190" y="-10" on="1"/>
        <pt x="169" y="-10" on="1"/>
        <pt x="45" y="-10" on="0"/>
        <pt x="45" y="122" on="1"/>
        <pt x="45" y="366" on="1"/>
        <pt x="45" y="498" on="0"/>
        <pt x="169" y="498" on="1"/>
        <pt x="190" y="498" on="1"/>
        <pt x="262" y="498" on="0"/>
        <pt x="293" y="452" on="1"/>
      </contour>
      <contour>
        <pt x="272" y="106" on="1"/>
        <pt x="272" y="382" on="1"/>
        <pt x="272" y="390" on="0"/>
        <pt x="261" y="402" on="0"/>
        <pt x="253" y="402" on="1"/>
        <pt x="198" y="402" on="1"/>
        <pt x="190" y="402" on="0"/>
        <pt x="179" y="390" on="0"/>
        <pt x="179" y="382" on="1"/>
        <pt x="179" y="106" on="1"/>
        <pt x="179" y="98" on="0"/>
        <pt x="190" y="86" on="0"/>
        <pt x="198" y="86" on="1"/>
        <pt x="253" y="86" on="1"/>
        <pt x="261" y="86" on="0"/>
        <pt x="272" y="98" on="0"/>
      </contour>
      <contour>
        <pt x="363" y="647" on="1"/>
        <pt x="232" y="545" on="1"/>
        <pt x="133" y="545" on="1"/>
        <pt x="216" y="647" on="1"/>
      </contour>
    </TTGlyph>
    <TTGlyph name="acircumflex" xMin="45" yMin="-10" xMax="406" yMax="647">
      <contour>
        <pt x="293" y="488" on="1"/>
        <pt x="406" y="488" on="1"/>
        <pt x="406" y="0" on="1"/>
        <pt x="293" y="0" on="1"/>
        <pt x="293" y="36" on="1"/>
        <pt x="262" y="-10" on="0"/>
        <pt x="190" y="-10" on="1"/>
        <pt x="169" y="-10" on="1"/>
        <pt x="45" y="-10" on="0"/>
        <pt x="45" y="122" on="1"/>
        <pt x="45" y="366" on="1"/>
        <pt x="45" y="498" on="0"/>
        <pt x="169" y="498" on="1"/>
        <pt x="190" y="498" on="1"/>
        <pt x="262" y="498" on="0"/>
        <pt x="293" y="452" on="1"/>
      </contour>
      <contour>
        <pt x="272" y="106" on="1"/>
        <pt x="272" y="382" on="1"/>
        <pt x="272" y="390" on="0"/>
        <pt x="261" y="402" on="0"/>
        <pt x="253" y="402" on="1"/>
        <pt x="198" y="402" on="1"/>
        <pt x="190" y="402" on="0"/>
        <pt x="179" y="390" on="0"/>
        <pt x="179" y="382" on="1"/>
        <pt x="179" y="106" on="1"/>
        <pt x="179" y="98" on="0"/>
        <pt x="190" y="86" on="0"/>
        <pt x="198" y="86" on="1"/>
        <pt x="253" y="86" on="1"/>
        <pt x="261" y="86" on="0"/>
        <pt x="272" y="98" on="0"/>
      </contour>
      <contour>
        <pt x="383" y="541" on="1"/>
        <pt x="284" y="541" on="1"/>
        <pt x="225" y="597" on="1"/>
        <pt x="166" y="541" on="1"/>
        <pt x="67" y="541" on="1"/>
        <pt x="150" y="647" on="1"/>
        <pt x="300" y="647" on="1"/>
      </contour>
    </TTGlyph>
    <TTGlyph name="acute" xMin="28" yMin="483" xMax="258" yMax="585">
      <contour>
        <pt x="258" y="585" on="1"/>
        <pt x="127" y="483" on="1"/>
        <pt x="28" y="483" on="1"/>
        <pt x="111" y="585" on="1"/>
      </contour>
    </TTGlyph>
    <TTGlyph name="adieresis" xMin="45" yMin="-10" xMax="406" yMax="657">
      <contour>
        <pt x="293" y="488" on="1"/>
        <pt x="406" y="488" on="1"/>
        <pt x="406" y="0" on="1"/>
        <pt x="293" y="0" on="1"/>
        <pt x="293" y="36" on="1"/>
        <pt x="262" y="-10" on="0"/>
        <pt x="190" y="-10" on="1"/>
        <pt x="169" y="-10" on="1"/>
        <pt x="45" y="-10" on="0"/>
        <pt x="45" y="122" on="1"/>
        <pt x="45" y="366" on="1"/>
        <pt x="45" y="498" on="0"/>
        <pt x="169" y="498" on="1"/>
        <pt x="190" y="498" on="1"/>
        <pt x="262" y="498" on="0"/>
        <pt x="293" y="452" on="1"/>
      </contour>
      <contour>
        <pt x="272" y="106" on="1"/>
        <pt x="272" y="382" on="1"/>
        <pt x="272" y="390" on="0"/>
        <pt x="261" y="402" on="0"/>
        <pt x="253" y="402" on="1"/>
        <pt x="198" y="402" on="1"/>
        <pt x="190" y="402" on="0"/>
        <pt x="179" y="390" on="0"/>
        <pt x="179" y="382" on="1"/>
        <pt x="179" y="106" on="1"/>
        <pt x="179" y="98" on="0"/>
        <pt x="190" y="86" on="0"/>
        <pt x="198" y="86" on="1"/>
        <pt x="253" y="86" on="1"/>
        <pt x="261" y="86" on="0"/>
        <pt x="272" y="98" on="0"/>
      </contour>
      <contour>
        <pt x="170" y="657" on="0"/>
        <pt x="203" y="623" on="0"/>
        <pt x="203" y="576" on="0"/>
        <pt x="170" y="543" on="0"/>
        <pt x="123" y="543" on="0"/>
        <pt x="89" y="576" on="0"/>
        <pt x="89" y="623" on="0"/>
        <pt x="123" y="657" on="0"/>
      </contour>
      <contour>
        <pt x="332" y="657" on="0"/>
        <pt x="365" y="623" on="0"/>
        <pt x="365" y="576" on="0"/>
        <pt x="332" y="543" on="0"/>
        <pt x="285" y="543" on="0"/>
        <pt x="251" y="576" on="0"/>
        <pt x="251" y="623" on="0"/>
        <pt x="285" y="657" on="0"/>
      </contour>
    </TTGlyph>
    <TTGlyph name="ae" xMin="45" yMin="-10" xMax="631" yMax="498">
      <contour>
        <pt x="631" y="208" on="1"/>
        <pt x="404" y="208" on="1"/>
        <pt x="404" y="106" on="1"/>
        <pt x="404" y="98" on="0"/>
        <pt x="415" y="86" on="0"/>
        <pt x="423" y="86" on="1"/>
        <pt x="488" y="86" on="1"/>
        <pt x="496" y="86" on="0"/>
        <pt x="507" y="98" on="0"/>
        <pt x="507" y="106" on="1"/>
        <pt x="507" y="160" on="1"/>
        <pt x="631" y="160" on="1"/>
        <pt x="631" y="122" on="1"/>
        <pt x="631" y="-10" on="0"/>
        <pt x="507" y="-10" on="1"/>
        <pt x="441" y="-10" on="1"/>
        <pt x="368" y="-10" on="0"/>
        <pt x="338" y="36" on="1"/>
        <pt x="309" y="-10" on="0"/>
        <pt x="235" y="-10" on="1"/>
        <pt x="169" y="-10" on="1"/>
        <pt x="45" y="-10" on="0"/>
        <pt x="45" y="122" on="1"/>
        <pt x="45" y="146" on="1"/>
        <pt x="45" y="278" on="0"/>
        <pt x="169" y="278" on="1"/>
        <pt x="272" y="278" on="1"/>
        <pt x="272" y="382" on="1"/>
        <pt x="272" y="390" on="0"/>
        <pt x="261" y="402" on="0"/>
        <pt x="253" y="402" on="1"/>
        <pt x="194" y="402" on="1"/>
        <pt x="186" y="402" on="0"/>
        <pt x="175" y="390" on="0"/>
        <pt x="175" y="382" on="1"/>
        <pt x="175" y="328" on="1"/>
        <pt x="53" y="328" on="1"/>
        <pt x="53" y="366" on="1"/>
        <pt x="53" y="498" on="0"/>
        <pt x="177" y="498" on="1"/>
        <pt x="235" y="498" on="1"/>
        <pt x="309" y="498" on="0"/>
        <pt x="338" y="452" on="1"/>
        <pt x="368" y="498" on="0"/>
        <pt x="441" y="498" on="1"/>
        <pt x="507" y="498" on="1"/>
        <pt x="631" y="498" on="0"/>
        <pt x="631" y="366" on="1"/>
      </contour>
      <contour>
        <pt x="404" y="386" on="1"/>
        <pt x="404" y="296" on="1"/>
        <pt x="497" y="296" on="1"/>
        <pt x="497" y="386" on="1"/>
        <pt x="497" y="394" on="0"/>
        <pt x="486" y="406" on="0"/>
        <pt x="478" y="406" on="1"/>
        <pt x="423" y="406" on="1"/>
        <pt x="415" y="406" on="0"/>
        <pt x="404" y="394" on="0"/>
      </contour>
      <contour>
        <pt x="253" y="82" on="1"/>
        <pt x="261" y="82" on="0"/>
        <pt x="272" y="94" on="0"/>
        <pt x="272" y="102" on="1"/>
        <pt x="272" y="186" on="1"/>
        <pt x="198" y="186" on="1"/>
        <pt x="190" y="186" on="0"/>
        <pt x="179" y="174" on="0"/>
        <pt x="179" y="166" on="1"/>
        <pt x="179" y="102" on="1"/>
        <pt x="179" y="94" on="0"/>
        <pt x="190" y="82" on="0"/>
        <pt x="198" y="82" on="1"/>
      </contour>
    </TTGlyph>
    <TTGlyph name="agrave" xMin="45" yMin="-10" xMax="406" yMax="647">
      <contour>
        <pt x="293" y="488" on="1"/>
        <pt x="406" y="488" on="1"/>
        <pt x="406" y="0" on="1"/>
        <pt x="293" y="0" on="1"/>
        <pt x="293" y="36" on="1"/>
        <pt x="262" y="-10" on="0"/>
        <pt x="190" y="-10" on="1"/>
        <pt x="169" y="-10" on="1"/>
        <pt x="45" y="-10" on="0"/>
        <pt x="45" y="122" on="1"/>
        <pt x="45" y="366" on="1"/>
        <pt x="45" y="498" on="0"/>
        <pt x="169" y="498" on="1"/>
        <pt x="190" y="498" on="1"/>
        <pt x="262" y="498" on="0"/>
        <pt x="293" y="452" on="1"/>
      </contour>
      <contour>
        <pt x="272" y="106" on="1"/>
        <pt x="272" y="382" on="1"/>
        <pt x="272" y="390" on="0"/>
        <pt x="261" y="402" on="0"/>
        <pt x="253" y="402" on="1"/>
        <pt x="198" y="402" on="1"/>
        <pt x="190" y="402" on="0"/>
        <pt x="179" y="390" on="0"/>
        <pt x="179" y="382" on="1"/>
        <pt x="179" y="106" on="1"/>
        <pt x="179" y="98" on="0"/>
        <pt x="190" y="86" on="0"/>
        <pt x="198" y="86" on="1"/>
        <pt x="253" y="86" on="1"/>
        <pt x="261" y="86" on="0"/>
        <pt x="272" y="98" on="0"/>
      </contour>
      <contour>
        <pt x="222" y="545" on="1"/>
        <pt x="91" y="647" on="1"/>
        <pt x="238" y="647" on="1"/>
        <pt x="321" y="545" on="1"/>
      </contour>
    </TTGlyph>
    <TTGlyph name="ampersand" xMin="46" yMin="-10" xMax="442" yMax="618">
      <contour>
        <pt x="93" y="312" on="1"/>
        <pt x="52" y="342" on="0"/>
        <pt x="52" y="420" on="1"/>
        <pt x="52" y="486" on="1"/>
        <pt x="52" y="618" on="0"/>
        <pt x="176" y="618" on="1"/>
        <pt x="282" y="618" on="1"/>
        <pt x="406" y="618" on="0"/>
        <pt x="406" y="486" on="1"/>
        <pt x="406" y="458" on="1"/>
        <pt x="281" y="458" on="1"/>
        <pt x="281" y="489" on="1"/>
        <pt x="281" y="497" on="0"/>
        <pt x="270" y="509" on="0"/>
        <pt x="262" y="509" on="1"/>
        <pt x="195" y="509" on="1"/>
        <pt x="187" y="509" on="0"/>
        <pt x="176" y="497" on="0"/>
        <pt x="176" y="489" on="1"/>
        <pt x="176" y="383" on="1"/>
        <pt x="176" y="375" on="0"/>
        <pt x="187" y="363" on="0"/>
        <pt x="195" y="363" on="1"/>
        <pt x="442" y="363" on="1"/>
        <pt x="442" y="255" on="1"/>
        <pt x="403" y="255" on="1"/>
        <pt x="403" y="122" on="1"/>
        <pt x="403" y="-10" on="0"/>
        <pt x="279" y="-10" on="1"/>
        <pt x="170" y="-10" on="1"/>
        <pt x="46" y="-10" on="0"/>
        <pt x="46" y="122" on="1"/>
        <pt x="46" y="199" on="1"/>
        <pt x="46" y="279" on="0"/>
      </contour>
      <contour>
        <pt x="268" y="96" on="1"/>
        <pt x="276" y="96" on="0"/>
        <pt x="287" y="108" on="0"/>
        <pt x="287" y="116" on="1"/>
        <pt x="287" y="255" on="1"/>
        <pt x="189" y="255" on="1"/>
        <pt x="181" y="255" on="0"/>
        <pt x="170" y="243" on="0"/>
        <pt x="170" y="235" on="1"/>
        <pt x="170" y="116" on="1"/>
        <pt x="170" y="108" on="0"/>
        <pt x="181" y="96" on="0"/>
        <pt x="189" y="96" on="1"/>
      </contour>
    </TTGlyph>
    <TTGlyph name="aring" xMin="45" yMin="-10" xMax="406" yMax="697">
      <contour>
        <pt x="293" y="488" on="1"/>
        <pt x="406" y="488" on="1"/>
        <pt x="406" y="0" on="1"/>
        <pt x="293" y="0" on="1"/>
        <pt x="293" y="36" on="1"/>
        <pt x="262" y="-10" on="0"/>
        <pt x="190" y="-10" on="1"/>
        <pt x="169" y="-10" on="1"/>
        <pt x="45" y="-10" on="0"/>
        <pt x="45" y="122" on="1"/>
        <pt x="45" y="366" on="1"/>
        <pt x="45" y="498" on="0"/>
        <pt x="169" y="498" on="1"/>
        <pt x="190" y="498" on="1"/>
        <pt x="262" y="498" on="0"/>
        <pt x="293" y="452" on="1"/>
      </contour>
      <contour>
        <pt x="272" y="106" on="1"/>
        <pt x="272" y="382" on="1"/>
        <pt x="272" y="390" on="0"/>
        <pt x="261" y="402" on="0"/>
        <pt x="253" y="402" on="1"/>
        <pt x="198" y="402" on="1"/>
        <pt x="190" y="402" on="0"/>
        <pt x="179" y="390" on="0"/>
        <pt x="179" y="382" on="1"/>
        <pt x="179" y="106" on="1"/>
        <pt x="179" y="98" on="0"/>
        <pt x="190" y="86" on="0"/>
        <pt x="198" y="86" on="1"/>
        <pt x="253" y="86" on="1"/>
        <pt x="261" y="86" on="0"/>
        <pt x="272" y="98" on="0"/>
      </contour>
      <contour>
        <pt x="255" y="697" on="1"/>
        <pt x="325" y="697" on="0"/>
        <pt x="325" y="622" on="1"/>
        <pt x="325" y="609" on="1"/>
        <pt x="325" y="534" on="0"/>
        <pt x="255" y="534" on="1"/>
        <pt x="191" y="534" on="1"/>
        <pt x="120" y="534" on="0"/>
        <pt x="120" y="609" on="1"/>
        <pt x="120" y="622" on="1"/>
        <pt x="120" y="697" on="0"/>
        <pt x="191" y="697" on="1"/>
      </contour>
      <contour>
        <pt x="255" y="588" on="1"/>
        <pt x="255" y="642" on="1"/>
        <pt x="255" y="648" on="0"/>
        <pt x="247" y="656" on="0"/>
        <pt x="242" y="656" on="1"/>
        <pt x="204" y="656" on="1"/>
        <pt x="191" y="656" on="0"/>
        <pt x="191" y="642" on="1"/>
        <pt x="191" y="588" on="1"/>
        <pt x="191" y="583" on="0"/>
        <pt x="199" y="574" on="0"/>
        <pt x="204" y="574" on="1"/>
        <pt x="242" y="574" on="1"/>
        <pt x="247" y="574" on="0"/>
        <pt x="255" y="583" on="0"/>
      </contour>
    </TTGlyph>
    <TTGlyph name="asciicircum" xMin="30" yMin="417" xMax="358" yMax="647">
      <contour>
        <pt x="358" y="417" on="1"/>
        <pt x="275" y="417" on="1"/>
        <pt x="194" y="561" on="1"/>
        <pt x="111" y="417" on="1"/>
        <pt x="30" y="417" on="1"/>
        <pt x="158" y="647" on="1"/>
        <pt x="230" y="647" on="1"/>
      </contour>
    </TTGlyph>
    <TTGlyph name="asterisk" xMin="38" yMin="315" xMax="364" yMax="647">
      <contour>
        <pt x="364" y="530" on="1"/>
        <pt x="264" y="480" on="1"/>
        <pt x="364" y="431" on="1"/>
        <pt x="326" y="364" on="1"/>
        <pt x="232" y="426" on="1"/>
        <pt x="239" y="315" on="1"/>
        <pt x="163" y="315" on="1"/>
        <pt x="170" y="425" on="1"/>
        <pt x="77" y="364" on="1"/>
        <pt x="38" y="431" on="1"/>
        <pt x="138" y="480" on="1"/>
        <pt x="38" y="530" on="1"/>
        <pt x="77" y="597" on="1"/>
        <pt x="170" y="535" on="1"/>
        <pt x="163" y="647" on="1"/>
        <pt x="239" y="647" on="1"/>
        <pt x="232" y="534" on="1"/>
        <pt x="326" y="597" on="1"/>
      </contour>
    </TTGlyph>
    <TTGlyph name="at" xMin="65" yMin="-125" xMax="658" yMax="509">
      <contour>
        <pt x="549" y="509" on="1"/>
        <pt x="658" y="509" on="0"/>
        <pt x="658" y="392" on="1"/>
        <pt x="658" y="98" on="1"/>
        <pt x="658" y="-19" on="0"/>
        <pt x="549" y="-19" on="1"/>
        <pt x="544" y="-19" on="1"/>
        <pt x="473" y="-19" on="0"/>
        <pt x="449" y="38" on="1"/>
        <pt x="427" y="-19" on="0"/>
        <pt x="353" y="-19" on="1"/>
        <pt x="320" y="-19" on="1"/>
        <pt x="211" y="-19" on="0"/>
        <pt x="211" y="98" on="1"/>
        <pt x="211" y="273" on="1"/>
        <pt x="211" y="390" on="0"/>
        <pt x="320" y="390" on="1"/>
        <pt x="342" y="390" on="1"/>
        <pt x="404" y="390" on="0"/>
        <pt x="426" y="368" on="1"/>
        <pt x="438" y="356" on="0"/>
        <pt x="447" y="337" on="1"/>
        <pt x="447" y="380" on="1"/>
        <pt x="510" y="380" on="1"/>
        <pt x="510" y="67" on="1"/>
        <pt x="510" y="53" on="0"/>
        <pt x="530" y="32" on="0"/>
        <pt x="544" y="32" on="1"/>
        <pt x="547" y="32" on="1"/>
        <pt x="561" y="32" on="0"/>
        <pt x="581" y="53" on="0"/>
        <pt x="581" y="67" on="1"/>
        <pt x="581" y="412" on="1"/>
        <pt x="581" y="426" on="0"/>
        <pt x="561" y="447" on="0"/>
        <pt x="547" y="447" on="1"/>
        <pt x="179" y="447" on="1"/>
        <pt x="165" y="447" on="0"/>
        <pt x="145" y="426" on="0"/>
        <pt x="145" y="412" on="1"/>
        <pt x="145" y="-28" on="1"/>
        <pt x="145" y="-42" on="0"/>
        <pt x="165" y="-63" on="0"/>
        <pt x="179" y="-63" on="1"/>
        <pt x="604" y="-63" on="1"/>
        <pt x="604" y="-125" on="1"/>
        <pt x="174" y="-125" on="1"/>
        <pt x="65" y="-125" on="0"/>
        <pt x="65" y="-8" on="1"/>
        <pt x="65" y="392" on="1"/>
        <pt x="65" y="509" on="0"/>
        <pt x="174" y="509" on="1"/>
      </contour>
      <contour>
        <pt x="426" y="82" on="1"/>
        <pt x="426" y="289" on="1"/>
        <pt x="426" y="303" on="0"/>
        <pt x="406" y="324" on="0"/>
        <pt x="392" y="324" on="1"/>
        <pt x="329" y="324" on="1"/>
        <pt x="315" y="324" on="0"/>
        <pt x="295" y="303" on="0"/>
        <pt x="295" y="289" on="1"/>
        <pt x="295" y="82" on="1"/>
        <pt x="295" y="68" on="0"/>
        <pt x="315" y="47" on="0"/>
        <pt x="329" y="47" on="1"/>
        <pt x="392" y="47" on="1"/>
        <pt x="406" y="47" on="0"/>
        <pt x="426" y="68" on="0"/>
      </contour>
    </TTGlyph>
    <TTGlyph name="atilde" xMin="45" yMin="-10" xMax="406" yMax="647">
      <contour>
        <pt x="293" y="488" on="1"/>
        <pt x="406" y="488" on="1"/>
        <pt x="406" y="0" on="1"/>
        <pt x="293" y="0" on="1"/>
        <pt x="293" y="36" on="1"/>
        <pt x="262" y="-10" on="0"/>
        <pt x="190" y="-10" on="1"/>
        <pt x="169" y="-10" on="1"/>
        <pt x="45" y="-10" on="0"/>
        <pt x="45" y="122" on="1"/>
        <pt x="45" y="366" on="1"/>
        <pt x="45" y="498" on="0"/>
        <pt x="169" y="498" on="1"/>
        <pt x="190" y="498" on="1"/>
        <pt x="262" y="498" on="0"/>
        <pt x="293" y="452" on="1"/>
      </contour>
      <contour>
        <pt x="272" y="106" on="1"/>
        <pt x="272" y="382" on="1"/>
        <pt x="272" y="390" on="0"/>
        <pt x="261" y="402" on="0"/>
        <pt x="253" y="402" on="1"/>
        <pt x="198" y="402" on="1"/>
        <pt x="190" y="402" on="0"/>
        <pt x="179" y="390" on="0"/>
        <pt x="179" y="382" on="1"/>
        <pt x="179" y="106" on="1"/>
        <pt x="179" y="98" on="0"/>
        <pt x="190" y="86" on="0"/>
        <pt x="198" y="86" on="1"/>
        <pt x="253" y="86" on="1"/>
        <pt x="261" y="86" on="0"/>
        <pt x="272" y="98" on="0"/>
      </contour>
      <contour>
        <pt x="279" y="535" on="1"/>
        <pt x="252" y="538" on="0"/>
        <pt x="179" y="566" on="0"/>
        <pt x="160" y="568" on="1"/>
        <pt x="119" y="568" on="0"/>
        <pt x="94" y="537" on="1"/>
        <pt x="67" y="539" on="1"/>
        <pt x="68" y="548" on="1"/>
        <pt x="72" y="597" on="0"/>
        <pt x="130" y="647" on="0"/>
        <pt x="203" y="647" on="0"/>
        <pt x="285" y="615" on="0"/>
        <pt x="339" y="615" on="0"/>
        <pt x="365" y="645" on="1"/>
        <pt x="392" y="643" on="1"/>
        <pt x="391" y="634" on="1"/>
        <pt x="387" y="586" on="0"/>
        <pt x="328" y="535" on="0"/>
        <pt x="288" y="535" on="1"/>
      </contour>
    </TTGlyph>
    <TTGlyph name="b" xMin="45" yMin="-10" xMax="406" yMax="647">
      <contour>
        <pt x="261" y="498" on="1"/>
        <pt x="282" y="498" on="1"/>
        <pt x="406" y="498" on="0"/>
        <pt x="406" y="366" on="1"/>
        <pt x="406" y="122" on="1"/>
        <pt x="406" y="-10" on="0"/>
        <pt x="282" y="-10" on="1"/>
        <pt x="261" y="-10" on="1"/>
        <pt x="189" y="-10" on="0"/>
        <pt x="158" y="36" on="1"/>
        <pt x="158" y="0" on="1"/>
        <pt x="45" y="0" on="1"/>
        <pt x="45" y="647" on="1"/>
        <pt x="179" y="647" on="1"/>
        <pt x="179" y="474" on="1"/>
        <pt x="211" y="498" on="0"/>
      </contour>
      <contour>
        <pt x="179" y="382" on="1"/>
        <pt x="179" y="106" on="1"/>
        <pt x="179" y="98" on="0"/>
        <pt x="190" y="86" on="0"/>
        <pt x="198" y="86" on="1"/>
        <pt x="253" y="86" on="1"/>
        <pt x="261" y="86" on="0"/>
        <pt x="272" y="98" on="0"/>
        <pt x="272" y="106" on="1"/>
        <pt x="272" y="382" on="1"/>
        <pt x="272" y="390" on="0"/>
        <pt x="261" y="402" on="0"/>
        <pt x="253" y="402" on="1"/>
        <pt x="198" y="402" on="1"/>
        <pt x="190" y="402" on="0"/>
        <pt x="179" y="390" on="0"/>
      </contour>
    </TTGlyph>
    <TTGlyph name="backslash" xMin="-42" yMin="-72" xMax="348" yMax="674">
      <contour>
        <pt x="-42" y="674" on="1"/>
        <pt x="65" y="674" on="1"/>
        <pt x="348" y="-72" on="1"/>
        <pt x="241" y="-72" on="1"/>
      </contour>
    </TTGlyph>
    <TTGlyph name="bar" xMin="80" yMin="-73" xMax="183" yMax="674">
      <contour>
        <pt x="80" y="-73" on="1"/>
        <pt x="80" y="674" on="1"/>
        <pt x="183" y="674" on="1"/>
        <pt x="183" y="-73" on="1"/>
      </contour>
    </TTGlyph>
    <TTGlyph name="braceleft" xMin="43" yMin="-88" xMax="242" yMax="691">
      <contour>
        <pt x="201" y="596" on="1"/>
        <pt x="193" y="596" on="0"/>
        <pt x="182" y="584" on="0"/>
        <pt x="182" y="576" on="1"/>
        <pt x="182" y="420" on="1"/>
        <pt x="182" y="336" on="0"/>
        <pt x="141" y="307" on="1"/>
        <pt x="182" y="278" on="0"/>
        <pt x="182" y="194" on="1"/>
        <pt x="182" y="33" on="1"/>
        <pt x="182" y="25" on="0"/>
        <pt x="193" y="13" on="0"/>
        <pt x="201" y="13" on="1"/>
        <pt x="242" y="13" on="1"/>
        <pt x="242" y="-88" on="1"/>
        <pt x="203" y="-88" on="1"/>
        <pt x="79" y="-88" on="0"/>
        <pt x="79" y="44" on="1"/>
        <pt x="79" y="241" on="1"/>
        <pt x="79" y="249" on="0"/>
        <pt x="68" y="261" on="0"/>
        <pt x="60" y="261" on="1"/>
        <pt x="43" y="261" on="1"/>
        <pt x="43" y="353" on="1"/>
        <pt x="60" y="353" on="1"/>
        <pt x="68" y="353" on="0"/>
        <pt x="79" y="365" on="0"/>
        <pt x="79" y="373" on="1"/>
        <pt x="79" y="559" on="1"/>
        <pt x="79" y="691" on="0"/>
        <pt x="203" y="691" on="1"/>
        <pt x="242" y="691" on="1"/>
        <pt x="242" y="596" on="1"/>
      </contour>
    </TTGlyph>
    <TTGlyph name="braceright" xMin="43" yMin="-88" xMax="242" yMax="691">
      <contour>
        <pt x="84" y="596" on="1"/>
        <pt x="43" y="596" on="1"/>
        <pt x="43" y="691" on="1"/>
        <pt x="82" y="691" on="1"/>
        <pt x="206" y="691" on="0"/>
        <pt x="206" y="559" on="1"/>
        <pt x="206" y="373" on="1"/>
        <pt x="206" y="365" on="0"/>
        <pt x="217" y="353" on="0"/>
        <pt x="225" y="353" on="1"/>
        <pt x="242" y="353" on="1"/>
        <pt x="242" y="261" on="1"/>
        <pt x="225" y="261" on="1"/>
        <pt x="217" y="261" on="0"/>
        <pt x="206" y="249" on="0"/>
        <pt x="206" y="241" on="1"/>
        <pt x="206" y="44" on="1"/>
        <pt x="206" y="-88" on="0"/>
        <pt x="82" y="-88" on="1"/>
        <pt x="43" y="-88" on="1"/>
        <pt x="43" y="13" on="1"/>
        <pt x="84" y="13" on="1"/>
        <pt x="92" y="13" on="0"/>
        <pt x="103" y="25" on="0"/>
        <pt x="103" y="33" on="1"/>
        <pt x="103" y="194" on="1"/>
        <pt x="103" y="278" on="0"/>
        <pt x="144" y="307" on="1"/>
        <pt x="103" y="336" on="0"/>
        <pt x="103" y="420" on="1"/>
        <pt x="103" y="576" on="1"/>
        <pt x="103" y="584" on="0"/>
        <pt x="92" y="596" on="0"/>
      </contour>
    </TTGlyph>
    <TTGlyph name="bracketleft" xMin="47" yMin="-81" xMax="234" yMax="691">
      <contour>
        <pt x="234" y="593" on="1"/>
        <pt x="143" y="593" on="1"/>
        <pt x="143" y="17" on="1"/>
        <pt x="234" y="17" on="1"/>
        <pt x="234" y="-81" on="1"/>
        <pt x="47" y="-81" on="1"/>
        <pt x="47" y="691" on="1"/>
        <pt x="234" y="691" on="1"/>
      </contour>
    </TTGlyph>
    <TTGlyph name="bracketright" xMin="47" yMin="-81" xMax="234" yMax="691">
      <contour>
        <pt x="138" y="593" on="1"/>
        <pt x="47" y="593" on="1"/>
        <pt x="47" y="691" on="1"/>
        <pt x="234" y="691" on="1"/>
        <pt x="234" y="-81" on="1"/>
        <pt x="47" y="-81" on="1"/>
        <pt x="47" y="17" on="1"/>
        <pt x="138" y="17" on="1"/>
      </contour>
    </TTGlyph>
    <TTGlyph name="brokenbar" xMin="100" yMin="-196" xMax="223" yMax="715">
      <contour>
        <pt x="100" y="301" on="1"/>
        <pt x="100" y="715" on="1"/>
        <pt x="223" y="715" on="1"/>
        <pt x="223" y="301" on="1"/>
      </contour>
      <contour>
        <pt x="100" y="-196" on="1"/>
        <pt x="100" y="218" on="1"/>
        <pt x="223" y="218" on="1"/>
        <pt x="223" y="-196" on="1"/>
      </contour>
    </TTGlyph>
    <TTGlyph name="c" xMin="45" yMin="-10" xMax="406" yMax="498">
      <contour>
        <pt x="406" y="296" on="1"/>
        <pt x="272" y="296" on="1"/>
        <pt x="272" y="382" on="1"/>
        <pt x="272" y="390" on="0"/>
        <pt x="261" y="402" on="0"/>
        <pt x="253" y="402" on="1"/>
        <pt x="198" y="402" on="1"/>
        <pt x="190" y="402" on="0"/>
        <pt x="179" y="390" on="0"/>
        <pt x="179" y="382" on="1"/>
        <pt x="179" y="106" on="1"/>
        <pt x="179" y="98" on="0"/>
        <pt x="190" y="86" on="0"/>
        <pt x="198" y="86" on="1"/>
        <pt x="253" y="86" on="1"/>
        <pt x="261" y="86" on="0"/>
        <pt x="272" y="98" on="0"/>
        <pt x="272" y="106" on="1"/>
        <pt x="272" y="192" on="1"/>
        <pt x="406" y="192" on="1"/>
        <pt x="406" y="122" on="1"/>
        <pt x="406" y="-10" on="0"/>
        <pt x="282" y="-10" on="1"/>
        <pt x="169" y="-10" on="1"/>
        <pt x="45" y="-10" on="0"/>
        <pt x="45" y="122" on="1"/>
        <pt x="45" y="366" on="1"/>
        <pt x="45" y="498" on="0"/>
        <pt x="169" y="498" on="1"/>
        <pt x="282" y="498" on="1"/>
        <pt x="406" y="498" on="0"/>
        <pt x="406" y="366" on="1"/>
      </contour>
    </TTGlyph>
    <TTGlyph name="ccedilla" xMin="45" yMin="-106" xMax="406" yMax="498">
      <contour>
        <pt x="89" y="-106" on="1"/>
        <pt x="181" y="-10" on="1"/>
        <pt x="169" y="-10" on="1"/>
        <pt x="45" y="-10" on="0"/>
        <pt x="45" y="122" on="1"/>
        <pt x="45" y="366" on="1"/>
        <pt x="45" y="498" on="0"/>
        <pt x="169" y="498" on="1"/>
        <pt x="282" y="498" on="1"/>
        <pt x="406" y="498" on="0"/>
        <pt x="406" y="366" on="1"/>
        <pt x="406" y="296" on="1"/>
        <pt x="272" y="296" on="1"/>
        <pt x="272" y="382" on="1"/>
        <pt x="272" y="390" on="0"/>
        <pt x="261" y="402" on="0"/>
        <pt x="253" y="402" on="1"/>
        <pt x="198" y="402" on="1"/>
        <pt x="190" y="402" on="0"/>
        <pt x="179" y="390" on="0"/>
        <pt x="179" y="382" on="1"/>
        <pt x="179" y="106" on="1"/>
        <pt x="179" y="98" on="0"/>
        <pt x="190" y="86" on="0"/>
        <pt x="198" y="86" on="1"/>
        <pt x="253" y="86" on="1"/>
        <pt x="261" y="86" on="0"/>
        <pt x="272" y="98" on="0"/>
        <pt x="272" y="106" on="1"/>
        <pt x="272" y="192" on="1"/>
        <pt x="406" y="192" on="1"/>
        <pt x="406" y="122" on="1"/>
        <pt x="406" y="-8" on="0"/>
        <pt x="283" y="-10" on="1"/>
        <pt x="236" y="-106" on="1"/>
      </contour>
    </TTGlyph>
    <TTGlyph name="cedilla" xMin="61" yMin="-106" xMax="258" yMax="-4">
      <contour>
        <pt x="61" y="-106" on="1"/>
        <pt x="159" y="-4" on="1"/>
        <pt x="258" y="-4" on="1"/>
        <pt x="208" y="-106" on="1"/>
      </contour>
    </TTGlyph>
    <TTGlyph name="cent" xMin="45" yMin="-99" xMax="406" yMax="568">
      <contour>
        <pt x="406" y="296" on="1"/>
        <pt x="272" y="296" on="1"/>
        <pt x="272" y="382" on="1"/>
        <pt x="272" y="390" on="0"/>
        <pt x="261" y="402" on="0"/>
        <pt x="253" y="402" on="1"/>
        <pt x="198" y="402" on="1"/>
        <pt x="190" y="402" on="0"/>
        <pt x="179" y="390" on="0"/>
        <pt x="179" y="382" on="1"/>
        <pt x="179" y="106" on="1"/>
        <pt x="179" y="98" on="0"/>
        <pt x="190" y="86" on="0"/>
        <pt x="198" y="86" on="1"/>
        <pt x="253" y="86" on="1"/>
        <pt x="261" y="86" on="0"/>
        <pt x="272" y="98" on="0"/>
        <pt x="272" y="106" on="1"/>
        <pt x="272" y="192" on="1"/>
        <pt x="406" y="192" on="1"/>
        <pt x="406" y="122" on="1"/>
        <pt x="406" y="-10" on="0"/>
        <pt x="282" y="-10" on="1"/>
        <pt x="248" y="-10" on="1"/>
        <pt x="248" y="-99" on="1"/>
        <pt x="203" y="-99" on="1"/>
        <pt x="203" y="-10" on="1"/>
        <pt x="169" y="-10" on="1"/>
        <pt x="45" y="-10" on="0"/>
        <pt x="45" y="122" on="1"/>
        <pt x="45" y="366" on="1"/>
        <pt x="45" y="498" on="0"/>
        <pt x="169" y="498" on="1"/>
        <pt x="203" y="498" on="1"/>
        <pt x="203" y="568" on="1"/>
        <pt x="248" y="568" on="1"/>
        <pt x="248" y="498" on="1"/>
        <pt x="282" y="498" on="1"/>
        <pt x="406" y="498" on="0"/>
        <pt x="406" y="366" on="1"/>
      </contour>
    </TTGlyph>
    <TTGlyph name="circumflex" xMin="36" yMin="486" xMax="352" yMax="592">
      <contour>
        <pt x="352" y="486" on="1"/>
        <pt x="253" y="486" on="1"/>
        <pt x="194" y="542" on="1"/>
        <pt x="135" y="486" on="1"/>
        <pt x="36" y="486" on="1"/>
        <pt x="119" y="592" on="1"/>
        <pt x="269" y="592" on="1"/>
      </contour>
    </TTGlyph>
    <TTGlyph name="colon" xMin="59" yMin="-10" xMax="203" yMax="479">
      <contour>
        <pt x="59" y="92" on="0"/>
        <pt x="101" y="134" on="0"/>
        <pt x="161" y="134" on="0"/>
        <pt x="203" y="92" on="0"/>
        <pt x="203" y="32" on="0"/>
        <pt x="161" y="-10" on="0"/>
        <pt x="101" y="-10" on="0"/>
        <pt x="59" y="32" on="0"/>
      </contour>
      <contour>
        <pt x="59" y="437" on="0"/>
        <pt x="101" y="479" on="0"/>
        <pt x="161" y="479" on="0"/>
        <pt x="203" y="437" on="0"/>
        <pt x="203" y="377" on="0"/>
        <pt x="161" y="335" on="0"/>
        <pt x="101" y="335" on="0"/>
        <pt x="59" y="377" on="0"/>
      </contour>
    </TTGlyph>
    <TTGlyph name="comma" xMin="42" yMin="-145" xMax="204" yMax="59">
      <contour>
        <pt x="204" y="59" on="1"/>
        <pt x="134" y="-145" on="1"/>
        <pt x="42" y="-145" on="1"/>
        <pt x="85" y="59" on="1"/>
      </contour>
    </TTGlyph>
    <TTGlyph name="copyright" xMin="59" yMin="0" xMax="555" yMax="639">
      <contour>
        <pt x="433" y="355" on="1"/>
        <pt x="340" y="355" on="1"/>
        <pt x="340" y="415" on="1"/>
        <pt x="340" y="428" on="0"/>
        <pt x="327" y="428" on="1"/>
        <pt x="290" y="428" on="1"/>
        <pt x="277" y="428" on="0"/>
        <pt x="277" y="415" on="1"/>
        <pt x="277" y="224" on="1"/>
        <pt x="277" y="212" on="0"/>
        <pt x="290" y="212" on="1"/>
        <pt x="327" y="212" on="1"/>
        <pt x="332" y="212" on="0"/>
        <pt x="340" y="219" on="0"/>
        <pt x="340" y="224" on="1"/>
        <pt x="340" y="284" on="1"/>
        <pt x="433" y="284" on="1"/>
        <pt x="433" y="236" on="1"/>
        <pt x="433" y="145" on="0"/>
        <pt x="346" y="145" on="1"/>
        <pt x="268" y="145" on="1"/>
        <pt x="184" y="145" on="0"/>
        <pt x="184" y="236" on="1"/>
        <pt x="184" y="404" on="1"/>
        <pt x="184" y="492" on="0"/>
        <pt x="268" y="492" on="1"/>
        <pt x="346" y="492" on="1"/>
        <pt x="433" y="492" on="0"/>
        <pt x="433" y="404" on="1"/>
      </contour>
      <contour>
        <pt x="497" y="0" on="1"/>
        <pt x="117" y="0" on="1"/>
        <pt x="93" y="0" on="0"/>
        <pt x="59" y="34" on="0"/>
        <pt x="59" y="58" on="1"/>
        <pt x="59" y="581" on="1"/>
        <pt x="59" y="605" on="0"/>
        <pt x="93" y="639" on="0"/>
        <pt x="117" y="639" on="1"/>
        <pt x="497" y="639" on="1"/>
        <pt x="521" y="639" on="0"/>
        <pt x="555" y="605" on="0"/>
        <pt x="555" y="581" on="1"/>
        <pt x="555" y="58" on="1"/>
        <pt x="555" y="34" on="0"/>
        <pt x="521" y="0" on="0"/>
      </contour>
      <contour>
        <pt x="130" y="568" on="1"/>
        <pt x="130" y="71" on="1"/>
        <pt x="484" y="71" on="1"/>
        <pt x="484" y="568" on="1"/>
      </contour>
    </TTGlyph>
    <TTGlyph name="currency" xMin="58" yMin="32" xMax="630" yMax="603">
      <contour>
        <pt x="630" y="121" on="1"/>
        <pt x="540" y="32" on="1"/>
        <pt x="452" y="120" on="1"/>
        <pt x="402" y="92" on="0"/>
        <pt x="286" y="92" on="0"/>
        <pt x="236" y="120" on="1"/>
        <pt x="148" y="32" on="1"/>
        <pt x="58" y="121" on="1"/>
        <pt x="147" y="209" on="1"/>
        <pt x="119" y="259" on="0"/>
        <pt x="119" y="375" on="0"/>
        <pt x="147" y="425" on="1"/>
        <pt x="58" y="514" on="1"/>
        <pt x="148" y="603" on="1"/>
        <pt x="236" y="515" on="1"/>
        <pt x="286" y="543" on="0"/>
        <pt x="402" y="543" on="0"/>
        <pt x="452" y="515" on="1"/>
        <pt x="540" y="603" on="1"/>
        <pt x="630" y="514" on="1"/>
        <pt x="541" y="425" on="1"/>
        <pt x="569" y="375" on="0"/>
        <pt x="569" y="259" on="0"/>
        <pt x="541" y="209" on="1"/>
      </contour>
      <contour>
        <pt x="231" y="364" on="0"/>
        <pt x="231" y="271" on="0"/>
        <pt x="297" y="204" on="0"/>
        <pt x="391" y="204" on="0"/>
        <pt x="457" y="271" on="0"/>
        <pt x="457" y="364" on="0"/>
        <pt x="391" y="430" on="0"/>
        <pt x="297" y="430" on="0"/>
      </contour>
    </TTGlyph>
    <TTGlyph name="d" xMin="45" yMin="-10" xMax="406" yMax="647">
      <contour>
        <pt x="190" y="498" on="1"/>
        <pt x="241" y="498" on="0"/>
        <pt x="272" y="474" on="1"/>
        <pt x="272" y="647" on="1"/>
        <pt x="406" y="647" on="1"/>
        <pt x="406" y="0" on="1"/>
        <pt x="293" y="0" on="1"/>
        <pt x="293" y="36" on="1"/>
        <pt x="262" y="-10" on="0"/>
        <pt x="190" y="-10" on="1"/>
        <pt x="169" y="-10" on="1"/>
        <pt x="45" y="-10" on="0"/>
        <pt x="45" y="122" on="1"/>
        <pt x="45" y="366" on="1"/>
        <pt x="45" y="498" on="0"/>
        <pt x="169" y="498" on="1"/>
      </contour>
      <contour>
        <pt x="272" y="106" on="1"/>
        <pt x="272" y="382" on="1"/>
        <pt x="272" y="390" on="0"/>
        <pt x="261" y="402" on="0"/>
        <pt x="253" y="402" on="1"/>
        <pt x="198" y="402" on="1"/>
        <pt x="190" y="402" on="0"/>
        <pt x="179" y="390" on="0"/>
        <pt x="179" y="382" on="1"/>
        <pt x="179" y="106" on="1"/>
        <pt x="179" y="98" on="0"/>
        <pt x="190" y="86" on="0"/>
        <pt x="198" y="86" on="1"/>
        <pt x="253" y="86" on="1"/>
        <pt x="261" y="86" on="0"/>
        <pt x="272" y="98" on="0"/>
      </contour>
    </TTGlyph>
    <TTGlyph name="daggerdbl" xMin="35" yMin="-132" xMax="362" yMax="636">
      <contour>
        <pt x="362" y="360" on="1"/>
        <pt x="258" y="360" on="1"/>
        <pt x="258" y="144" on="1"/>
        <pt x="362" y="144" on="1"/>
        <pt x="362" y="41" on="1"/>
        <pt x="258" y="41" on="1"/>
        <pt x="258" y="-132" on="1"/>
        <pt x="139" y="-132" on="1"/>
        <pt x="139" y="41" on="1"/>
        <pt x="35" y="41" on="1"/>
        <pt x="35" y="144" on="1"/>
        <pt x="139" y="144" on="1"/>
        <pt x="139" y="360" on="1"/>
        <pt x="35" y="360" on="1"/>
        <pt x="35" y="462" on="1"/>
        <pt x="139" y="462" on="1"/>
        <pt x="139" y="636" on="1"/>
        <pt x="258" y="636" on="1"/>
        <pt x="258" y="462" on="1"/>
        <pt x="362" y="462" on="1"/>
      </contour>
    </TTGlyph>
    <TTGlyph name="degree" xMin="46" yMin="392" xMax="266" yMax="658">
      <contour>
        <pt x="266" y="589" on="1"/>
        <pt x="266" y="461" on="1"/>
        <pt x="266" y="392" on="0"/>
        <pt x="201" y="392" on="1"/>
        <pt x="111" y="392" on="1"/>
        <pt x="46" y="392" on="0"/>
        <pt x="46" y="461" on="1"/>
        <pt x="46" y="589" on="1"/>
        <pt x="46" y="658" on="0"/>
        <pt x="111" y="658" on="1"/>
        <pt x="201" y="658" on="1"/>
        <pt x="266" y="658" on="0"/>
      </contour>
      <contour>
        <pt x="195" y="446" on="1"/>
        <pt x="195" y="604" on="1"/>
        <pt x="195" y="615" on="0"/>
        <pt x="185" y="615" on="1"/>
        <pt x="127" y="615" on="1"/>
        <pt x="117" y="615" on="0"/>
        <pt x="117" y="604" on="1"/>
        <pt x="117" y="446" on="1"/>
        <pt x="117" y="436" on="0"/>
        <pt x="127" y="436" on="1"/>
        <pt x="185" y="436" on="1"/>
        <pt x="195" y="436" on="0"/>
      </contour>
    </TTGlyph>
    <TTGlyph name="dieresis" xMin="49" yMin="480" xMax="325" yMax="594">
      <contour>
        <pt x="130" y="594" on="0"/>
        <pt x="163" y="560" on="0"/>
        <pt x="163" y="513" on="0"/>
        <pt x="130" y="480" on="0"/>
        <pt x="83" y="480" on="0"/>
        <pt x="49" y="513" on="0"/>
        <pt x="49" y="560" on="0"/>
        <pt x="83" y="594" on="0"/>
      </contour>
      <contour>
        <pt x="292" y="594" on="0"/>
        <pt x="325" y="560" on="0"/>
        <pt x="325" y="513" on="0"/>
        <pt x="292" y="480" on="0"/>
        <pt x="245" y="480" on="0"/>
        <pt x="211" y="513" on="0"/>
        <pt x="211" y="560" on="0"/>
        <pt x="245" y="594" on="0"/>
      </contour>
    </TTGlyph>
    <TTGlyph name="divide" xMin="38" yMin="18" xMax="427" yMax="483">
      <contour>
        <pt x="161" y="120" on="0"/>
        <pt x="203" y="162" on="0"/>
        <pt x="263" y="162" on="0"/>
        <pt x="305" y="120" on="0"/>
        <pt x="305" y="60" on="0"/>
        <pt x="263" y="18" on="0"/>
        <pt x="203" y="18" on="0"/>
        <pt x="161" y="60" on="0"/>
      </contour>
      <contour>
        <pt x="305" y="381" on="0"/>
        <pt x="263" y="339" on="0"/>
        <pt x="203" y="339" on="0"/>
        <pt x="161" y="381" on="0"/>
        <pt x="161" y="441" on="0"/>
        <pt x="203" y="483" on="0"/>
        <pt x="263" y="483" on="0"/>
        <pt x="305" y="441" on="0"/>
      </contour>
      <contour>
        <pt x="38" y="304" on="1"/>
        <pt x="427" y="304" on="1"/>
        <pt x="427" y="197" on="1"/>
        <pt x="38" y="197" on="1"/>
      </contour>
    </TTGlyph>
    <TTGlyph name="dollar" xMin="50" yMin="-97" xMax="416" yMax="709">
      <contour>
        <pt x="292" y="384" on="1"/>
        <pt x="416" y="382" on="0"/>
        <pt x="416" y="252" on="1"/>
        <pt x="416" y="122" on="1"/>
        <pt x="416" y="-10" on="0"/>
        <pt x="292" y="-10" on="1"/>
        <pt x="251" y="-10" on="1"/>
        <pt x="251" y="-97" on="1"/>
        <pt x="214" y="-97" on="1"/>
        <pt x="214" y="-10" on="1"/>
        <pt x="174" y="-10" on="1"/>
        <pt x="50" y="-10" on="0"/>
        <pt x="50" y="122" on="1"/>
        <pt x="50" y="189" on="1"/>
        <pt x="168" y="189" on="1"/>
        <pt x="168" y="105" on="1"/>
        <pt x="168" y="97" on="0"/>
        <pt x="179" y="85" on="0"/>
        <pt x="187" y="85" on="1"/>
        <pt x="214" y="85" on="1"/>
        <pt x="214" y="272" on="1"/>
        <pt x="174" y="272" on="1"/>
        <pt x="50" y="272" on="0"/>
        <pt x="50" y="404" on="1"/>
        <pt x="50" y="525" on="1"/>
        <pt x="50" y="657" on="0"/>
        <pt x="174" y="657" on="1"/>
        <pt x="214" y="657" on="1"/>
        <pt x="214" y="709" on="1"/>
        <pt x="251" y="709" on="1"/>
        <pt x="251" y="657" on="1"/>
        <pt x="285" y="657" on="1"/>
        <pt x="409" y="657" on="0"/>
        <pt x="409" y="525" on="1"/>
        <pt x="409" y="477" on="1"/>
        <pt x="291" y="477" on="1"/>
        <pt x="291" y="541" on="1"/>
        <pt x="291" y="549" on="0"/>
        <pt x="280" y="561" on="0"/>
        <pt x="272" y="561" on="1"/>
        <pt x="251" y="561" on="1"/>
        <pt x="251" y="384" on="1"/>
      </contour>
      <contour>
        <pt x="188" y="384" on="1"/>
        <pt x="214" y="384" on="1"/>
        <pt x="214" y="561" on="1"/>
        <pt x="188" y="561" on="1"/>
        <pt x="180" y="561" on="0"/>
        <pt x="169" y="549" on="0"/>
        <pt x="169" y="541" on="1"/>
        <pt x="169" y="404" on="1"/>
        <pt x="169" y="396" on="0"/>
        <pt x="180" y="384" on="0"/>
      </contour>
      <contour>
        <pt x="298" y="105" on="1"/>
        <pt x="298" y="252" on="1"/>
        <pt x="298" y="260" on="0"/>
        <pt x="287" y="272" on="0"/>
        <pt x="279" y="272" on="1"/>
        <pt x="251" y="272" on="1"/>
        <pt x="251" y="85" on="1"/>
        <pt x="279" y="85" on="1"/>
        <pt x="287" y="85" on="0"/>
        <pt x="298" y="97" on="0"/>
      </contour>
    </TTGlyph>
    <TTGlyph name="e" xMin="45" yMin="-10" xMax="406" yMax="498">
      <contour>
        <pt x="282" y="498" on="1"/>
        <pt x="406" y="498" on="0"/>
        <pt x="406" y="366" on="1"/>
        <pt x="406" y="208" on="1"/>
        <pt x="179" y="208" on="1"/>
        <pt x="179" y="106" on="1"/>
        <pt x="179" y="98" on="0"/>
        <pt x="190" y="86" on="0"/>
        <pt x="198" y="86" on="1"/>
        <pt x="253" y="86" on="1"/>
        <pt x="261" y="86" on="0"/>
        <pt x="272" y="98" on="0"/>
        <pt x="272" y="106" on="1"/>
        <pt x="272" y="160" on="1"/>
        <pt x="406" y="160" on="1"/>
        <pt x="406" y="122" on="1"/>
        <pt x="406" y="-10" on="0"/>
        <pt x="282" y="-10" on="1"/>
        <pt x="169" y="-10" on="1"/>
        <pt x="45" y="-10" on="0"/>
        <pt x="45" y="122" on="1"/>
        <pt x="45" y="366" on="1"/>
        <pt x="45" y="498" on="0"/>
        <pt x="169" y="498" on="1"/>
      </contour>
      <contour>
        <pt x="179" y="296" on="1"/>
        <pt x="272" y="296" on="1"/>
        <pt x="272" y="386" on="1"/>
        <pt x="272" y="394" on="0"/>
        <pt x="261" y="406" on="0"/>
        <pt x="253" y="406" on="1"/>
        <pt x="198" y="406" on="1"/>
        <pt x="190" y="406" on="0"/>
        <pt x="179" y="394" on="0"/>
        <pt x="179" y="386" on="1"/>
      </contour>
    </TTGlyph>
    <TTGlyph name="eacute" xMin="45" yMin="-10" xMax="406" yMax="647">
      <contour>
        <pt x="282" y="498" on="1"/>
        <pt x="406" y="498" on="0"/>
        <pt x="406" y="366" on="1"/>
        <pt x="406" y="208" on="1"/>
        <pt x="179" y="208" on="1"/>
        <pt x="179" y="106" on="1"/>
        <pt x="179" y="98" on="0"/>
        <pt x="190" y="86" on="0"/>
        <pt x="198" y="86" on="1"/>
        <pt x="253" y="86" on="1"/>
        <pt x="261" y="86" on="0"/>
        <pt x="272" y="98" on="0"/>
        <pt x="272" y="106" on="1"/>
        <pt x="272" y="160" on="1"/>
        <pt x="406" y="160" on="1"/>
        <pt x="406" y="122" on="1"/>
        <pt x="406" y="-10" on="0"/>
        <pt x="282" y="-10" on="1"/>
        <pt x="169" y="-10" on="1"/>
        <pt x="45" y="-10" on="0"/>
        <pt x="45" y="122" on="1"/>
        <pt x="45" y="366" on="1"/>
        <pt x="45" y="498" on="0"/>
        <pt x="169" y="498" on="1"/>
      </contour>
      <contour>
        <pt x="179" y="296" on="1"/>
        <pt x="272" y="296" on="1"/>
        <pt x="272" y="386" on="1"/>
        <pt x="272" y="394" on="0"/>
        <pt x="261" y="406" on="0"/>
        <pt x="253" y="406" on="1"/>
        <pt x="198" y="406" on="1"/>
        <pt x="190" y="406" on="0"/>
        <pt x="179" y="394" on="0"/>
        <pt x="179" y="386" on="1"/>
      </contour>
      <contour>
        <pt x="358" y="647" on="1"/>
        <pt x="227" y="545" on="1"/>
        <pt x="128" y="545" on="1"/>
        <pt x="211" y="647" on="1"/>
      </contour>
    </TTGlyph>
    <TTGlyph name="ecircumflex" xMin="45" yMin="-10" xMax="406" yMax="647">
      <contour>
        <pt x="282" y="498" on="1"/>
        <pt x="406" y="498" on="0"/>
        <pt x="406" y="366" on="1"/>
        <pt x="406" y="208" on="1"/>
        <pt x="179" y="208" on="1"/>
        <pt x="179" y="106" on="1"/>
        <pt x="179" y="98" on="0"/>
        <pt x="190" y="86" on="0"/>
        <pt x="198" y="86" on="1"/>
        <pt x="253" y="86" on="1"/>
        <pt x="261" y="86" on="0"/>
        <pt x="272" y="98" on="0"/>
        <pt x="272" y="106" on="1"/>
        <pt x="272" y="160" on="1"/>
        <pt x="406" y="160" on="1"/>
        <pt x="406" y="122" on="1"/>
        <pt x="406" y="-10" on="0"/>
        <pt x="282" y="-10" on="1"/>
        <pt x="169" y="-10" on="1"/>
        <pt x="45" y="-10" on="0"/>
        <pt x="45" y="122" on="1"/>
        <pt x="45" y="366" on="1"/>
        <pt x="45" y="498" on="0"/>
        <pt x="169" y="498" on="1"/>
      </contour>
      <contour>
        <pt x="179" y="296" on="1"/>
        <pt x="272" y="296" on="1"/>
        <pt x="272" y="386" on="1"/>
        <pt x="272" y="394" on="0"/>
        <pt x="261" y="406" on="0"/>
        <pt x="253" y="406" on="1"/>
        <pt x="198" y="406" on="1"/>
        <pt x="190" y="406" on="0"/>
        <pt x="179" y="394" on="0"/>
        <pt x="179" y="386" on="1"/>
      </contour>
      <contour>
        <pt x="383" y="541" on="1"/>
        <pt x="284" y="541" on="1"/>
        <pt x="225" y="597" on="1"/>
        <pt x="166" y="541" on="1"/>
        <pt x="67" y="541" on="1"/>
        <pt x="150" y="647" on="1"/>
        <pt x="300" y="647" on="1"/>
      </contour>
    </TTGlyph>
    <TTGlyph name="edieresis" xMin="45" yMin="-10" xMax="406" yMax="657">
      <contour>
        <pt x="282" y="498" on="1"/>
        <pt x="406" y="498" on="0"/>
        <pt x="406" y="366" on="1"/>
        <pt x="406" y="208" on="1"/>
        <pt x="179" y="208" on="1"/>
        <pt x="179" y="106" on="1"/>
        <pt x="179" y="98" on="0"/>
        <pt x="190" y="86" on="0"/>
        <pt x="198" y="86" on="1"/>
        <pt x="253" y="86" on="1"/>
        <pt x="261" y="86" on="0"/>
        <pt x="272" y="98" on="0"/>
        <pt x="272" y="106" on="1"/>
        <pt x="272" y="160" on="1"/>
        <pt x="406" y="160" on="1"/>
        <pt x="406" y="122" on="1"/>
        <pt x="406" y="-10" on="0"/>
        <pt x="282" y="-10" on="1"/>
        <pt x="169" y="-10" on="1"/>
        <pt x="45" y="-10" on="0"/>
        <pt x="45" y="122" on="1"/>
        <pt x="45" y="366" on="1"/>
        <pt x="45" y="498" on="0"/>
        <pt x="169" y="498" on="1"/>
      </contour>
      <contour>
        <pt x="179" y="296" on="1"/>
        <pt x="272" y="296" on="1"/>
        <pt x="272" y="386" on="1"/>
        <pt x="272" y="394" on="0"/>
        <pt x="261" y="406" on="0"/>
        <pt x="253" y="406" on="1"/>
        <pt x="198" y="406" on="1"/>
        <pt x="190" y="406" on="0"/>
        <pt x="179" y="394" on="0"/>
        <pt x="179" y="386" on="1"/>
      </contour>
      <contour>
        <pt x="168" y="657" on="0"/>
        <pt x="201" y="623" on="0"/>
        <pt x="201" y="576" on="0"/>
        <pt x="168" y="543" on="0"/>
        <pt x="121" y="543" on="0"/>
        <pt x="87" y="576" on="0"/>
        <pt x="87" y="623" on="0"/>
        <pt x="121" y="657" on="0"/>
      </contour>
      <contour>
        <pt x="330" y="657" on="0"/>
        <pt x="363" y="623" on="0"/>
        <pt x="363" y="576" on="0"/>
        <pt x="330" y="543" on="0"/>
        <pt x="283" y="543" on="0"/>
        <pt x="249" y="576" on="0"/>
        <pt x="249" y="623" on="0"/>
        <pt x="283" y="657" on="0"/>
      </contour>
    </TTGlyph>
    <TTGlyph name="egrave" xMin="45" yMin="-10" xMax="406" yMax="647">
      <contour>
        <pt x="282" y="498" on="1"/>
        <pt x="406" y="498" on="0"/>
        <pt x="406" y="366" on="1"/>
        <pt x="406" y="208" on="1"/>
        <pt x="179" y="208" on="1"/>
        <pt x="179" y="106" on="1"/>
        <pt x="179" y="98" on="0"/>
        <pt x="190" y="86" on="0"/>
        <pt x="198" y="86" on="1"/>
        <pt x="253" y="86" on="1"/>
        <pt x="261" y="86" on="0"/>
        <pt x="272" y="98" on="0"/>
        <pt x="272" y="106" on="1"/>
        <pt x="272" y="160" on="1"/>
        <pt x="406" y="160" on="1"/>
        <pt x="406" y="122" on="1"/>
        <pt x="406" y="-10" on="0"/>
        <pt x="282" y="-10" on="1"/>
        <pt x="169" y="-10" on="1"/>
        <pt x="45" y="-10" on="0"/>
        <pt x="45" y="122" on="1"/>
        <pt x="45" y="366" on="1"/>
        <pt x="45" y="498" on="0"/>
        <pt x="169" y="498" on="1"/>
      </contour>
      <contour>
        <pt x="179" y="296" on="1"/>
        <pt x="272" y="296" on="1"/>
        <pt x="272" y="386" on="1"/>
        <pt x="272" y="394" on="0"/>
        <pt x="261" y="406" on="0"/>
        <pt x="253" y="406" on="1"/>
        <pt x="198" y="406" on="1"/>
        <pt x="190" y="406" on="0"/>
        <pt x="179" y="394" on="0"/>
        <pt x="179" y="386" on="1"/>
      </contour>
      <contour>
        <pt x="214" y="545" on="1"/>
        <pt x="83" y="647" on="1"/>
        <pt x="230" y="647" on="1"/>
        <pt x="313" y="545" on="1"/>
      </contour>
    </TTGlyph>
    <TTGlyph name="eight" xMin="53" yMin="-10" xMax="419" yMax="657">
      <contour>
        <pt x="372" y="331" on="1"/>
        <pt x="419" y="298" on="0"/>
        <pt x="419" y="218" on="1"/>
        <pt x="419" y="122" on="1"/>
        <pt x="419" y="-10" on="0"/>
        <pt x="295" y="-10" on="1"/>
        <pt x="177" y="-10" on="1"/>
        <pt x="53" y="-10" on="0"/>
        <pt x="53" y="122" on="1"/>
        <pt x="53" y="218" on="1"/>
        <pt x="53" y="298" on="0"/>
        <pt x="100" y="331" on="1"/>
        <pt x="59" y="361" on="0"/>
        <pt x="59" y="439" on="1"/>
        <pt x="59" y="525" on="1"/>
        <pt x="59" y="657" on="0"/>
        <pt x="183" y="657" on="1"/>
        <pt x="289" y="657" on="1"/>
        <pt x="413" y="657" on="0"/>
        <pt x="413" y="525" on="1"/>
        <pt x="413" y="439" on="1"/>
        <pt x="413" y="361" on="0"/>
      </contour>
      <contour>
        <pt x="184" y="525" on="1"/>
        <pt x="184" y="403" on="1"/>
        <pt x="184" y="395" on="0"/>
        <pt x="195" y="383" on="0"/>
        <pt x="203" y="383" on="1"/>
        <pt x="270" y="383" on="1"/>
        <pt x="278" y="383" on="0"/>
        <pt x="289" y="395" on="0"/>
        <pt x="289" y="403" on="1"/>
        <pt x="289" y="525" on="1"/>
        <pt x="289" y="533" on="0"/>
        <pt x="278" y="545" on="0"/>
        <pt x="270" y="545" on="1"/>
        <pt x="203" y="545" on="1"/>
        <pt x="195" y="545" on="0"/>
        <pt x="184" y="533" on="0"/>
      </contour>
      <contour>
        <pt x="295" y="119" on="1"/>
        <pt x="295" y="252" on="1"/>
        <pt x="295" y="260" on="0"/>
        <pt x="284" y="272" on="0"/>
        <pt x="276" y="272" on="1"/>
        <pt x="197" y="272" on="1"/>
        <pt x="189" y="272" on="0"/>
        <pt x="178" y="260" on="0"/>
        <pt x="178" y="252" on="1"/>
        <pt x="178" y="119" on="1"/>
        <pt x="178" y="111" on="0"/>
        <pt x="189" y="99" on="0"/>
        <pt x="197" y="99" on="1"/>
        <pt x="276" y="99" on="1"/>
        <pt x="284" y="99" on="0"/>
        <pt x="295" y="111" on="0"/>
      </contour>
    </TTGlyph>
    <TTGlyph name="equal" xMin="56" yMin="143" xMax="423" yMax="442">
      <contour>
        <pt x="423" y="442" on="1"/>
        <pt x="423" y="335" on="1"/>
        <pt x="56" y="335" on="1"/>
        <pt x="56" y="442" on="1"/>
      </contour>
      <contour>
        <pt x="423" y="250" on="1"/>
        <pt x="423" y="143" on="1"/>
        <pt x="56" y="143" on="1"/>
        <pt x="56" y="250" on="1"/>
      </contour>
    </TTGlyph>
    <TTGlyph name="eth" xMin="45" yMin="-10" xMax="406" yMax="687">
      <contour>
        <pt x="390" y="413" on="1"/>
        <pt x="406" y="382" on="0"/>
        <pt x="406" y="335" on="1"/>
        <pt x="406" y="122" on="1"/>
        <pt x="406" y="-10" on="0"/>
        <pt x="282" y="-10" on="1"/>
        <pt x="169" y="-10" on="1"/>
        <pt x="45" y="-10" on="0"/>
        <pt x="45" y="122" on="1"/>
        <pt x="45" y="335" on="1"/>
        <pt x="45" y="467" on="0"/>
        <pt x="169" y="467" on="1"/>
        <pt x="219" y="467" on="1"/>
        <pt x="168" y="529" on="1"/>
        <pt x="109" y="486" on="1"/>
        <pt x="76" y="531" on="1"/>
        <pt x="133" y="573" on="1"/>
        <pt x="90" y="626" on="1"/>
        <pt x="168" y="687" on="1"/>
        <pt x="213" y="631" on="1"/>
        <pt x="255" y="662" on="1"/>
        <pt x="288" y="616" on="1"/>
        <pt x="249" y="587" on="1"/>
        <pt x="385" y="423" on="0"/>
      </contour>
      <contour>
        <pt x="272" y="94" on="1"/>
        <pt x="272" y="364" on="1"/>
        <pt x="272" y="372" on="0"/>
        <pt x="261" y="384" on="0"/>
        <pt x="253" y="384" on="1"/>
        <pt x="198" y="384" on="1"/>
        <pt x="190" y="384" on="0"/>
        <pt x="179" y="372" on="0"/>
        <pt x="179" y="364" on="1"/>
        <pt x="179" y="94" on="1"/>
        <pt x="179" y="86" on="0"/>
        <pt x="190" y="74" on="0"/>
        <pt x="198" y="74" on="1"/>
        <pt x="253" y="74" on="1"/>
        <pt x="261" y="74" on="0"/>
        <pt x="272" y="86" on="0"/>
      </contour>
    </TTGlyph>
    <TTGlyph name="exclam" xMin="59" yMin="-10" xMax="203" yMax="647">
      <contour>
        <pt x="197" y="647" on="1"/>
        <pt x="180" y="190" on="1"/>
        <pt x="80" y="190" on="1"/>
        <pt x="63" y="647" on="1"/>
      </contour>
      <contour>
        <pt x="59" y="92" on="0"/>
        <pt x="101" y="134" on="0"/>
        <pt x="161" y="134" on="0"/>
        <pt x="203" y="92" on="0"/>
        <pt x="203" y="32" on="0"/>
        <pt x="161" y="-10" on="0"/>
        <pt x="101" y="-10" on="0"/>
        <pt x="59" y="32" on="0"/>
      </contour>
    </TTGlyph>
    <TTGlyph name="exclamdown" xMin="59" yMin="-157" xMax="203" yMax="500">
      <contour>
        <pt x="180" y="300" on="1"/>
        <pt x="197" y="-157" on="1"/>
        <pt x="63" y="-157" on="1"/>
        <pt x="80" y="300" on="1"/>
      </contour>
      <contour>
        <pt x="203" y="398" on="0"/>
        <pt x="161" y="356" on="0"/>
        <pt x="101" y="356" on="0"/>
        <pt x="59" y="398" on="0"/>
        <pt x="59" y="458" on="0"/>
        <pt x="101" y="500" on="0"/>
        <pt x="161" y="500" on="0"/>
        <pt x="203" y="458" on="0"/>
      </contour>
    </TTGlyph>
    <TTGlyph name="f" xMin="45" yMin="0" xMax="263" yMax="657">
      <contour>
        <pt x="223" y="565" on="1"/>
        <pt x="201" y="565" on="0"/>
        <pt x="179" y="545" on="0"/>
        <pt x="179" y="517" on="1"/>
        <pt x="179" y="488" on="1"/>
        <pt x="263" y="488" on="1"/>
        <pt x="263" y="387" on="1"/>
        <pt x="179" y="387" on="1"/>
        <pt x="179" y="0" on="1"/>
        <pt x="45" y="0" on="1"/>
        <pt x="45" y="525" on="1"/>
        <pt x="45" y="657" on="0"/>
        <pt x="169" y="657" on="1"/>
        <pt x="263" y="657" on="1"/>
        <pt x="263" y="565" on="1"/>
      </contour>
    </TTGlyph>
    <TTGlyph name="five" xMin="45" yMin="-10" xMax="411" yMax="647">
      <contour>
        <pt x="173" y="540" on="1"/>
        <pt x="173" y="425" on="1"/>
        <pt x="173" y="417" on="0"/>
        <pt x="184" y="405" on="0"/>
        <pt x="192" y="405" on="1"/>
        <pt x="287" y="405" on="1"/>
        <pt x="411" y="405" on="0"/>
        <pt x="411" y="273" on="1"/>
        <pt x="411" y="122" on="1"/>
        <pt x="411" y="-10" on="0"/>
        <pt x="287" y="-10" on="1"/>
        <pt x="176" y="-10" on="1"/>
        <pt x="52" y="-10" on="0"/>
        <pt x="52" y="122" on="1"/>
        <pt x="52" y="170" on="1"/>
        <pt x="185" y="170" on="1"/>
        <pt x="185" y="119" on="1"/>
        <pt x="185" y="111" on="0"/>
        <pt x="196" y="99" on="0"/>
        <pt x="204" y="99" on="1"/>
        <pt x="263" y="99" on="1"/>
        <pt x="271" y="99" on="0"/>
        <pt x="282" y="111" on="0"/>
        <pt x="282" y="119" on="1"/>
        <pt x="282" y="262" on="1"/>
        <pt x="282" y="270" on="0"/>
        <pt x="271" y="282" on="0"/>
        <pt x="263" y="282" on="1"/>
        <pt x="169" y="282" on="1"/>
        <pt x="45" y="282" on="0"/>
        <pt x="45" y="414" on="1"/>
        <pt x="45" y="647" on="1"/>
        <pt x="385" y="647" on="1"/>
        <pt x="385" y="540" on="1"/>
      </contour>
    </TTGlyph>
    <TTGlyph name="four" xMin="51" yMin="0" xMax="417" yMax="647">
      <contour>
        <pt x="292" y="647" on="1"/>
        <pt x="417" y="647" on="1"/>
        <pt x="417" y="0" on="1"/>
        <pt x="292" y="0" on="1"/>
        <pt x="292" y="255" on="1"/>
        <pt x="175" y="255" on="1"/>
        <pt x="51" y="255" on="0"/>
        <pt x="51" y="387" on="1"/>
        <pt x="51" y="647" on="1"/>
        <pt x="175" y="647" on="1"/>
        <pt x="175" y="393" on="1"/>
        <pt x="175" y="385" on="0"/>
        <pt x="186" y="373" on="0"/>
        <pt x="194" y="373" on="1"/>
        <pt x="273" y="373" on="1"/>
        <pt x="281" y="373" on="0"/>
        <pt x="292" y="385" on="0"/>
        <pt x="292" y="393" on="1"/>
      </contour>
    </TTGlyph>
    <TTGlyph name="g" xMin="45" yMin="-169" xMax="406" yMax="498">
      <contour>
        <pt x="406" y="488" on="1"/>
        <pt x="406" y="-37" on="1"/>
        <pt x="406" y="-169" on="0"/>
        <pt x="282" y="-169" on="1"/>
        <pt x="182" y="-169" on="1"/>
        <pt x="58" y="-169" on="0"/>
        <pt x="58" y="-37" on="1"/>
        <pt x="58" y="-21" on="1"/>
        <pt x="179" y="-21" on="1"/>
        <pt x="179" y="-53" on="1"/>
        <pt x="179" y="-61" on="0"/>
        <pt x="190" y="-73" on="0"/>
        <pt x="198" y="-73" on="1"/>
        <pt x="253" y="-73" on="1"/>
        <pt x="261" y="-73" on="0"/>
        <pt x="272" y="-61" on="0"/>
        <pt x="272" y="-53" on="1"/>
        <pt x="272" y="47" on="1"/>
        <pt x="241" y="23" on="0"/>
        <pt x="190" y="23" on="1"/>
        <pt x="169" y="23" on="1"/>
        <pt x="45" y="23" on="0"/>
        <pt x="45" y="155" on="1"/>
        <pt x="45" y="366" on="1"/>
        <pt x="45" y="498" on="0"/>
        <pt x="169" y="498" on="1"/>
        <pt x="190" y="498" on="1"/>
        <pt x="262" y="498" on="0"/>
        <pt x="293" y="452" on="1"/>
        <pt x="293" y="488" on="1"/>
      </contour>
      <contour>
        <pt x="272" y="139" on="1"/>
        <pt x="272" y="382" on="1"/>
        <pt x="272" y="390" on="0"/>
        <pt x="261" y="402" on="0"/>
        <pt x="253" y="402" on="1"/>
        <pt x="198" y="402" on="1"/>
        <pt x="190" y="402" on="0"/>
        <pt x="179" y="390" on="0"/>
        <pt x="179" y="382" on="1"/>
        <pt x="179" y="139" on="1"/>
        <pt x="179" y="131" on="0"/>
        <pt x="190" y="119" on="0"/>
        <pt x="198" y="119" on="1"/>
        <pt x="253" y="119" on="1"/>
        <pt x="261" y="119" on="0"/>
        <pt x="272" y="131" on="0"/>
      </contour>
    </TTGlyph>
    <TTGlyph name="germandbls" xMin="33" yMin="0" xMax="452" yMax="657">
      <contour>
        <pt x="405" y="341" on="1"/>
        <pt x="452" y="308" on="0"/>
        <pt x="452" y="228" on="1"/>
        <pt x="452" y="132" on="1"/>
        <pt x="452" y="0" on="0"/>
        <pt x="328" y="0" on="1"/>
        <pt x="247" y="0" on="1"/>
        <pt x="247" y="106" on="1"/>
        <pt x="309" y="106" on="1"/>
        <pt x="317" y="106" on="0"/>
        <pt x="328" y="118" on="0"/>
        <pt x="328" y="126" on="1"/>
        <pt x="328" y="264" on="1"/>
        <pt x="328" y="272" on="0"/>
        <pt x="317" y="284" on="0"/>
        <pt x="309" y="284" on="1"/>
        <pt x="253" y="284" on="1"/>
        <pt x="253" y="392" on="1"/>
        <pt x="303" y="392" on="1"/>
        <pt x="311" y="392" on="0"/>
        <pt x="322" y="404" on="0"/>
        <pt x="322" y="412" on="1"/>
        <pt x="322" y="528" on="1"/>
        <pt x="322" y="536" on="0"/>
        <pt x="311" y="548" on="0"/>
        <pt x="303" y="548" on="1"/>
        <pt x="236" y="548" on="1"/>
        <pt x="228" y="548" on="0"/>
        <pt x="217" y="536" on="0"/>
        <pt x="217" y="528" on="1"/>
        <pt x="217" y="0" on="1"/>
        <pt x="33" y="0" on="1"/>
        <pt x="33" y="106" on="1"/>
        <pt x="92" y="106" on="1"/>
        <pt x="92" y="280" on="1"/>
        <pt x="39" y="280" on="1"/>
        <pt x="39" y="386" on="1"/>
        <pt x="92" y="386" on="1"/>
        <pt x="92" y="525" on="1"/>
        <pt x="92" y="657" on="0"/>
        <pt x="216" y="657" on="1"/>
        <pt x="322" y="657" on="1"/>
        <pt x="446" y="657" on="0"/>
        <pt x="446" y="525" on="1"/>
        <pt x="446" y="449" on="1"/>
        <pt x="446" y="371" on="0"/>
      </contour>
    </TTGlyph>
    <TTGlyph name="grave" xMin="28" yMin="483" xMax="258" yMax="585">
      <contour>
        <pt x="159" y="483" on="1"/>
        <pt x="28" y="585" on="1"/>
        <pt x="175" y="585" on="1"/>
        <pt x="258" y="483" on="1"/>
      </contour>
    </TTGlyph>
    <TTGlyph name="greater" xMin="44" yMin="72" xMax="383" yMax="540">
      <contour>
        <pt x="44" y="422" on="1"/>
        <pt x="44" y="540" on="1"/>
        <pt x="383" y="357" on="1"/>
        <pt x="383" y="255" on="1"/>
        <pt x="44" y="72" on="1"/>
        <pt x="44" y="188" on="1"/>
        <pt x="274" y="305" on="1"/>
      </contour>
    </TTGlyph>
    <TTGlyph name="guillemotleft" xMin="25" yMin="18" xMax="606" yMax="516">
      <contour>
        <pt x="358" y="102" on="1"/>
        <pt x="274" y="18" on="1"/>
        <pt x="25" y="266" on="1"/>
        <pt x="25" y="268" on="1"/>
        <pt x="274" y="516" on="1"/>
        <pt x="358" y="432" on="1"/>
        <pt x="193" y="267" on="1"/>
      </contour>
      <contour>
        <pt x="606" y="102" on="1"/>
        <pt x="522" y="18" on="1"/>
        <pt x="273" y="266" on="1"/>
        <pt x="273" y="268" on="1"/>
        <pt x="522" y="516" on="1"/>
        <pt x="606" y="432" on="1"/>
        <pt x="441" y="267" on="1"/>
      </contour>
    </TTGlyph>
    <TTGlyph name="guillemotright" xMin="25" yMin="18" xMax="606" yMax="516">
      <contour>
        <pt x="357" y="18" on="1"/>
        <pt x="273" y="102" on="1"/>
        <pt x="438" y="267" on="1"/>
        <pt x="273" y="432" on="1"/>
        <pt x="357" y="516" on="1"/>
        <pt x="606" y="268" on="1"/>
        <pt x="606" y="266" on="1"/>
      </contour>
      <contour>
        <pt x="109" y="18" on="1"/>
        <pt x="25" y="102" on="1"/>
        <pt x="190" y="267" on="1"/>
        <pt x="25" y="432" on="1"/>
        <pt x="109" y="516" on="1"/>
        <pt x="358" y="268" on="1"/>
        <pt x="358" y="266" on="1"/>
      </contour>
    </TTGlyph>
    <TTGlyph name="h" xMin="45" yMin="0" xMax="406" yMax="647">
      <contour>
        <pt x="179" y="0" on="1"/>
        <pt x="45" y="0" on="1"/>
        <pt x="45" y="647" on="1"/>
        <pt x="179" y="647" on="1"/>
        <pt x="179" y="474" on="1"/>
        <pt x="209" y="498" on="0"/>
        <pt x="261" y="498" on="1"/>
        <pt x="282" y="498" on="1"/>
        <pt x="406" y="498" on="0"/>
        <pt x="406" y="366" on="1"/>
        <pt x="406" y="0" on="1"/>
        <pt x="272" y="0" on="1"/>
        <pt x="272" y="382" on="1"/>
        <pt x="272" y="390" on="0"/>
        <pt x="261" y="402" on="0"/>
        <pt x="253" y="402" on="1"/>
        <pt x="198" y="402" on="1"/>
        <pt x="181" y="402" on="0"/>
        <pt x="179" y="384" on="1"/>
      </contour>
    </TTGlyph>
    <TTGlyph name="hyphen" xMin="56" yMin="239" xMax="397" yMax="346">
      <contour>
        <pt x="397" y="346" on="1"/>
        <pt x="397" y="239" on="1"/>
        <pt x="56" y="239" on="1"/>
        <pt x="56" y="346" on="1"/>
      </contour>
    </TTGlyph>
    <TTGlyph name="i" xMin="56" yMin="0" xMax="203" yMax="675">
      <contour>
        <pt x="160" y="528" on="0"/>
        <pt x="100" y="528" on="0"/>
        <pt x="56" y="571" on="0"/>
        <pt x="56" y="632" on="0"/>
        <pt x="100" y="675" on="0"/>
        <pt x="160" y="675" on="0"/>
        <pt x="203" y="632" on="0"/>
        <pt x="203" y="570" on="0"/>
      </contour>
      <contour>
        <pt x="63" y="0" on="1"/>
        <pt x="63" y="488" on="1"/>
        <pt x="197" y="488" on="1"/>
        <pt x="197" y="0" on="1"/>
      </contour>
    </TTGlyph>
    <TTGlyph name="iacute" xMin="30" yMin="0" xMax="260" yMax="647">
      <contour>
        <pt x="197" y="488" on="1"/>
        <pt x="197" y="0" on="1"/>
        <pt x="63" y="0" on="1"/>
        <pt x="63" y="488" on="1"/>
      </contour>
      <contour>
        <pt x="260" y="647" on="1"/>
        <pt x="129" y="545" on="1"/>
        <pt x="30" y="545" on="1"/>
        <pt x="113" y="647" on="1"/>
      </contour>
    </TTGlyph>
    <TTGlyph name="icircumflex" xMin="-28" yMin="0" xMax="288" yMax="647">
      <contour>
        <pt x="63" y="0" on="1"/>
        <pt x="63" y="488" on="1"/>
        <pt x="197" y="488" on="1"/>
        <pt x="197" y="0" on="1"/>
      </contour>
      <contour>
        <pt x="288" y="541" on="1"/>
        <pt x="189" y="541" on="1"/>
        <pt x="130" y="597" on="1"/>
        <pt x="71" y="541" on="1"/>
        <pt x="-28" y="541" on="1"/>
        <pt x="55" y="647" on="1"/>
        <pt x="205" y="647" on="1"/>
      </contour>
    </TTGlyph>
    <TTGlyph name="idieresis" xMin="-8" yMin="0" xMax="268" yMax="657">
      <contour>
        <pt x="63" y="0" on="1"/>
        <pt x="63" y="488" on="1"/>
        <pt x="197" y="488" on="1"/>
        <pt x="197" y="0" on="1"/>
      </contour>
      <contour>
        <pt x="73" y="657" on="0"/>
        <pt x="106" y="623" on="0"/>
        <pt x="106" y="576" on="0"/>
        <pt x="73" y="543" on="0"/>
        <pt x="26" y="543" on="0"/>
        <pt x="-8" y="576" on="0"/>
        <pt x="-8" y="623" on="0"/>
        <pt x="26" y="657" on="0"/>
      </contour>
      <contour>
        <pt x="235" y="657" on="0"/>
        <pt x="268" y="623" on="0"/>
        <pt x="268" y="576" on="0"/>
        <pt x="235" y="543" on="0"/>
        <pt x="188" y="543" on="0"/>
        <pt x="154" y="576" on="0"/>
        <pt x="154" y="623" on="0"/>
        <pt x="188" y="657" on="0"/>
      </contour>
    </TTGlyph>
    <TTGlyph name="igrave" xMin="0" yMin="0" xMax="230" yMax="647">
      <contour>
        <pt x="63" y="0" on="1"/>
        <pt x="63" y="488" on="1"/>
        <pt x="197" y="488" on="1"/>
        <pt x="197" y="0" on="1"/>
      </contour>
      <contour>
        <pt x="131" y="545" on="1"/>
        <pt x="0" y="647" on="1"/>
        <pt x="147" y="647" on="1"/>
        <pt x="230" y="545" on="1"/>
      </contour>
    </TTGlyph>
    <TTGlyph name="j" xMin="3" yMin="-169" xMax="214" yMax="675">
      <contour>
        <pt x="74" y="-23" on="1"/>
        <pt x="74" y="488" on="1"/>
        <pt x="208" y="488" on="1"/>
        <pt x="208" y="-37" on="1"/>
        <pt x="208" y="-169" on="0"/>
        <pt x="84" y="-169" on="1"/>
        <pt x="3" y="-169" on="1"/>
        <pt x="3" y="-71" on="1"/>
        <pt x="30" y="-71" on="1"/>
        <pt x="52" y="-71" on="0"/>
        <pt x="74" y="-51" on="0"/>
      </contour>
      <contour>
        <pt x="171" y="528" on="0"/>
        <pt x="111" y="528" on="0"/>
        <pt x="67" y="571" on="0"/>
        <pt x="67" y="632" on="0"/>
        <pt x="111" y="675" on="0"/>
        <pt x="171" y="675" on="0"/>
        <pt x="214" y="632" on="0"/>
        <pt x="214" y="570" on="0"/>
      </contour>
    </TTGlyph>
    <TTGlyph name="k" xMin="45" yMin="0" xMax="445" yMax="647">
      <contour>
        <pt x="429" y="488" on="1"/>
        <pt x="329" y="259" on="1"/>
        <pt x="445" y="0" on="1"/>
        <pt x="311" y="0" on="1"/>
        <pt x="219" y="203" on="1"/>
        <pt x="179" y="203" on="1"/>
        <pt x="179" y="0" on="1"/>
        <pt x="45" y="0" on="1"/>
        <pt x="45" y="647" on="1"/>
        <pt x="179" y="647" on="1"/>
        <pt x="179" y="313" on="1"/>
        <pt x="224" y="313" on="1"/>
        <pt x="297" y="488" on="1"/>
      </contour>
    </TTGlyph>
    <TTGlyph name="l" xMin="45" yMin="0" xMax="179" yMax="647">
      <contour>
        <pt x="179" y="0" on="1"/>
        <pt x="45" y="0" on="1"/>
        <pt x="45" y="647" on="1"/>
        <pt x="179" y="647" on="1"/>
      </contour>
    </TTGlyph>
    <TTGlyph name="less" xMin="50" yMin="72" xMax="389" yMax="540">
      <contour>
        <pt x="389" y="540" on="1"/>
        <pt x="389" y="422" on="1"/>
        <pt x="159" y="305" on="1"/>
        <pt x="389" y="188" on="1"/>
        <pt x="389" y="72" on="1"/>
        <pt x="50" y="255" on="1"/>
        <pt x="50" y="357" on="1"/>
      </contour>
    </TTGlyph>
    <TTGlyph name="logicalnot" xMin="45" yMin="199" xMax="447" yMax="423">
      <contour>
        <pt x="45" y="297" on="1"/>
        <pt x="45" y="423" on="1"/>
        <pt x="447" y="423" on="1"/>
        <pt x="447" y="199" on="1"/>
        <pt x="328" y="199" on="1"/>
        <pt x="328" y="297" on="1"/>
      </contour>
    </TTGlyph>
    <TTGlyph name="m" xMin="45" yMin="0" xMax="609" yMax="498">
      <contour>
        <pt x="485" y="498" on="1"/>
        <pt x="609" y="498" on="0"/>
        <pt x="609" y="366" on="1"/>
        <pt x="609" y="0" on="1"/>
        <pt x="475" y="0" on="1"/>
        <pt x="475" y="382" on="1"/>
        <pt x="475" y="390" on="0"/>
        <pt x="464" y="402" on="0"/>
        <pt x="456" y="402" on="1"/>
        <pt x="413" y="402" on="1"/>
        <pt x="405" y="402" on="0"/>
        <pt x="394" y="390" on="0"/>
        <pt x="394" y="382" on="1"/>
        <pt x="394" y="0" on="1"/>
        <pt x="260" y="0" on="1"/>
        <pt x="260" y="382" on="1"/>
        <pt x="260" y="390" on="0"/>
        <pt x="249" y="402" on="0"/>
        <pt x="241" y="402" on="1"/>
        <pt x="198" y="402" on="1"/>
        <pt x="190" y="402" on="0"/>
        <pt x="179" y="390" on="0"/>
        <pt x="179" y="382" on="1"/>
        <pt x="179" y="0" on="1"/>
        <pt x="45" y="0" on="1"/>
        <pt x="45" y="488" on="1"/>
        <pt x="167" y="488" on="1"/>
        <pt x="167" y="463" on="1"/>
        <pt x="198" y="498" on="0"/>
        <pt x="261" y="498" on="1"/>
        <pt x="270" y="498" on="1"/>
        <pt x="344" y="498" on="0"/>
        <pt x="373" y="452" on="1"/>
        <pt x="404" y="498" on="0"/>
        <pt x="476" y="498" on="1"/>
      </contour>
    </TTGlyph>
    <TTGlyph name="macron" xMin="52" yMin="495" xMax="280" yMax="563">
      <contour>
        <pt x="280" y="563" on="1"/>
        <pt x="280" y="495" on="1"/>
        <pt x="52" y="495" on="1"/>
        <pt x="52" y="563" on="1"/>
      </contour>
    </TTGlyph>
    <TTGlyph name="mu" xMin="45" yMin="-159" xMax="406" yMax="488">
      <contour>
        <pt x="45" y="488" on="1"/>
        <pt x="179" y="488" on="1"/>
        <pt x="179" y="106" on="1"/>
        <pt x="179" y="98" on="0"/>
        <pt x="190" y="86" on="0"/>
        <pt x="198" y="86" on="1"/>
        <pt x="253" y="86" on="1"/>
        <pt x="261" y="86" on="0"/>
        <pt x="272" y="98" on="0"/>
        <pt x="272" y="106" on="1"/>
        <pt x="272" y="488" on="1"/>
        <pt x="406" y="488" on="1"/>
        <pt x="406" y="122" on="1"/>
        <pt x="406" y="-10" on="0"/>
        <pt x="282" y="-10" on="1"/>
        <pt x="261" y="-10" on="1"/>
        <pt x="204" y="-10" on="0"/>
        <pt x="173" y="25" on="1"/>
        <pt x="173" y="-159" on="1"/>
        <pt x="45" y="-159" on="1"/>
      </contour>
    </TTGlyph>
    <TTGlyph name="multiply" xMin="54" yMin="116" xMax="408" yMax="471">
      <contour>
        <pt x="338" y="471" on="1"/>
        <pt x="408" y="401" on="1"/>
        <pt x="301" y="293" on="1"/>
        <pt x="408" y="186" on="1"/>
        <pt x="338" y="116" on="1"/>
        <pt x="231" y="223" on="1"/>
        <pt x="124" y="116" on="1"/>
        <pt x="54" y="186" on="1"/>
        <pt x="161" y="293" on="1"/>
        <pt x="54" y="401" on="1"/>
        <pt x="124" y="471" on="1"/>
        <pt x="231" y="363" on="1"/>
      </contour>
    </TTGlyph>
    <TTGlyph name="n" xMin="45" yMin="0" xMax="406" yMax="498">
      <contour>
        <pt x="179" y="0" on="1"/>
        <pt x="45" y="0" on="1"/>
        <pt x="45" y="488" on="1"/>
        <pt x="167" y="488" on="1"/>
        <pt x="167" y="463" on="1"/>
        <pt x="198" y="498" on="0"/>
        <pt x="261" y="498" on="1"/>
        <pt x="282" y="498" on="1"/>
        <pt x="406" y="498" on="0"/>
        <pt x="406" y="366" on="1"/>
        <pt x="406" y="0" on="1"/>
        <pt x="272" y="0" on="1"/>
        <pt x="272" y="382" on="1"/>
        <pt x="272" y="390" on="0"/>
        <pt x="261" y="402" on="0"/>
        <pt x="253" y="402" on="1"/>
        <pt x="198" y="402" on="1"/>
        <pt x="190" y="402" on="0"/>
        <pt x="179" y="390" on="0"/>
        <pt x="179" y="382" on="1"/>
      </contour>
    </TTGlyph>
    <TTGlyph name="nine" xMin="43" yMin="-10" xMax="409" yMax="657">
      <contour>
        <pt x="217" y="255" on="1"/>
        <pt x="167" y="255" on="1"/>
        <pt x="43" y="255" on="0"/>
        <pt x="43" y="387" on="1"/>
        <pt x="43" y="525" on="1"/>
        <pt x="43" y="657" on="0"/>
        <pt x="167" y="657" on="1"/>
        <pt x="285" y="657" on="1"/>
        <pt x="409" y="657" on="0"/>
        <pt x="409" y="525" on="1"/>
        <pt x="409" y="122" on="1"/>
        <pt x="409" y="-10" on="0"/>
        <pt x="285" y="-10" on="1"/>
        <pt x="177" y="-10" on="1"/>
        <pt x="53" y="-10" on="0"/>
        <pt x="53" y="122" on="1"/>
        <pt x="53" y="170" on="1"/>
        <pt x="181" y="170" on="1"/>
        <pt x="181" y="119" on="1"/>
        <pt x="181" y="111" on="0"/>
        <pt x="192" y="99" on="0"/>
        <pt x="200" y="99" on="1"/>
        <pt x="265" y="99" on="1"/>
        <pt x="273" y="99" on="0"/>
        <pt x="284" y="111" on="0"/>
        <pt x="284" y="119" on="1"/>
        <pt x="284" y="268" on="1"/>
        <pt x="257" y="255" on="0"/>
      </contour>
      <contour>
        <pt x="167" y="514" on="1"/>
        <pt x="167" y="398" on="1"/>
        <pt x="167" y="390" on="0"/>
        <pt x="178" y="378" on="0"/>
        <pt x="186" y="378" on="1"/>
        <pt x="265" y="378" on="1"/>
        <pt x="273" y="378" on="0"/>
        <pt x="284" y="390" on="0"/>
        <pt x="284" y="398" on="1"/>
        <pt x="284" y="514" on="1"/>
        <pt x="284" y="522" on="0"/>
        <pt x="273" y="534" on="0"/>
        <pt x="265" y="534" on="1"/>
        <pt x="186" y="534" on="1"/>
        <pt x="178" y="534" on="0"/>
        <pt x="167" y="522" on="0"/>
      </contour>
    </TTGlyph>
    <TTGlyph name="ntilde" xMin="45" yMin="0" xMax="406" yMax="647">
      <contour>
        <pt x="179" y="0" on="1"/>
        <pt x="45" y="0" on="1"/>
        <pt x="45" y="488" on="1"/>
        <pt x="167" y="488" on="1"/>
        <pt x="167" y="463" on="1"/>
        <pt x="198" y="498" on="0"/>
        <pt x="261" y="498" on="1"/>
        <pt x="282" y="498" on="1"/>
        <pt x="406" y="498" on="0"/>
        <pt x="406" y="366" on="1"/>
        <pt x="406" y="0" on="1"/>
        <pt x="272" y="0" on="1"/>
        <pt x="272" y="382" on="1"/>
        <pt x="272" y="390" on="0"/>
        <pt x="261" y="402" on="0"/>
        <pt x="253" y="402" on="1"/>
        <pt x="198" y="402" on="1"/>
        <pt x="190" y="402" on="0"/>
        <pt x="179" y="390" on="0"/>
        <pt x="179" y="382" on="1"/>
      </contour>
      <contour>
        <pt x="275" y="535" on="1"/>
        <pt x="248" y="538" on="0"/>
        <pt x="175" y="566" on="0"/>
        <pt x="156" y="568" on="1"/>
        <pt x="115" y="568" on="0"/>
        <pt x="90" y="537" on="1"/>
        <pt x="63" y="539" on="1"/>
        <pt x="64" y="548" on="1"/>
        <pt x="68" y="597" on="0"/>
        <pt x="126" y="647" on="0"/>
        <pt x="199" y="647" on="0"/>
        <pt x="281" y="615" on="0"/>
        <pt x="335" y="615" on="0"/>
        <pt x="361" y="645" on="1"/>
        <pt x="388" y="643" on="1"/>
        <pt x="387" y="634" on="1"/>
        <pt x="383" y="586" on="0"/>
        <pt x="324" y="535" on="0"/>
        <pt x="284" y="535" on="1"/>
      </contour>
    </TTGlyph>
    <TTGlyph name="numbersign" xMin="44" yMin="0" xMax="446" yMax="544">
      <contour>
        <pt x="446" y="337" on="1"/>
        <pt x="385" y="337" on="1"/>
        <pt x="385" y="241" on="1"/>
        <pt x="446" y="241" on="1"/>
        <pt x="446" y="139" on="1"/>
        <pt x="385" y="139" on="1"/>
        <pt x="385" y="0" on="1"/>
        <pt x="283" y="0" on="1"/>
        <pt x="283" y="139" on="1"/>
        <pt x="208" y="139" on="1"/>
        <pt x="208" y="0" on="1"/>
        <pt x="106" y="0" on="1"/>
        <pt x="106" y="139" on="1"/>
        <pt x="44" y="139" on="1"/>
        <pt x="44" y="241" on="1"/>
        <pt x="106" y="241" on="1"/>
        <pt x="106" y="337" on="1"/>
        <pt x="44" y="337" on="1"/>
        <pt x="44" y="439" on="1"/>
        <pt x="106" y="439" on="1"/>
        <pt x="106" y="544" on="1"/>
        <pt x="208" y="544" on="1"/>
        <pt x="208" y="439" on="1"/>
        <pt x="283" y="439" on="1"/>
        <pt x="283" y="544" on="1"/>
        <pt x="385" y="544" on="1"/>
        <pt x="385" y="439" on="1"/>
        <pt x="446" y="439" on="1"/>
      </contour>
      <contour>
        <pt x="283" y="241" on="1"/>
        <pt x="283" y="337" on="1"/>
        <pt x="208" y="337" on="1"/>
        <pt x="208" y="241" on="1"/>
      </contour>
    </TTGlyph>
    <TTGlyph name="o" xMin="45" yMin="-10" xMax="406" yMax="498">
      <contour>
        <pt x="406" y="366" on="1"/>
        <pt x="406" y="122" on="1"/>
        <pt x="406" y="-10" on="0"/>
        <pt x="282" y="-10" on="1"/>
        <pt x="169" y="-10" on="1"/>
        <pt x="45" y="-10" on="0"/>
        <pt x="45" y="122" on="1"/>
        <pt x="45" y="366" on="1"/>
        <pt x="45" y="498" on="0"/>
        <pt x="169" y="498" on="1"/>
        <pt x="282" y="498" on="1"/>
        <pt x="406" y="498" on="0"/>
      </contour>
      <contour>
        <pt x="272" y="94" on="1"/>
        <pt x="272" y="395" on="1"/>
        <pt x="272" y="403" on="0"/>
        <pt x="261" y="415" on="0"/>
        <pt x="253" y="415" on="1"/>
        <pt x="198" y="415" on="1"/>
        <pt x="190" y="415" on="0"/>
        <pt x="179" y="403" on="0"/>
        <pt x="179" y="395" on="1"/>
        <pt x="179" y="94" on="1"/>
        <pt x="179" y="86" on="0"/>
        <pt x="190" y="74" on="0"/>
        <pt x="198" y="74" on="1"/>
        <pt x="253" y="74" on="1"/>
        <pt x="261" y="74" on="0"/>
        <pt x="272" y="86" on="0"/>
      </contour>
    </TTGlyph>
    <TTGlyph name="oacute" xMin="45" yMin="-10" xMax="406" yMax="647">
      <contour>
        <pt x="406" y="366" on="1"/>
        <pt x="406" y="122" on="1"/>
        <pt x="406" y="-10" on="0"/>
        <pt x="282" y="-10" on="1"/>
        <pt x="169" y="-10" on="1"/>
        <pt x="45" y="-10" on="0"/>
        <pt x="45" y="122" on="1"/>
        <pt x="45" y="366" on="1"/>
        <pt x="45" y="498" on="0"/>
        <pt x="169" y="498" on="1"/>
        <pt x="282" y="498" on="1"/>
        <pt x="406" y="498" on="0"/>
      </contour>
      <contour>
        <pt x="272" y="94" on="1"/>
        <pt x="272" y="395" on="1"/>
        <pt x="272" y="403" on="0"/>
        <pt x="261" y="415" on="0"/>
        <pt x="253" y="415" on="1"/>
        <pt x="198" y="415" on="1"/>
        <pt x="190" y="415" on="0"/>
        <pt x="179" y="403" on="0"/>
        <pt x="179" y="395" on="1"/>
        <pt x="179" y="94" on="1"/>
        <pt x="179" y="86" on="0"/>
        <pt x="190" y="74" on="0"/>
        <pt x="198" y="74" on="1"/>
        <pt x="253" y="74" on="1"/>
        <pt x="261" y="74" on="0"/>
        <pt x="272" y="86" on="0"/>
      </contour>
      <contour>
        <pt x="366" y="647" on="1"/>
        <pt x="235" y="545" on="1"/>
        <pt x="136" y="545" on="1"/>
        <pt x="219" y="647" on="1"/>
      </contour>
    </TTGlyph>
    <TTGlyph name="ocircumflex" xMin="45" yMin="-10" xMax="406" yMax="647">
      <contour>
        <pt x="406" y="366" on="1"/>
        <pt x="406" y="122" on="1"/>
        <pt x="406" y="-10" on="0"/>
        <pt x="282" y="-10" on="1"/>
        <pt x="169" y="-10" on="1"/>
        <pt x="45" y="-10" on="0"/>
        <pt x="45" y="122" on="1"/>
        <pt x="45" y="366" on="1"/>
        <pt x="45" y="498" on="0"/>
        <pt x="169" y="498" on="1"/>
        <pt x="282" y="498" on="1"/>
        <pt x="406" y="498" on="0"/>
      </contour>
      <contour>
        <pt x="272" y="94" on="1"/>
        <pt x="272" y="395" on="1"/>
        <pt x="272" y="403" on="0"/>
        <pt x="261" y="415" on="0"/>
        <pt x="253" y="415" on="1"/>
        <pt x="198" y="415" on="1"/>
        <pt x="190" y="415" on="0"/>
        <pt x="179" y="403" on="0"/>
        <pt x="179" y="395" on="1"/>
        <pt x="179" y="94" on="1"/>
        <pt x="179" y="86" on="0"/>
        <pt x="190" y="74" on="0"/>
        <pt x="198" y="74" on="1"/>
        <pt x="253" y="74" on="1"/>
        <pt x="261" y="74" on="0"/>
        <pt x="272" y="86" on="0"/>
      </contour>
      <contour>
        <pt x="383" y="541" on="1"/>
        <pt x="284" y="541" on="1"/>
        <pt x="225" y="597" on="1"/>
        <pt x="166" y="541" on="1"/>
        <pt x="67" y="541" on="1"/>
        <pt x="150" y="647" on="1"/>
        <pt x="300" y="647" on="1"/>
      </contour>
    </TTGlyph>
    <TTGlyph name="odieresis" xMin="45" yMin="-10" xMax="406" yMax="657">
      <contour>
        <pt x="406" y="366" on="1"/>
        <pt x="406" y="122" on="1"/>
        <pt x="406" y="-10" on="0"/>
        <pt x="282" y="-10" on="1"/>
        <pt x="169" y="-10" on="1"/>
        <pt x="45" y="-10" on="0"/>
        <pt x="45" y="122" on="1"/>
        <pt x="45" y="366" on="1"/>
        <pt x="45" y="498" on="0"/>
        <pt x="169" y="498" on="1"/>
        <pt x="282" y="498" on="1"/>
        <pt x="406" y="498" on="0"/>
      </contour>
      <contour>
        <pt x="272" y="94" on="1"/>
        <pt x="272" y="395" on="1"/>
        <pt x="272" y="403" on="0"/>
        <pt x="261" y="415" on="0"/>
        <pt x="253" y="415" on="1"/>
        <pt x="198" y="415" on="1"/>
        <pt x="190" y="415" on="0"/>
        <pt x="179" y="403" on="0"/>
        <pt x="179" y="395" on="1"/>
        <pt x="179" y="94" on="1"/>
        <pt x="179" y="86" on="0"/>
        <pt x="190" y="74" on="0"/>
        <pt x="198" y="74" on="1"/>
        <pt x="253" y="74" on="1"/>
        <pt x="261" y="74" on="0"/>
        <pt x="272" y="86" on="0"/>
      </contour>
      <contour>
        <pt x="167" y="657" on="0"/>
        <pt x="200" y="623" on="0"/>
        <pt x="200" y="576" on="0"/>
        <pt x="167" y="543" on="0"/>
        <pt x="120" y="543" on="0"/>
        <pt x="86" y="576" on="0"/>
        <pt x="86" y="623" on="0"/>
        <pt x="120" y="657" on="0"/>
      </contour>
      <contour>
        <pt x="329" y="657" on="0"/>
        <pt x="362" y="623" on="0"/>
        <pt x="362" y="576" on="0"/>
        <pt x="329" y="543" on="0"/>
        <pt x="282" y="543" on="0"/>
        <pt x="248" y="576" on="0"/>
        <pt x="248" y="623" on="0"/>
        <pt x="282" y="657" on="0"/>
      </contour>
    </TTGlyph>
    <TTGlyph name="ograve" xMin="45" yMin="-10" xMax="406" yMax="647">
      <contour>
        <pt x="406" y="366" on="1"/>
        <pt x="406" y="122" on="1"/>
        <pt x="406" y="-10" on="0"/>
        <pt x="282" y="-10" on="1"/>
        <pt x="169" y="-10" on="1"/>
        <pt x="45" y="-10" on="0"/>
        <pt x="45" y="122" on="1"/>
        <pt x="45" y="366" on="1"/>
        <pt x="45" y="498" on="0"/>
        <pt x="169" y="498" on="1"/>
        <pt x="282" y="498" on="1"/>
        <pt x="406" y="498" on="0"/>
      </contour>
      <contour>
        <pt x="272" y="94" on="1"/>
        <pt x="272" y="395" on="1"/>
        <pt x="272" y="403" on="0"/>
        <pt x="261" y="415" on="0"/>
        <pt x="253" y="415" on="1"/>
        <pt x="198" y="415" on="1"/>
        <pt x="190" y="415" on="0"/>
        <pt x="179" y="403" on="0"/>
        <pt x="179" y="395" on="1"/>
        <pt x="179" y="94" on="1"/>
        <pt x="179" y="86" on="0"/>
        <pt x="190" y="74" on="0"/>
        <pt x="198" y="74" on="1"/>
        <pt x="253" y="74" on="1"/>
        <pt x="261" y="74" on="0"/>
        <pt x="272" y="86" on="0"/>
      </contour>
      <contour>
        <pt x="216" y="545" on="1"/>
        <pt x="85" y="647" on="1"/>
        <pt x="232" y="647" on="1"/>
        <pt x="315" y="545" on="1"/>
      </contour>
    </TTGlyph>
    <TTGlyph name="one" xMin="62" yMin="-1" xMax="198" yMax="646">
      <contour>
        <pt x="198" y="646" on="1"/>
        <pt x="198" y="-1" on="1"/>
        <pt x="62" y="-1" on="1"/>
        <pt x="62" y="646" on="1"/>
      </contour>
    </TTGlyph>
    <TTGlyph name="onesuperior" xMin="57" yMin="346" xMax="121" yMax="650">
      <contour>
        <pt x="121" y="650" on="1"/>
        <pt x="121" y="346" on="1"/>
        <pt x="57" y="346" on="1"/>
        <pt x="57" y="650" on="1"/>
      </contour>
    </TTGlyph>
    <TTGlyph name="ordfeminine" xMin="48" yMin="399" xMax="243" yMax="653">
      <contour>
        <pt x="187" y="648" on="1"/>
        <pt x="243" y="648" on="1"/>
        <pt x="243" y="404" on="1"/>
        <pt x="187" y="404" on="1"/>
        <pt x="187" y="422" on="1"/>
        <pt x="171" y="399" on="0"/>
        <pt x="120" y="399" on="1"/>
        <pt x="110" y="399" on="1"/>
        <pt x="48" y="399" on="0"/>
        <pt x="48" y="465" on="1"/>
        <pt x="48" y="587" on="1"/>
        <pt x="48" y="653" on="0"/>
        <pt x="110" y="653" on="1"/>
        <pt x="120" y="653" on="1"/>
        <pt x="170" y="653" on="0"/>
        <pt x="187" y="630" on="1"/>
      </contour>
      <contour>
        <pt x="176" y="457" on="1"/>
        <pt x="176" y="595" on="1"/>
        <pt x="176" y="605" on="0"/>
        <pt x="167" y="605" on="1"/>
        <pt x="124" y="605" on="1"/>
        <pt x="115" y="605" on="0"/>
        <pt x="115" y="595" on="1"/>
        <pt x="115" y="457" on="1"/>
        <pt x="115" y="447" on="0"/>
        <pt x="124" y="447" on="1"/>
        <pt x="167" y="447" on="1"/>
        <pt x="176" y="447" on="0"/>
      </contour>
    </TTGlyph>
    <TTGlyph name="ordmasculine" xMin="50" yMin="399" xMax="245" yMax="653">
      <contour>
        <pt x="183" y="653" on="1"/>
        <pt x="245" y="653" on="0"/>
        <pt x="245" y="587" on="1"/>
        <pt x="245" y="465" on="1"/>
        <pt x="245" y="399" on="0"/>
        <pt x="183" y="399" on="1"/>
        <pt x="112" y="399" on="1"/>
        <pt x="50" y="399" on="0"/>
        <pt x="50" y="465" on="1"/>
        <pt x="50" y="587" on="1"/>
        <pt x="50" y="653" on="0"/>
        <pt x="112" y="653" on="1"/>
      </contour>
      <contour>
        <pt x="178" y="451" on="1"/>
        <pt x="178" y="601" on="1"/>
        <pt x="178" y="611" on="0"/>
        <pt x="169" y="611" on="1"/>
        <pt x="126" y="611" on="1"/>
        <pt x="117" y="611" on="0"/>
        <pt x="117" y="601" on="1"/>
        <pt x="117" y="451" on="1"/>
        <pt x="117" y="441" on="0"/>
        <pt x="126" y="441" on="1"/>
        <pt x="169" y="441" on="1"/>
        <pt x="178" y="441" on="0"/>
      </contour>
    </TTGlyph>
    <TTGlyph name="oslash" xMin="34" yMin="-61" xMax="418" yMax="549">
      <contour>
        <pt x="418" y="516" on="1"/>
        <pt x="383" y="455" on="1"/>
        <pt x="406" y="423" on="0"/>
        <pt x="406" y="366" on="1"/>
        <pt x="406" y="122" on="1"/>
        <pt x="406" y="-10" on="0"/>
        <pt x="282" y="-10" on="1"/>
        <pt x="169" y="-10" on="1"/>
        <pt x="144" y="-10" on="0"/>
        <pt x="123" y="-4" on="1"/>
        <pt x="91" y="-61" on="1"/>
        <pt x="34" y="-28" on="1"/>
        <pt x="68" y="33" on="1"/>
        <pt x="45" y="65" on="0"/>
        <pt x="45" y="122" on="1"/>
        <pt x="45" y="366" on="1"/>
        <pt x="45" y="498" on="0"/>
        <pt x="169" y="498" on="1"/>
        <pt x="282" y="498" on="1"/>
        <pt x="308" y="498" on="0"/>
        <pt x="329" y="492" on="1"/>
        <pt x="361" y="549" on="1"/>
      </contour>
      <contour>
        <pt x="179" y="395" on="1"/>
        <pt x="179" y="229" on="1"/>
        <pt x="272" y="393" on="1"/>
        <pt x="272" y="395" on="1"/>
        <pt x="272" y="403" on="0"/>
        <pt x="261" y="415" on="0"/>
        <pt x="253" y="415" on="1"/>
        <pt x="198" y="415" on="1"/>
        <pt x="190" y="415" on="0"/>
        <pt x="179" y="403" on="0"/>
      </contour>
      <contour>
        <pt x="272" y="94" on="1"/>
        <pt x="272" y="259" on="1"/>
        <pt x="179" y="95" on="1"/>
        <pt x="179" y="94" on="1"/>
        <pt x="179" y="86" on="0"/>
        <pt x="190" y="74" on="0"/>
        <pt x="198" y="74" on="1"/>
        <pt x="253" y="74" on="1"/>
        <pt x="261" y="74" on="0"/>
        <pt x="272" y="86" on="0"/>
      </contour>
    </TTGlyph>
    <TTGlyph name="otilde" xMin="45" yMin="-10" xMax="406" yMax="647">
      <contour>
        <pt x="406" y="366" on="1"/>
        <pt x="406" y="122" on="1"/>
        <pt x="406" y="-10" on="0"/>
        <pt x="282" y="-10" on="1"/>
        <pt x="169" y="-10" on="1"/>
        <pt x="45" y="-10" on="0"/>
        <pt x="45" y="122" on="1"/>
        <pt x="45" y="366" on="1"/>
        <pt x="45" y="498" on="0"/>
        <pt x="169" y="498" on="1"/>
        <pt x="282" y="498" on="1"/>
        <pt x="406" y="498" on="0"/>
      </contour>
      <contour>
        <pt x="272" y="94" on="1"/>
        <pt x="272" y="395" on="1"/>
        <pt x="272" y="403" on="0"/>
        <pt x="261" y="415" on="0"/>
        <pt x="253" y="415" on="1"/>
        <pt x="198" y="415" on="1"/>
        <pt x="190" y="415" on="0"/>
        <pt x="179" y="403" on="0"/>
        <pt x="179" y="395" on="1"/>
        <pt x="179" y="94" on="1"/>
        <pt x="179" y="86" on="0"/>
        <pt x="190" y="74" on="0"/>
        <pt x="198" y="74" on="1"/>
        <pt x="253" y="74" on="1"/>
        <pt x="261" y="74" on="0"/>
        <pt x="272" y="86" on="0"/>
      </contour>
      <contour>
        <pt x="277" y="535" on="1"/>
        <pt x="250" y="538" on="0"/>
        <pt x="177" y="566" on="0"/>
        <pt x="158" y="568" on="1"/>
        <pt x="117" y="568" on="0"/>
        <pt x="92" y="537" on="1"/>
        <pt x="65" y="539" on="1"/>
        <pt x="66" y="548" on="1"/>
        <pt x="70" y="597" on="0"/>
        <pt x="128" y="647" on="0"/>
        <pt x="201" y="647" on="0"/>
        <pt x="283" y="615" on="0"/>
        <pt x="337" y="615" on="0"/>
        <pt x="363" y="645" on="1"/>
        <pt x="390" y="643" on="1"/>
        <pt x="389" y="634" on="1"/>
        <pt x="385" y="586" on="0"/>
        <pt x="326" y="535" on="0"/>
        <pt x="286" y="535" on="1"/>
      </contour>
    </TTGlyph>
    <TTGlyph name="p" xMin="45" yMin="-159" xMax="406" yMax="498">
      <contour>
        <pt x="282" y="-10" on="1"/>
        <pt x="261" y="-10" on="1"/>
        <pt x="210" y="-10" on="0"/>
        <pt x="179" y="14" on="1"/>
        <pt x="179" y="-159" on="1"/>
        <pt x="45" y="-159" on="1"/>
        <pt x="45" y="488" on="1"/>
        <pt x="158" y="488" on="1"/>
        <pt x="158" y="452" on="1"/>
        <pt x="189" y="498" on="0"/>
        <pt x="261" y="498" on="1"/>
        <pt x="282" y="498" on="1"/>
        <pt x="406" y="498" on="0"/>
        <pt x="406" y="366" on="1"/>
        <pt x="406" y="122" on="1"/>
        <pt x="406" y="-10" on="0"/>
      </contour>
      <contour>
        <pt x="179" y="382" on="1"/>
        <pt x="179" y="106" on="1"/>
        <pt x="179" y="98" on="0"/>
        <pt x="190" y="86" on="0"/>
        <pt x="198" y="86" on="1"/>
        <pt x="253" y="86" on="1"/>
        <pt x="261" y="86" on="0"/>
        <pt x="272" y="98" on="0"/>
        <pt x="272" y="106" on="1"/>
        <pt x="272" y="382" on="1"/>
        <pt x="272" y="390" on="0"/>
        <pt x="261" y="402" on="0"/>
        <pt x="253" y="402" on="1"/>
        <pt x="198" y="402" on="1"/>
        <pt x="190" y="402" on="0"/>
        <pt x="179" y="390" on="0"/>
      </contour>
    </TTGlyph>
    <TTGlyph name="paragraph" xMin="32" yMin="-63" xMax="508" yMax="686">
      <contour>
        <pt x="508" y="686" on="1"/>
        <pt x="508" y="590" on="1"/>
        <pt x="456" y="590" on="1"/>
        <pt x="456" y="-63" on="1"/>
        <pt x="337" y="-63" on="1"/>
        <pt x="337" y="590" on="1"/>
        <pt x="289" y="590" on="1"/>
        <pt x="289" y="-63" on="1"/>
        <pt x="171" y="-63" on="1"/>
        <pt x="171" y="317" on="1"/>
        <pt x="156" y="317" on="1"/>
        <pt x="32" y="317" on="0"/>
        <pt x="32" y="449" on="1"/>
        <pt x="32" y="554" on="1"/>
        <pt x="32" y="686" on="0"/>
        <pt x="156" y="686" on="1"/>
      </contour>
    </TTGlyph>
    <TTGlyph name="parenleft" xMin="30" yMin="-81" xMax="232" yMax="691">
      <contour>
        <pt x="227" y="691" on="1"/>
        <pt x="142" y="524" on="0"/>
        <pt x="142" y="92" on="0"/>
        <pt x="232" y="-81" on="1"/>
        <pt x="115" y="-81" on="1"/>
        <pt x="30" y="107" on="0"/>
        <pt x="30" y="510" on="0"/>
        <pt x="110" y="691" on="1"/>
      </contour>
    </TTGlyph>
    <TTGlyph name="parenright" xMin="30" yMin="-81" xMax="232" yMax="691">
      <contour>
        <pt x="35" y="691" on="1"/>
        <pt x="152" y="691" on="1"/>
        <pt x="232" y="510" on="0"/>
        <pt x="232" y="107" on="0"/>
        <pt x="147" y="-81" on="1"/>
        <pt x="30" y="-81" on="1"/>
        <pt x="120" y="92" on="0"/>
        <pt x="120" y="524" on="0"/>
      </contour>
    </TTGlyph>
    <TTGlyph name="percent" xMin="35" yMin="-10" xMax="728" yMax="657">
      <contour>
        <pt x="529" y="647" on="1"/>
        <pt x="629" y="647" on="1"/>
        <pt x="236" y="0" on="1"/>
        <pt x="136" y="0" on="1"/>
      </contour>
      <contour>
        <pt x="183" y="318" on="1"/>
        <pt x="159" y="318" on="1"/>
        <pt x="35" y="318" on="0"/>
        <pt x="35" y="450" on="1"/>
        <pt x="35" y="525" on="1"/>
        <pt x="35" y="657" on="0"/>
        <pt x="159" y="657" on="1"/>
        <pt x="183" y="657" on="1"/>
        <pt x="307" y="657" on="0"/>
        <pt x="307" y="525" on="1"/>
        <pt x="307" y="450" on="1"/>
        <pt x="307" y="318" on="0"/>
      </contour>
      <contour>
        <pt x="137" y="400" on="1"/>
        <pt x="137" y="392" on="0"/>
        <pt x="148" y="380" on="0"/>
        <pt x="156" y="380" on="1"/>
        <pt x="187" y="380" on="1"/>
        <pt x="195" y="380" on="0"/>
        <pt x="206" y="392" on="0"/>
        <pt x="206" y="400" on="1"/>
        <pt x="206" y="576" on="1"/>
        <pt x="206" y="584" on="0"/>
        <pt x="195" y="596" on="0"/>
        <pt x="187" y="596" on="1"/>
        <pt x="156" y="596" on="1"/>
        <pt x="148" y="596" on="0"/>
        <pt x="137" y="584" on="0"/>
        <pt x="137" y="576" on="1"/>
      </contour>
      <contour>
        <pt x="604" y="329" on="1"/>
        <pt x="728" y="329" on="0"/>
        <pt x="728" y="197" on="1"/>
        <pt x="728" y="122" on="1"/>
        <pt x="728" y="-10" on="0"/>
        <pt x="604" y="-10" on="1"/>
        <pt x="580" y="-10" on="1"/>
        <pt x="456" y="-10" on="0"/>
        <pt x="456" y="122" on="1"/>
        <pt x="456" y="197" on="1"/>
        <pt x="456" y="329" on="0"/>
        <pt x="580" y="329" on="1"/>
      </contour>
      <contour>
        <pt x="627" y="72" on="1"/>
        <pt x="627" y="248" on="1"/>
        <pt x="627" y="256" on="0"/>
        <pt x="616" y="268" on="0"/>
        <pt x="608" y="268" on="1"/>
        <pt x="577" y="268" on="1"/>
        <pt x="569" y="268" on="0"/>
        <pt x="558" y="256" on="0"/>
        <pt x="558" y="248" on="1"/>
        <pt x="558" y="72" on="1"/>
        <pt x="558" y="64" on="0"/>
        <pt x="569" y="52" on="0"/>
        <pt x="577" y="52" on="1"/>
        <pt x="608" y="52" on="1"/>
        <pt x="616" y="52" on="0"/>
        <pt x="627" y="64" on="0"/>
      </contour>
    </TTGlyph>
    <TTGlyph name="period" xMin="59" yMin="-10" xMax="203" yMax="134">
      <contour>
        <pt x="59" y="92" on="0"/>
        <pt x="101" y="134" on="0"/>
        <pt x="161" y="134" on="0"/>
        <pt x="203" y="92" on="0"/>
        <pt x="203" y="32" on="0"/>
        <pt x="161" y="-10" on="0"/>
        <pt x="101" y="-10" on="0"/>
        <pt x="59" y="32" on="0"/>
      </contour>
    </TTGlyph>
    <TTGlyph name="periodcentered" xMin="59" yMin="234" xMax="203" yMax="378">
      <contour>
        <pt x="59" y="336" on="0"/>
        <pt x="101" y="378" on="0"/>
        <pt x="161" y="378" on="0"/>
        <pt x="203" y="336" on="0"/>
        <pt x="203" y="276" on="0"/>
        <pt x="161" y="234" on="0"/>
        <pt x="101" y="234" on="0"/>
        <pt x="59" y="276" on="0"/>
      </contour>
    </TTGlyph>
    <TTGlyph name="plus" xMin="56" yMin="100" xMax="441" yMax="525">
      <contour>
        <pt x="441" y="363" on="1"/>
        <pt x="441" y="263" on="1"/>
        <pt x="305" y="263" on="1"/>
        <pt x="305" y="100" on="1"/>
        <pt x="192" y="100" on="1"/>
        <pt x="192" y="263" on="1"/>
        <pt x="56" y="263" on="1"/>
        <pt x="56" y="363" on="1"/>
        <pt x="192" y="363" on="1"/>
        <pt x="192" y="525" on="1"/>
        <pt x="305" y="525" on="1"/>
        <pt x="305" y="363" on="1"/>
      </contour>
    </TTGlyph>
    <TTGlyph name="plusminus" xMin="55" yMin="0" xMax="441" yMax="536">
      <contour>
        <pt x="441" y="395" on="1"/>
        <pt x="441" y="295" on="1"/>
        <pt x="305" y="295" on="1"/>
        <pt x="305" y="153" on="1"/>
        <pt x="192" y="153" on="1"/>
        <pt x="192" y="295" on="1"/>
        <pt x="56" y="295" on="1"/>
        <pt x="56" y="395" on="1"/>
        <pt x="192" y="395" on="1"/>
        <pt x="192" y="536" on="1"/>
        <pt x="305" y="536" on="1"/>
        <pt x="305" y="395" on="1"/>
      </contour>
      <contour>
        <pt x="55" y="0" on="1"/>
        <pt x="55" y="100" on="1"/>
        <pt x="441" y="100" on="1"/>
        <pt x="441" y="0" on="1"/>
      </contour>
    </TTGlyph>
    <TTGlyph name="q" xMin="45" yMin="-159" xMax="406" yMax="498">
      <contour>
        <pt x="190" y="-10" on="1"/>
        <pt x="169" y="-10" on="1"/>
        <pt x="45" y="-10" on="0"/>
        <pt x="45" y="122" on="1"/>
        <pt x="45" y="366" on="1"/>
        <pt x="45" y="498" on="0"/>
        <pt x="169" y="498" on="1"/>
        <pt x="190" y="498" on="1"/>
        <pt x="262" y="498" on="0"/>
        <pt x="293" y="452" on="1"/>
        <pt x="293" y="488" on="1"/>
        <pt x="406" y="488" on="1"/>
        <pt x="406" y="-159" on="1"/>
        <pt x="272" y="-159" on="1"/>
        <pt x="272" y="14" on="1"/>
        <pt x="241" y="-10" on="0"/>
      </contour>
      <contour>
        <pt x="272" y="106" on="1"/>
        <pt x="272" y="382" on="1"/>
        <pt x="272" y="390" on="0"/>
        <pt x="261" y="402" on="0"/>
        <pt x="253" y="402" on="1"/>
        <pt x="198" y="402" on="1"/>
        <pt x="190" y="402" on="0"/>
        <pt x="179" y="390" on="0"/>
        <pt x="179" y="382" on="1"/>
        <pt x="179" y="106" on="1"/>
        <pt x="179" y="98" on="0"/>
        <pt x="190" y="86" on="0"/>
        <pt x="198" y="86" on="1"/>
        <pt x="253" y="86" on="1"/>
        <pt x="261" y="86" on="0"/>
        <pt x="272" y="98" on="0"/>
      </contour>
    </TTGlyph>
    <TTGlyph name="question" xMin="31" yMin="-10" xMax="390" yMax="647">
      <contour>
        <pt x="257" y="265" on="1"/>
        <pt x="249" y="265" on="0"/>
        <pt x="238" y="253" on="0"/>
        <pt x="238" y="245" on="1"/>
        <pt x="238" y="190" on="1"/>
        <pt x="121" y="190" on="1"/>
        <pt x="121" y="247" on="1"/>
        <pt x="121" y="379" on="0"/>
        <pt x="245" y="379" on="1"/>
        <pt x="250" y="379" on="1"/>
        <pt x="258" y="379" on="0"/>
        <pt x="269" y="391" on="0"/>
        <pt x="269" y="399" on="1"/>
        <pt x="269" y="518" on="1"/>
        <pt x="269" y="526" on="0"/>
        <pt x="258" y="538" on="0"/>
        <pt x="250" y="538" on="1"/>
        <pt x="174" y="538" on="1"/>
        <pt x="166" y="538" on="0"/>
        <pt x="155" y="526" on="0"/>
        <pt x="155" y="518" on="1"/>
        <pt x="155" y="467" on="1"/>
        <pt x="31" y="467" on="1"/>
        <pt x="31" y="515" on="1"/>
        <pt x="31" y="647" on="0"/>
        <pt x="155" y="647" on="1"/>
        <pt x="266" y="647" on="1"/>
        <pt x="390" y="647" on="0"/>
        <pt x="390" y="515" on="1"/>
        <pt x="390" y="397" on="1"/>
        <pt x="390" y="265" on="0"/>
        <pt x="266" y="265" on="1"/>
      </contour>
      <contour>
        <pt x="110" y="92" on="0"/>
        <pt x="152" y="134" on="0"/>
        <pt x="212" y="134" on="0"/>
        <pt x="254" y="92" on="0"/>
        <pt x="254" y="32" on="0"/>
        <pt x="212" y="-10" on="0"/>
        <pt x="152" y="-10" on="0"/>
        <pt x="110" y="32" on="0"/>
      </contour>
    </TTGlyph>
    <TTGlyph name="questiondown" xMin="31" yMin="-157" xMax="390" yMax="500">
      <contour>
        <pt x="155" y="225" on="1"/>
        <pt x="164" y="225" on="1"/>
        <pt x="172" y="225" on="0"/>
        <pt x="183" y="237" on="0"/>
        <pt x="183" y="245" on="1"/>
        <pt x="183" y="300" on="1"/>
        <pt x="300" y="300" on="1"/>
        <pt x="300" y="243" on="1"/>
        <pt x="300" y="111" on="0"/>
        <pt x="176" y="111" on="1"/>
        <pt x="171" y="111" on="1"/>
        <pt x="163" y="111" on="0"/>
        <pt x="152" y="99" on="0"/>
        <pt x="152" y="91" on="1"/>
        <pt x="152" y="-28" on="1"/>
        <pt x="152" y="-36" on="0"/>
        <pt x="163" y="-48" on="0"/>
        <pt x="171" y="-48" on="1"/>
        <pt x="247" y="-48" on="1"/>
        <pt x="255" y="-48" on="0"/>
        <pt x="266" y="-36" on="0"/>
        <pt x="266" y="-28" on="1"/>
        <pt x="266" y="23" on="1"/>
        <pt x="390" y="23" on="1"/>
        <pt x="390" y="-25" on="1"/>
        <pt x="390" y="-157" on="0"/>
        <pt x="266" y="-157" on="1"/>
        <pt x="155" y="-157" on="1"/>
        <pt x="31" y="-157" on="0"/>
        <pt x="31" y="-25" on="1"/>
        <pt x="31" y="93" on="1"/>
        <pt x="31" y="225" on="0"/>
      </contour>
      <contour>
        <pt x="311" y="398" on="0"/>
        <pt x="269" y="356" on="0"/>
        <pt x="209" y="356" on="0"/>
        <pt x="167" y="398" on="0"/>
        <pt x="167" y="458" on="0"/>
        <pt x="209" y="500" on="0"/>
        <pt x="269" y="500" on="0"/>
        <pt x="311" y="458" on="0"/>
      </contour>
    </TTGlyph>
    <TTGlyph name="quotedbl" xMin="52" yMin="440" xMax="324" yMax="647">
      <contour>
        <pt x="167" y="647" on="1"/>
        <pt x="154" y="440" on="1"/>
        <pt x="64" y="440" on="1"/>
        <pt x="52" y="647" on="1"/>
      </contour>
      <contour>
        <pt x="324" y="647" on="1"/>
        <pt x="311" y="440" on="1"/>
        <pt x="221" y="440" on="1"/>
        <pt x="209" y="647" on="1"/>
      </contour>
    </TTGlyph>
    <TTGlyph name="quotesingle" xMin="52" yMin="440" xMax="167" yMax="647">
      <contour>
        <pt x="167" y="647" on="1"/>
        <pt x="154" y="440" on="1"/>
        <pt x="64" y="440" on="1"/>
        <pt x="52" y="647" on="1"/>
      </contour>
    </TTGlyph>
    <TTGlyph name="r" xMin="45" yMin="0" xMax="279" yMax="498">
      <contour>
        <pt x="253" y="498" on="1"/>
        <pt x="279" y="498" on="1"/>
        <pt x="279" y="368" on="1"/>
        <pt x="213" y="368" on="1"/>
        <pt x="179" y="368" on="0"/>
        <pt x="179" y="333" on="1"/>
        <pt x="179" y="0" on="1"/>
        <pt x="45" y="0" on="1"/>
        <pt x="45" y="488" on="1"/>
        <pt x="167" y="488" on="1"/>
        <pt x="167" y="441" on="1"/>
        <pt x="196" y="498" on="0"/>
      </contour>
    </TTGlyph>
    <TTGlyph name="registered" xMin="56" yMin="29" xMax="518" yMax="624">
      <contour>
        <pt x="464" y="624" on="1"/>
        <pt x="486" y="624" on="0"/>
        <pt x="518" y="592" on="0"/>
        <pt x="518" y="570" on="1"/>
        <pt x="518" y="83" on="1"/>
        <pt x="518" y="60" on="0"/>
        <pt x="486" y="29" on="0"/>
        <pt x="464" y="29" on="1"/>
        <pt x="110" y="29" on="1"/>
        <pt x="88" y="29" on="0"/>
        <pt x="56" y="60" on="0"/>
        <pt x="56" y="83" on="1"/>
        <pt x="56" y="570" on="1"/>
        <pt x="56" y="592" on="0"/>
        <pt x="88" y="624" on="0"/>
        <pt x="110" y="624" on="1"/>
      </contour>
      <contour>
        <pt x="452" y="95" on="1"/>
        <pt x="452" y="558" on="1"/>
        <pt x="122" y="558" on="1"/>
        <pt x="122" y="95" on="1"/>
      </contour>
      <contour>
        <pt x="262" y="295" on="1"/>
        <pt x="262" y="153" on="1"/>
        <pt x="187" y="153" on="1"/>
        <pt x="187" y="500" on="1"/>
        <pt x="321" y="500" on="1"/>
        <pt x="387" y="500" on="0"/>
        <pt x="387" y="429" on="1"/>
        <pt x="387" y="389" on="1"/>
        <pt x="387" y="346" on="0"/>
        <pt x="357" y="334" on="1"/>
        <pt x="384" y="324" on="0"/>
        <pt x="384" y="290" on="1"/>
        <pt x="384" y="153" on="1"/>
        <pt x="308" y="153" on="1"/>
        <pt x="308" y="284" on="1"/>
        <pt x="308" y="295" on="0"/>
        <pt x="298" y="295" on="1"/>
      </contour>
      <contour>
        <pt x="262" y="449" on="1"/>
        <pt x="262" y="348" on="1"/>
        <pt x="302" y="348" on="1"/>
        <pt x="312" y="348" on="0"/>
        <pt x="312" y="358" on="1"/>
        <pt x="312" y="438" on="1"/>
        <pt x="312" y="449" on="0"/>
        <pt x="302" y="449" on="1"/>
      </contour>
    </TTGlyph>
    <TTGlyph name="ring" xMin="44" yMin="483" xMax="249" yMax="646">
      <contour>
        <pt x="179" y="646" on="1"/>
        <pt x="249" y="646" on="0"/>
        <pt x="249" y="571" on="1"/>
        <pt x="249" y="558" on="1"/>
        <pt x="249" y="483" on="0"/>
        <pt x="179" y="483" on="1"/>
        <pt x="115" y="483" on="1"/>
        <pt x="44" y="483" on="0"/>
        <pt x="44" y="558" on="1"/>
        <pt x="44" y="571" on="1"/>
        <pt x="44" y="646" on="0"/>
        <pt x="115" y="646" on="1"/>
      </contour>
      <contour>
        <pt x="179" y="537" on="1"/>
        <pt x="179" y="591" on="1"/>
        <pt x="179" y="597" on="0"/>
        <pt x="171" y="605" on="0"/>
        <pt x="166" y="605" on="1"/>
        <pt x="128" y="605" on="1"/>
        <pt x="115" y="605" on="0"/>
        <pt x="115" y="591" on="1"/>
        <pt x="115" y="537" on="1"/>
        <pt x="115" y="532" on="0"/>
        <pt x="123" y="523" on="0"/>
        <pt x="128" y="523" on="1"/>
        <pt x="166" y="523" on="1"/>
        <pt x="171" y="523" on="0"/>
        <pt x="179" y="532" on="0"/>
      </contour>
    </TTGlyph>
    <TTGlyph name="s" xMin="38" yMin="-10" xMax="399" yMax="498">
      <contour>
        <pt x="275" y="306" on="1"/>
        <pt x="399" y="306" on="0"/>
        <pt x="399" y="174" on="1"/>
        <pt x="399" y="122" on="1"/>
        <pt x="399" y="-10" on="0"/>
        <pt x="275" y="-10" on="1"/>
        <pt x="164" y="-10" on="1"/>
        <pt x="40" y="-10" on="0"/>
        <pt x="40" y="122" on="1"/>
        <pt x="40" y="153" on="1"/>
        <pt x="164" y="153" on="1"/>
        <pt x="164" y="109" on="1"/>
        <pt x="164" y="101" on="0"/>
        <pt x="175" y="89" on="0"/>
        <pt x="183" y="89" on="1"/>
        <pt x="265" y="89" on="1"/>
        <pt x="273" y="89" on="0"/>
        <pt x="284" y="101" on="0"/>
        <pt x="284" y="109" on="1"/>
        <pt x="284" y="169" on="1"/>
        <pt x="284" y="177" on="0"/>
        <pt x="273" y="189" on="0"/>
        <pt x="265" y="189" on="1"/>
        <pt x="162" y="189" on="1"/>
        <pt x="38" y="189" on="0"/>
        <pt x="38" y="321" on="1"/>
        <pt x="38" y="366" on="1"/>
        <pt x="38" y="498" on="0"/>
        <pt x="162" y="498" on="1"/>
        <pt x="267" y="498" on="1"/>
        <pt x="391" y="498" on="0"/>
        <pt x="391" y="366" on="1"/>
        <pt x="391" y="348" on="1"/>
        <pt x="267" y="348" on="1"/>
        <pt x="267" y="379" on="1"/>
        <pt x="267" y="387" on="0"/>
        <pt x="256" y="399" on="0"/>
        <pt x="248" y="399" on="1"/>
        <pt x="172" y="399" on="1"/>
        <pt x="164" y="399" on="0"/>
        <pt x="153" y="387" on="0"/>
        <pt x="153" y="379" on="1"/>
        <pt x="153" y="326" on="1"/>
        <pt x="153" y="318" on="0"/>
        <pt x="164" y="306" on="0"/>
        <pt x="172" y="306" on="1"/>
      </contour>
    </TTGlyph>
    <TTGlyph name="section" xMin="38" yMin="-168" xMax="399" yMax="555">
      <contour>
        <pt x="399" y="217" on="1"/>
        <pt x="399" y="144" on="0"/>
        <pt x="361" y="111" on="1"/>
        <pt x="399" y="79" on="0"/>
        <pt x="399" y="6" on="1"/>
        <pt x="399" y="-36" on="1"/>
        <pt x="399" y="-168" on="0"/>
        <pt x="275" y="-168" on="1"/>
        <pt x="165" y="-168" on="1"/>
        <pt x="41" y="-168" on="0"/>
        <pt x="41" y="-36" on="1"/>
        <pt x="41" y="-18" on="1"/>
        <pt x="165" y="-18" on="1"/>
        <pt x="165" y="-57" on="1"/>
        <pt x="165" y="-65" on="0"/>
        <pt x="176" y="-77" on="0"/>
        <pt x="184" y="-77" on="1"/>
        <pt x="265" y="-77" on="1"/>
        <pt x="273" y="-77" on="0"/>
        <pt x="284" y="-65" on="0"/>
        <pt x="284" y="-57" on="1"/>
        <pt x="284" y="10" on="1"/>
        <pt x="284" y="18" on="0"/>
        <pt x="273" y="30" on="0"/>
        <pt x="265" y="30" on="1"/>
        <pt x="162" y="30" on="1"/>
        <pt x="38" y="30" on="0"/>
        <pt x="38" y="162" on="1"/>
        <pt x="38" y="170" on="1"/>
        <pt x="38" y="243" on="0"/>
        <pt x="76" y="275" on="1"/>
        <pt x="38" y="308" on="0"/>
        <pt x="38" y="381" on="1"/>
        <pt x="38" y="423" on="1"/>
        <pt x="38" y="555" on="0"/>
        <pt x="162" y="555" on="1"/>
        <pt x="272" y="555" on="1"/>
        <pt x="396" y="555" on="0"/>
        <pt x="396" y="423" on="1"/>
        <pt x="396" y="405" on="1"/>
        <pt x="272" y="405" on="1"/>
        <pt x="272" y="444" on="1"/>
        <pt x="272" y="452" on="0"/>
        <pt x="261" y="464" on="0"/>
        <pt x="253" y="464" on="1"/>
        <pt x="172" y="464" on="1"/>
        <pt x="164" y="464" on="0"/>
        <pt x="153" y="452" on="0"/>
        <pt x="153" y="444" on="1"/>
        <pt x="153" y="377" on="1"/>
        <pt x="153" y="369" on="0"/>
        <pt x="164" y="357" on="0"/>
        <pt x="172" y="357" on="1"/>
        <pt x="275" y="357" on="1"/>
        <pt x="399" y="357" on="0"/>
        <pt x="399" y="225" on="1"/>
      </contour>
      <contour>
        <pt x="172" y="133" on="1"/>
        <pt x="265" y="133" on="1"/>
        <pt x="273" y="133" on="0"/>
        <pt x="284" y="145" on="0"/>
        <pt x="284" y="153" on="1"/>
        <pt x="284" y="233" on="1"/>
        <pt x="284" y="241" on="0"/>
        <pt x="273" y="253" on="0"/>
        <pt x="265" y="253" on="1"/>
        <pt x="172" y="253" on="1"/>
        <pt x="164" y="253" on="0"/>
        <pt x="153" y="241" on="0"/>
        <pt x="153" y="233" on="1"/>
        <pt x="153" y="153" on="1"/>
        <pt x="153" y="145" on="0"/>
        <pt x="164" y="133" on="0"/>
      </contour>
    </TTGlyph>
    <TTGlyph name="semicolon" xMin="36" yMin="-145" xMax="203" yMax="479">
      <contour>
        <pt x="59" y="437" on="0"/>
        <pt x="101" y="479" on="0"/>
        <pt x="161" y="479" on="0"/>
        <pt x="203" y="437" on="0"/>
        <pt x="203" y="377" on="0"/>
        <pt x="161" y="335" on="0"/>
        <pt x="101" y="335" on="0"/>
        <pt x="59" y="377" on="0"/>
      </contour>
      <contour>
        <pt x="198" y="59" on="1"/>
        <pt x="128" y="-145" on="1"/>
        <pt x="36" y="-145" on="1"/>
        <pt x="79" y="59" on="1"/>
      </contour>
    </TTGlyph>
    <TTGlyph name="seven" xMin="49" yMin="0" xMax="379" yMax="647">
      <contour>
        <pt x="49" y="647" on="1"/>
        <pt x="379" y="647" on="1"/>
        <pt x="245" y="0" on="1"/>
        <pt x="118" y="0" on="1"/>
        <pt x="223" y="540" on="1"/>
        <pt x="49" y="540" on="1"/>
      </contour>
    </TTGlyph>
    <TTGlyph name="six" xMin="56" yMin="-10" xMax="422" yMax="657">
      <contour>
        <pt x="298" y="392" on="1"/>
        <pt x="422" y="392" on="0"/>
        <pt x="422" y="260" on="1"/>
        <pt x="422" y="122" on="1"/>
        <pt x="422" y="-10" on="0"/>
        <pt x="298" y="-10" on="1"/>
        <pt x="180" y="-10" on="1"/>
        <pt x="56" y="-10" on="0"/>
        <pt x="56" y="122" on="1"/>
        <pt x="56" y="525" on="1"/>
        <pt x="56" y="657" on="0"/>
        <pt x="180" y="657" on="1"/>
        <pt x="288" y="657" on="1"/>
        <pt x="412" y="657" on="0"/>
        <pt x="412" y="525" on="1"/>
        <pt x="412" y="477" on="1"/>
        <pt x="284" y="477" on="1"/>
        <pt x="284" y="528" on="1"/>
        <pt x="284" y="536" on="0"/>
        <pt x="273" y="548" on="0"/>
        <pt x="265" y="548" on="1"/>
        <pt x="200" y="548" on="1"/>
        <pt x="192" y="548" on="0"/>
        <pt x="181" y="536" on="0"/>
        <pt x="181" y="528" on="1"/>
        <pt x="181" y="379" on="1"/>
        <pt x="208" y="392" on="0"/>
        <pt x="248" y="392" on="1"/>
      </contour>
      <contour>
        <pt x="298" y="133" on="1"/>
        <pt x="298" y="249" on="1"/>
        <pt x="298" y="257" on="0"/>
        <pt x="287" y="269" on="0"/>
        <pt x="279" y="269" on="1"/>
        <pt x="200" y="269" on="1"/>
        <pt x="192" y="269" on="0"/>
        <pt x="181" y="257" on="0"/>
        <pt x="181" y="249" on="1"/>
        <pt x="181" y="133" on="1"/>
        <pt x="181" y="125" on="0"/>
        <pt x="192" y="113" on="0"/>
        <pt x="200" y="113" on="1"/>
        <pt x="279" y="113" on="1"/>
        <pt x="287" y="113" on="0"/>
        <pt x="298" y="125" on="0"/>
      </contour>
    </TTGlyph>
    <TTGlyph name="slash" xMin="-42" yMin="-72" xMax="348" yMax="674">
      <contour>
        <pt x="241" y="674" on="1"/>
        <pt x="348" y="674" on="1"/>
        <pt x="65" y="-72" on="1"/>
        <pt x="-42" y="-72" on="1"/>
      </contour>
    </TTGlyph>
    <TTGlyph name="sterling" xMin="32" yMin="0" xMax="470" yMax="657">
      <contour>
        <pt x="470" y="464" on="1"/>
        <pt x="337" y="464" on="1"/>
        <pt x="337" y="542" on="1"/>
        <pt x="337" y="550" on="0"/>
        <pt x="326" y="562" on="0"/>
        <pt x="318" y="562" on="1"/>
        <pt x="255" y="562" on="1"/>
        <pt x="247" y="562" on="0"/>
        <pt x="236" y="550" on="0"/>
        <pt x="236" y="542" on="1"/>
        <pt x="236" y="376" on="1"/>
        <pt x="333" y="376" on="1"/>
        <pt x="333" y="275" on="1"/>
        <pt x="236" y="275" on="1"/>
        <pt x="236" y="101" on="1"/>
        <pt x="405" y="101" on="1"/>
        <pt x="405" y="0" on="1"/>
        <pt x="32" y="0" on="1"/>
        <pt x="32" y="101" on="1"/>
        <pt x="96" y="101" on="1"/>
        <pt x="96" y="275" on="1"/>
        <pt x="32" y="275" on="1"/>
        <pt x="32" y="376" on="1"/>
        <pt x="96" y="376" on="1"/>
        <pt x="96" y="525" on="1"/>
        <pt x="96" y="657" on="0"/>
        <pt x="220" y="657" on="1"/>
        <pt x="346" y="657" on="1"/>
        <pt x="470" y="657" on="0"/>
        <pt x="470" y="525" on="1"/>
      </contour>
    </TTGlyph>
    <TTGlyph name="t" xMin="45" yMin="-10" xMax="263" yMax="594">
      <contour>
        <pt x="223" y="77" on="1"/>
        <pt x="263" y="77" on="1"/>
        <pt x="263" y="-10" on="1"/>
        <pt x="169" y="-10" on="1"/>
        <pt x="45" y="-10" on="0"/>
        <pt x="45" y="122" on="1"/>
        <pt x="45" y="594" on="1"/>
        <pt x="179" y="594" on="1"/>
        <pt x="179" y="488" on="1"/>
        <pt x="263" y="488" on="1"/>
        <pt x="263" y="391" on="1"/>
        <pt x="179" y="391" on="1"/>
        <pt x="179" y="125" on="1"/>
        <pt x="179" y="97" on="0"/>
        <pt x="201" y="77" on="0"/>
      </contour>
    </TTGlyph>
    <TTGlyph name="thorn" xMin="45" yMin="-159" xMax="406" yMax="647">
      <contour>
        <pt x="45" y="-159" on="1"/>
        <pt x="45" y="647" on="1"/>
        <pt x="179" y="647" on="1"/>
        <pt x="179" y="474" on="1"/>
        <pt x="211" y="498" on="0"/>
        <pt x="261" y="498" on="1"/>
        <pt x="282" y="498" on="1"/>
        <pt x="406" y="498" on="0"/>
        <pt x="406" y="366" on="1"/>
        <pt x="406" y="122" on="1"/>
        <pt x="406" y="-10" on="0"/>
        <pt x="282" y="-10" on="1"/>
        <pt x="261" y="-10" on="1"/>
        <pt x="210" y="-10" on="0"/>
        <pt x="179" y="13" on="1"/>
        <pt x="179" y="-159" on="1"/>
      </contour>
      <contour>
        <pt x="179" y="382" on="1"/>
        <pt x="179" y="106" on="1"/>
        <pt x="179" y="98" on="0"/>
        <pt x="190" y="86" on="0"/>
        <pt x="198" y="86" on="1"/>
        <pt x="253" y="86" on="1"/>
        <pt x="261" y="86" on="0"/>
        <pt x="272" y="98" on="0"/>
        <pt x="272" y="106" on="1"/>
        <pt x="272" y="382" on="1"/>
        <pt x="272" y="390" on="0"/>
        <pt x="261" y="402" on="0"/>
        <pt x="253" y="402" on="1"/>
        <pt x="198" y="402" on="1"/>
        <pt x="190" y="402" on="0"/>
        <pt x="179" y="390" on="0"/>
      </contour>
    </TTGlyph>
    <TTGlyph name="three" xMin="46" yMin="-10" xMax="412" yMax="657">
      <contour>
        <pt x="365" y="331" on="1"/>
        <pt x="412" y="298" on="0"/>
        <pt x="412" y="218" on="1"/>
        <pt x="412" y="122" on="1"/>
        <pt x="412" y="-10" on="0"/>
        <pt x="288" y="-10" on="1"/>
        <pt x="170" y="-10" on="1"/>
        <pt x="46" y="-10" on="0"/>
        <pt x="46" y="122" on="1"/>
        <pt x="46" y="175" on="1"/>
        <pt x="171" y="175" on="1"/>
        <pt x="171" y="116" on="1"/>
        <pt x="171" y="108" on="0"/>
        <pt x="182" y="96" on="0"/>
        <pt x="190" y="96" on="1"/>
        <pt x="269" y="96" on="1"/>
        <pt x="277" y="96" on="0"/>
        <pt x="288" y="108" on="0"/>
        <pt x="288" y="116" on="1"/>
        <pt x="288" y="254" on="1"/>
        <pt x="288" y="262" on="0"/>
        <pt x="277" y="274" on="0"/>
        <pt x="269" y="274" on="1"/>
        <pt x="166" y="274" on="1"/>
        <pt x="166" y="382" on="1"/>
        <pt x="263" y="382" on="1"/>
        <pt x="271" y="382" on="0"/>
        <pt x="282" y="394" on="0"/>
        <pt x="282" y="402" on="1"/>
        <pt x="282" y="528" on="1"/>
        <pt x="282" y="536" on="0"/>
        <pt x="271" y="548" on="0"/>
        <pt x="263" y="548" on="1"/>
        <pt x="196" y="548" on="1"/>
        <pt x="188" y="548" on="0"/>
        <pt x="177" y="536" on="0"/>
        <pt x="177" y="528" on="1"/>
        <pt x="177" y="464" on="1"/>
        <pt x="52" y="464" on="1"/>
        <pt x="52" y="525" on="1"/>
        <pt x="52" y="657" on="0"/>
        <pt x="176" y="657" on="1"/>
        <pt x="282" y="657" on="1"/>
        <pt x="406" y="657" on="0"/>
        <pt x="406" y="525" on="1"/>
        <pt x="406" y="439" on="1"/>
        <pt x="406" y="361" on="0"/>
      </contour>
    </TTGlyph>
    <TTGlyph name="threesuperior" xMin="51" yMin="342" xMax="223" yMax="655">
      <contour>
        <pt x="201" y="502" on="1"/>
        <pt x="223" y="486" on="0"/>
        <pt x="223" y="449" on="1"/>
        <pt x="223" y="404" on="1"/>
        <pt x="223" y="342" on="0"/>
        <pt x="165" y="342" on="1"/>
        <pt x="110" y="342" on="1"/>
        <pt x="51" y="342" on="0"/>
        <pt x="51" y="404" on="1"/>
        <pt x="51" y="429" on="1"/>
        <pt x="110" y="429" on="1"/>
        <pt x="110" y="401" on="1"/>
        <pt x="110" y="392" on="0"/>
        <pt x="119" y="392" on="1"/>
        <pt x="156" y="392" on="1"/>
        <pt x="165" y="392" on="0"/>
        <pt x="165" y="401" on="1"/>
        <pt x="165" y="466" on="1"/>
        <pt x="165" y="475" on="0"/>
        <pt x="156" y="475" on="1"/>
        <pt x="108" y="475" on="1"/>
        <pt x="108" y="526" on="1"/>
        <pt x="153" y="526" on="1"/>
        <pt x="162" y="526" on="0"/>
        <pt x="162" y="535" on="1"/>
        <pt x="162" y="594" on="1"/>
        <pt x="162" y="604" on="0"/>
        <pt x="153" y="604" on="1"/>
        <pt x="122" y="604" on="1"/>
        <pt x="113" y="604" on="0"/>
        <pt x="113" y="594" on="1"/>
        <pt x="113" y="564" on="1"/>
        <pt x="54" y="564" on="1"/>
        <pt x="54" y="593" on="1"/>
        <pt x="54" y="655" on="0"/>
        <pt x="112" y="655" on="1"/>
        <pt x="162" y="655" on="1"/>
        <pt x="220" y="655" on="0"/>
        <pt x="220" y="593" on="1"/>
        <pt x="220" y="553" on="1"/>
        <pt x="220" y="515" on="0"/>
      </contour>
    </TTGlyph>
    <TTGlyph name="tilde" xMin="23" yMin="473" xMax="348" yMax="585">
      <contour>
        <pt x="235" y="473" on="1"/>
        <pt x="208" y="476" on="0"/>
        <pt x="135" y="504" on="0"/>
        <pt x="116" y="506" on="1"/>
        <pt x="75" y="506" on="0"/>
        <pt x="50" y="475" on="1"/>
        <pt x="23" y="477" on="1"/>
        <pt x="24" y="486" on="1"/>
        <pt x="28" y="535" on="0"/>
        <pt x="86" y="585" on="0"/>
        <pt x="159" y="585" on="0"/>
        <pt x="241" y="553" on="0"/>
        <pt x="295" y="553" on="0"/>
        <pt x="321" y="583" on="1"/>
        <pt x="348" y="581" on="1"/>
        <pt x="347" y="572" on="1"/>
        <pt x="343" y="524" on="0"/>
        <pt x="284" y="473" on="0"/>
        <pt x="244" y="473" on="1"/>
      </contour>
    </TTGlyph>
    <TTGlyph name="two" xMin="52" yMin="0" xMax="411" yMax="657">
      <contour>
        <pt x="187" y="222" on="1"/>
        <pt x="187" y="115" on="1"/>
        <pt x="403" y="115" on="1"/>
        <pt x="403" y="0" on="1"/>
        <pt x="59" y="0" on="1"/>
        <pt x="59" y="233" on="1"/>
        <pt x="59" y="365" on="0"/>
        <pt x="183" y="365" on="1"/>
        <pt x="263" y="365" on="1"/>
        <pt x="271" y="365" on="0"/>
        <pt x="282" y="377" on="0"/>
        <pt x="282" y="385" on="1"/>
        <pt x="282" y="528" on="1"/>
        <pt x="282" y="536" on="0"/>
        <pt x="271" y="548" on="0"/>
        <pt x="263" y="548" on="1"/>
        <pt x="204" y="548" on="1"/>
        <pt x="196" y="548" on="0"/>
        <pt x="185" y="536" on="0"/>
        <pt x="185" y="528" on="1"/>
        <pt x="185" y="477" on="1"/>
        <pt x="52" y="477" on="1"/>
        <pt x="52" y="525" on="1"/>
        <pt x="52" y="657" on="0"/>
        <pt x="176" y="657" on="1"/>
        <pt x="287" y="657" on="1"/>
        <pt x="411" y="657" on="0"/>
        <pt x="411" y="525" on="1"/>
        <pt x="411" y="374" on="1"/>
        <pt x="411" y="242" on="0"/>
        <pt x="287" y="242" on="1"/>
        <pt x="206" y="242" on="1"/>
        <pt x="198" y="242" on="0"/>
        <pt x="187" y="230" on="0"/>
      </contour>
    </TTGlyph>
    <TTGlyph name="twosuperior" xMin="54" yMin="347" xMax="222" yMax="655">
      <contour>
        <pt x="117" y="451" on="1"/>
        <pt x="117" y="401" on="1"/>
        <pt x="218" y="401" on="1"/>
        <pt x="218" y="347" on="1"/>
        <pt x="57" y="347" on="1"/>
        <pt x="57" y="456" on="1"/>
        <pt x="57" y="518" on="0"/>
        <pt x="115" y="518" on="1"/>
        <pt x="153" y="518" on="1"/>
        <pt x="162" y="518" on="0"/>
        <pt x="162" y="527" on="1"/>
        <pt x="162" y="594" on="1"/>
        <pt x="162" y="604" on="0"/>
        <pt x="153" y="604" on="1"/>
        <pt x="125" y="604" on="1"/>
        <pt x="116" y="604" on="0"/>
        <pt x="116" y="594" on="1"/>
        <pt x="116" y="570" on="1"/>
        <pt x="54" y="570" on="1"/>
        <pt x="54" y="593" on="1"/>
        <pt x="54" y="655" on="0"/>
        <pt x="112" y="655" on="1"/>
        <pt x="164" y="655" on="1"/>
        <pt x="222" y="655" on="0"/>
        <pt x="222" y="593" on="1"/>
        <pt x="222" y="522" on="1"/>
        <pt x="222" y="460" on="0"/>
        <pt x="164" y="460" on="1"/>
        <pt x="126" y="460" on="1"/>
        <pt x="117" y="460" on="0"/>
      </contour>
    </TTGlyph>
    <TTGlyph name="u" xMin="45" yMin="-10" xMax="406" yMax="488">
      <contour>
        <pt x="272" y="488" on="1"/>
        <pt x="406" y="488" on="1"/>
        <pt x="406" y="0" on="1"/>
        <pt x="284" y="0" on="1"/>
        <pt x="284" y="25" on="1"/>
        <pt x="253" y="-10" on="0"/>
        <pt x="190" y="-10" on="1"/>
        <pt x="169" y="-10" on="1"/>
        <pt x="45" y="-10" on="0"/>
        <pt x="45" y="122" on="1"/>
        <pt x="45" y="488" on="1"/>
        <pt x="179" y="488" on="1"/>
        <pt x="179" y="106" on="1"/>
        <pt x="179" y="98" on="0"/>
        <pt x="190" y="86" on="0"/>
        <pt x="198" y="86" on="1"/>
        <pt x="253" y="86" on="1"/>
        <pt x="261" y="86" on="0"/>
        <pt x="272" y="98" on="0"/>
        <pt x="272" y="106" on="1"/>
      </contour>
    </TTGlyph>
    <TTGlyph name="uacute" xMin="45" yMin="-10" xMax="406" yMax="647">
      <contour>
        <pt x="272" y="488" on="1"/>
        <pt x="406" y="488" on="1"/>
        <pt x="406" y="0" on="1"/>
        <pt x="284" y="0" on="1"/>
        <pt x="284" y="25" on="1"/>
        <pt x="253" y="-10" on="0"/>
        <pt x="190" y="-10" on="1"/>
        <pt x="169" y="-10" on="1"/>
        <pt x="45" y="-10" on="0"/>
        <pt x="45" y="122" on="1"/>
        <pt x="45" y="488" on="1"/>
        <pt x="179" y="488" on="1"/>
        <pt x="179" y="106" on="1"/>
        <pt x="179" y="98" on="0"/>
        <pt x="190" y="86" on="0"/>
        <pt x="198" y="86" on="1"/>
        <pt x="253" y="86" on="1"/>
        <pt x="261" y="86" on="0"/>
        <pt x="272" y="98" on="0"/>
        <pt x="272" y="106" on="1"/>
      </contour>
      <contour>
        <pt x="363" y="647" on="1"/>
        <pt x="232" y="545" on="1"/>
        <pt x="133" y="545" on="1"/>
        <pt x="216" y="647" on="1"/>
      </contour>
    </TTGlyph>
    <TTGlyph name="ucircumflex" xMin="45" yMin="-10" xMax="406" yMax="647">
      <contour>
        <pt x="272" y="488" on="1"/>
        <pt x="406" y="488" on="1"/>
        <pt x="406" y="0" on="1"/>
        <pt x="284" y="0" on="1"/>
        <pt x="284" y="25" on="1"/>
        <pt x="253" y="-10" on="0"/>
        <pt x="190" y="-10" on="1"/>
        <pt x="169" y="-10" on="1"/>
        <pt x="45" y="-10" on="0"/>
        <pt x="45" y="122" on="1"/>
        <pt x="45" y="488" on="1"/>
        <pt x="179" y="488" on="1"/>
        <pt x="179" y="106" on="1"/>
        <pt x="179" y="98" on="0"/>
        <pt x="190" y="86" on="0"/>
        <pt x="198" y="86" on="1"/>
        <pt x="253" y="86" on="1"/>
        <pt x="261" y="86" on="0"/>
        <pt x="272" y="98" on="0"/>
        <pt x="272" y="106" on="1"/>
      </contour>
      <contour>
        <pt x="383" y="541" on="1"/>
        <pt x="284" y="541" on="1"/>
        <pt x="225" y="597" on="1"/>
        <pt x="166" y="541" on="1"/>
        <pt x="67" y="541" on="1"/>
        <pt x="150" y="647" on="1"/>
        <pt x="300" y="647" on="1"/>
      </contour>
    </TTGlyph>
    <TTGlyph name="udieresis" xMin="45" yMin="-10" xMax="406" yMax="647">
      <contour>
        <pt x="272" y="488" on="1"/>
        <pt x="406" y="488" on="1"/>
        <pt x="406" y="0" on="1"/>
        <pt x="284" y="0" on="1"/>
        <pt x="284" y="25" on="1"/>
        <pt x="253" y="-10" on="0"/>
        <pt x="190" y="-10" on="1"/>
        <pt x="169" y="-10" on="1"/>
        <pt x="45" y="-10" on="0"/>
        <pt x="45" y="122" on="1"/>
        <pt x="45" y="488" on="1"/>
        <pt x="179" y="488" on="1"/>
        <pt x="179" y="106" on="1"/>
        <pt x="179" y="98" on="0"/>
        <pt x="190" y="86" on="0"/>
        <pt x="198" y="86" on="1"/>
        <pt x="253" y="86" on="1"/>
        <pt x="261" y="86" on="0"/>
        <pt x="272" y="98" on="0"/>
        <pt x="272" y="106" on="1"/>
      </contour>
      <contour>
        <pt x="168" y="647" on="0"/>
        <pt x="201" y="613" on="0"/>
        <pt x="201" y="566" on="0"/>
        <pt x="168" y="533" on="0"/>
        <pt x="121" y="533" on="0"/>
        <pt x="87" y="566" on="0"/>
        <pt x="87" y="613" on="0"/>
        <pt x="121" y="647" on="0"/>
      </contour>
      <contour>
        <pt x="330" y="647" on="0"/>
        <pt x="363" y="613" on="0"/>
        <pt x="363" y="566" on="0"/>
        <pt x="330" y="533" on="0"/>
        <pt x="283" y="533" on="0"/>
        <pt x="249" y="566" on="0"/>
        <pt x="249" y="613" on="0"/>
        <pt x="283" y="647" on="0"/>
      </contour>
    </TTGlyph>
    <TTGlyph name="ugrave" xMin="45" yMin="-10" xMax="406" yMax="647">
      <contour>
        <pt x="272" y="488" on="1"/>
        <pt x="406" y="488" on="1"/>
        <pt x="406" y="0" on="1"/>
        <pt x="284" y="0" on="1"/>
        <pt x="284" y="25" on="1"/>
        <pt x="253" y="-10" on="0"/>
        <pt x="190" y="-10" on="1"/>
        <pt x="169" y="-10" on="1"/>
        <pt x="45" y="-10" on="0"/>
        <pt x="45" y="122" on="1"/>
        <pt x="45" y="488" on="1"/>
        <pt x="179" y="488" on="1"/>
        <pt x="179" y="106" on="1"/>
        <pt x="179" y="98" on="0"/>
        <pt x="190" y="86" on="0"/>
        <pt x="198" y="86" on="1"/>
        <pt x="253" y="86" on="1"/>
        <pt x="261" y="86" on="0"/>
        <pt x="272" y="98" on="0"/>
        <pt x="272" y="106" on="1"/>
      </contour>
      <contour>
        <pt x="219" y="545" on="1"/>
        <pt x="88" y="647" on="1"/>
        <pt x="235" y="647" on="1"/>
        <pt x="318" y="545" on="1"/>
      </contour>
    </TTGlyph>
    <TTGlyph name="underscore" xMin="32" yMin="-186" xMax="432" yMax="-109">
      <contour>
        <pt x="32" y="-186" on="1"/>
        <pt x="32" y="-109" on="1"/>
        <pt x="432" y="-109" on="1"/>
        <pt x="432" y="-186" on="1"/>
      </contour>
    </TTGlyph>
    <TTGlyph name="v" xMin="9" yMin="0" xMax="400" yMax="488">
      <contour>
        <pt x="270" y="488" on="1"/>
        <pt x="400" y="488" on="1"/>
        <pt x="293" y="0" on="1"/>
        <pt x="116" y="0" on="1"/>
        <pt x="9" y="488" on="1"/>
        <pt x="139" y="488" on="1"/>
        <pt x="205" y="109" on="1"/>
      </contour>
    </TTGlyph>
    <TTGlyph name="w" xMin="7" yMin="0" xMax="655" yMax="488">
      <contour>
        <pt x="267" y="488" on="1"/>
        <pt x="395" y="488" on="1"/>
        <pt x="468" y="109" on="1"/>
        <pt x="525" y="488" on="1"/>
        <pt x="655" y="488" on="1"/>
        <pt x="548" y="0" on="1"/>
        <pt x="386" y="0" on="1"/>
        <pt x="331" y="301" on="1"/>
        <pt x="276" y="0" on="1"/>
        <pt x="114" y="0" on="1"/>
        <pt x="7" y="488" on="1"/>
        <pt x="137" y="488" on="1"/>
        <pt x="194" y="109" on="1"/>
      </contour>
    </TTGlyph>
    <TTGlyph name="x" xMin="4" yMin="0" xMax="430" yMax="488">
      <contour>
        <pt x="217" y="160" on="1"/>
        <pt x="143" y="0" on="1"/>
        <pt x="4" y="0" on="1"/>
        <pt x="140" y="260" on="1"/>
        <pt x="13" y="488" on="1"/>
        <pt x="159" y="488" on="1"/>
        <pt x="217" y="342" on="1"/>
        <pt x="275" y="488" on="1"/>
        <pt x="421" y="488" on="1"/>
        <pt x="294" y="260" on="1"/>
        <pt x="430" y="0" on="1"/>
        <pt x="291" y="0" on="1"/>
      </contour>
    </TTGlyph>
    <TTGlyph name="y" xMin="45" yMin="-169" xMax="406" yMax="488">
      <contour>
        <pt x="272" y="488" on="1"/>
        <pt x="406" y="488" on="1"/>
        <pt x="406" y="-37" on="1"/>
        <pt x="406" y="-169" on="0"/>
        <pt x="282" y="-169" on="1"/>
        <pt x="182" y="-169" on="1"/>
        <pt x="58" y="-169" on="0"/>
        <pt x="58" y="-37" on="1"/>
        <pt x="58" y="-21" on="1"/>
        <pt x="188" y="-21" on="1"/>
        <pt x="188" y="-53" on="1"/>
        <pt x="188" y="-61" on="0"/>
        <pt x="199" y="-73" on="0"/>
        <pt x="207" y="-73" on="1"/>
        <pt x="253" y="-73" on="1"/>
        <pt x="261" y="-73" on="0"/>
        <pt x="272" y="-61" on="0"/>
        <pt x="272" y="-53" on="1"/>
        <pt x="272" y="46" on="1"/>
        <pt x="242" y="22" on="0"/>
        <pt x="190" y="22" on="1"/>
        <pt x="169" y="22" on="1"/>
        <pt x="45" y="22" on="0"/>
        <pt x="45" y="154" on="1"/>
        <pt x="45" y="488" on="1"/>
        <pt x="179" y="488" on="1"/>
        <pt x="179" y="138" on="1"/>
        <pt x="179" y="130" on="0"/>
        <pt x="190" y="118" on="0"/>
        <pt x="198" y="118" on="1"/>
        <pt x="253" y="118" on="1"/>
        <pt x="261" y="118" on="0"/>
        <pt x="272" y="130" on="0"/>
        <pt x="272" y="138" on="1"/>
      </contour>
    </TTGlyph>
    <TTGlyph name="yacute" xMin="45" yMin="-169" xMax="406" yMax="647">
      <contour>
        <pt x="272" y="488" on="1"/>
        <pt x="406" y="488" on="1"/>
        <pt x="406" y="-37" on="1"/>
        <pt x="406" y="-169" on="0"/>
        <pt x="282" y="-169" on="1"/>
        <pt x="182" y="-169" on="1"/>
        <pt x="58" y="-169" on="0"/>
        <pt x="58" y="-37" on="1"/>
        <pt x="58" y="-21" on="1"/>
        <pt x="188" y="-21" on="1"/>
        <pt x="188" y="-53" on="1"/>
        <pt x="188" y="-61" on="0"/>
        <pt x="199" y="-73" on="0"/>
        <pt x="207" y="-73" on="1"/>
        <pt x="253" y="-73" on="1"/>
        <pt x="261" y="-73" on="0"/>
        <pt x="272" y="-61" on="0"/>
        <pt x="272" y="-53" on="1"/>
        <pt x="272" y="46" on="1"/>
        <pt x="242" y="22" on="0"/>
        <pt x="190" y="22" on="1"/>
        <pt x="169" y="22" on="1"/>
        <pt x="45" y="22" on="0"/>
        <pt x="45" y="154" on="1"/>
        <pt x="45" y="488" on="1"/>
        <pt x="179" y="488" on="1"/>
        <pt x="179" y="138" on="1"/>
        <pt x="179" y="130" on="0"/>
        <pt x="190" y="118" on="0"/>
        <pt x="198" y="118" on="1"/>
        <pt x="253" y="118" on="1"/>
        <pt x="261" y="118" on="0"/>
        <pt x="272" y="130" on="0"/>
        <pt x="272" y="138" on="1"/>
      </contour>
      <contour>
        <pt x="363" y="647" on="1"/>
        <pt x="232" y="545" on="1"/>
        <pt x="133" y="545" on="1"/>
        <pt x="216" y="647" on="1"/>
      </contour>
    </TTGlyph>
    <TTGlyph name="ydieresis" xMin="45" yMin="-169" xMax="406" yMax="657">
      <contour>
        <pt x="272" y="488" on="1"/>
        <pt x="406" y="488" on="1"/>
        <pt x="406" y="-37" on="1"/>
        <pt x="406" y="-169" on="0"/>
        <pt x="282" y="-169" on="1"/>
        <pt x="182" y="-169" on="1"/>
        <pt x="58" y="-169" on="0"/>
        <pt x="58" y="-37" on="1"/>
        <pt x="58" y="-21" on="1"/>
        <pt x="188" y="-21" on="1"/>
        <pt x="188" y="-53" on="1"/>
        <pt x="188" y="-61" on="0"/>
        <pt x="199" y="-73" on="0"/>
        <pt x="207" y="-73" on="1"/>
        <pt x="253" y="-73" on="1"/>
        <pt x="261" y="-73" on="0"/>
        <pt x="272" y="-61" on="0"/>
        <pt x="272" y="-53" on="1"/>
        <pt x="272" y="46" on="1"/>
        <pt x="242" y="22" on="0"/>
        <pt x="190" y="22" on="1"/>
        <pt x="169" y="22" on="1"/>
        <pt x="45" y="22" on="0"/>
        <pt x="45" y="154" on="1"/>
        <pt x="45" y="488" on="1"/>
        <pt x="179" y="488" on="1"/>
        <pt x="179" y="138" on="1"/>
        <pt x="179" y="130" on="0"/>
        <pt x="190" y="118" on="0"/>
        <pt x="198" y="118" on="1"/>
        <pt x="253" y="118" on="1"/>
        <pt x="261" y="118" on="0"/>
        <pt x="272" y="130" on="0"/>
        <pt x="272" y="138" on="1"/>
      </contour>
      <contour>
        <pt x="168" y="657" on="0"/>
        <pt x="201" y="623" on="0"/>
        <pt x="201" y="576" on="0"/>
        <pt x="168" y="543" on="0"/>
        <pt x="121" y="543" on="0"/>
        <pt x="87" y="576" on="0"/>
        <pt x="87" y="623" on="0"/>
        <pt x="121" y="657" on="0"/>
      </contour>
      <contour>
        <pt x="330" y="657" on="0"/>
        <pt x="363" y="623" on="0"/>
        <pt x="363" y="576" on="0"/>
        <pt x="330" y="543" on="0"/>
        <pt x="283" y="543" on="0"/>
        <pt x="249" y="576" on="0"/>
        <pt x="249" y="623" on="0"/>
        <pt x="283" y="657" on="0"/>
      </contour>
    </TTGlyph>
    <TTGlyph name="yen" xMin="7" yMin="0" xMax="425" yMax="647">
      <contour>
        <pt x="425" y="647" on="1"/>
        <pt x="320" y="339" on="1"/>
        <pt x="407" y="339" on="1"/>
        <pt x="407" y="267" on="1"/>
        <pt x="296" y="267" on="1"/>
        <pt x="286" y="236" on="1"/>
        <pt x="286" y="202" on="1"/>
        <pt x="407" y="202" on="1"/>
        <pt x="407" y="130" on="1"/>
        <pt x="286" y="130" on="1"/>
        <pt x="286" y="0" on="1"/>
        <pt x="146" y="0" on="1"/>
        <pt x="146" y="130" on="1"/>
        <pt x="25" y="130" on="1"/>
        <pt x="25" y="202" on="1"/>
        <pt x="146" y="202" on="1"/>
        <pt x="146" y="236" on="1"/>
        <pt x="135" y="267" on="1"/>
        <pt x="25" y="267" on="1"/>
        <pt x="25" y="339" on="1"/>
        <pt x="111" y="339" on="1"/>
        <pt x="7" y="647" on="1"/>
        <pt x="139" y="647" on="1"/>
        <pt x="216" y="377" on="1"/>
        <pt x="293" y="647" on="1"/>
      </contour>
    </TTGlyph>
    <TTGlyph name="z" xMin="31" yMin="0" xMax="361" yMax="488">
      <contour>
        <pt x="169" y="99" on="1"/>
        <pt x="361" y="99" on="1"/>
        <pt x="361" y="0" on="1"/>
        <pt x="31" y="0" on="1"/>
        <pt x="31" y="94" on="1"/>
        <pt x="220" y="390" on="1"/>
        <pt x="31" y="390" on="1"/>
        <pt x="31" y="488" on="1"/>
        <pt x="361" y="488" on="1"/>
        <pt x="361" y="399" on="1"/>
      </contour>
    </TTGlyph>
</ttFont>
